<svg width="736" height="232" viewBox="0 0 736 232" fill="none" xmlns="http://www.w3.org/2000/svg">
<path fill-rule="evenodd" clip-rule="evenodd" d="M64.5303 58.5303C64.2374 58.8232 63.7626 58.8232 63.4697 58.5303L60 55.0607L56.5303 58.5303C56.2374 58.8232 55.7626 58.8232 55.4697 58.5303C55.1768 58.2374 55.1768 57.7626 55.4697 57.4697L59.4697 53.4697C59.7626 53.1768 60.2374 53.1768 60.5303 53.4697L64.5303 57.4697C64.8232 57.7626 64.8232 58.2374 64.5303 58.5303Z" fill="#141416"/>
<path fill-rule="evenodd" clip-rule="evenodd" d="M60 53.25C60.4142 53.25 60.75 53.5858 60.75 54L60.75 66C60.75 66.4142 60.4142 66.75 60 66.75C59.5858 66.75 59.25 66.4142 59.25 66L59.25 54C59.25 53.5858 59.5858 53.25 60 53.25Z" fill="#141416"/>
<path fill-rule="evenodd" clip-rule="evenodd" d="M111.47 61.4697C111.763 61.1768 112.237 61.1768 112.53 61.4697L116 64.9393L119.47 61.4697C119.763 61.1768 120.237 61.1768 120.53 61.4697C120.823 61.7626 120.823 62.2374 120.53 62.5303L116.53 66.5303C116.237 66.8232 115.763 66.8232 115.47 66.5303L111.47 62.5303C111.177 62.2374 111.177 61.7626 111.47 61.4697Z" fill="#141416"/>
<path fill-rule="evenodd" clip-rule="evenodd" d="M116 66.75C115.586 66.75 115.25 66.4142 115.25 66L115.25 54C115.25 53.5858 115.586 53.25 116 53.25C116.414 53.25 116.75 53.5858 116.75 54L116.75 66C116.75 66.4142 116.414 66.75 116 66.75Z" fill="#141416"/>
<path fill-rule="evenodd" clip-rule="evenodd" d="M173.47 64.5303C173.177 64.2374 173.177 63.7626 173.47 63.4697L176.939 60L173.47 56.5303C173.177 56.2374 173.177 55.7626 173.47 55.4697C173.763 55.1768 174.237 55.1768 174.53 55.4697L178.53 59.4697C178.823 59.7626 178.823 60.2374 178.53 60.5303L174.53 64.5303C174.237 64.8232 173.763 64.8232 173.47 64.5303Z" fill="#141416"/>
<path fill-rule="evenodd" clip-rule="evenodd" d="M178.75 60C178.75 60.4142 178.414 60.75 178 60.75L166 60.75C165.586 60.75 165.25 60.4142 165.25 60C165.25 59.5858 165.586 59.25 166 59.25L178 59.25C178.414 59.25 178.75 59.5858 178.75 60Z" fill="#141416"/>
<path fill-rule="evenodd" clip-rule="evenodd" d="M226.53 55.4697C226.823 55.7626 226.823 56.2374 226.53 56.5303L223.061 60L226.53 63.4697C226.823 63.7626 226.823 64.2374 226.53 64.5303C226.237 64.8232 225.763 64.8232 225.47 64.5303L221.47 60.5303C221.177 60.2374 221.177 59.7626 221.47 59.4697L225.47 55.4697C225.763 55.1768 226.237 55.1768 226.53 55.4697Z" fill="#141416"/>
<path fill-rule="evenodd" clip-rule="evenodd" d="M221.25 60C221.25 59.5858 221.586 59.25 222 59.25H234C234.414 59.25 234.75 59.5858 234.75 60C234.75 60.4142 234.414 60.75 234 60.75H222C221.586 60.75 221.25 60.4142 221.25 60Z" fill="#141416"/>
<path fill-rule="evenodd" clip-rule="evenodd" d="M286.53 54.4697C286.823 54.7626 286.823 55.2374 286.53 55.5303L282.061 60L286.53 64.4697C286.823 64.7626 286.823 65.2374 286.53 65.5303C286.237 65.8232 285.763 65.8232 285.47 65.5303L280.47 60.5303C280.177 60.2374 280.177 59.7626 280.47 59.4697L285.47 54.4697C285.763 54.1768 286.237 54.1768 286.53 54.4697Z" fill="#141416"/>
<path fill-rule="evenodd" clip-rule="evenodd" d="M336.47 65.5303C336.177 65.2374 336.177 64.7626 336.47 64.4697L340.939 60L336.47 55.5303C336.177 55.2374 336.177 54.7626 336.47 54.4697C336.763 54.1768 337.237 54.1768 337.53 54.4697L342.53 59.4697C342.671 59.6103 342.75 59.8011 342.75 60C342.75 60.1989 342.671 60.3897 342.53 60.5303L337.53 65.5303C337.237 65.8232 336.763 65.8232 336.47 65.5303Z" fill="#141416"/>
<path fill-rule="evenodd" clip-rule="evenodd" d="M390.22 56.9697C390.513 56.6768 390.987 56.6768 391.28 56.9697L395.75 61.4393L400.22 56.9697C400.513 56.6768 400.987 56.6768 401.28 56.9697C401.573 57.2626 401.573 57.7374 401.28 58.0303L396.28 63.0303C395.987 63.3232 395.513 63.3232 395.22 63.0303L390.22 58.0303C389.927 57.7374 389.927 57.2626 390.22 56.9697Z" fill="#141416"/>
<path fill-rule="evenodd" clip-rule="evenodd" d="M457.78 63.0303C457.487 63.3232 457.013 63.3232 456.72 63.0303L452.25 58.5607L447.78 63.0303C447.487 63.3232 447.013 63.3232 446.72 63.0303C446.427 62.7374 446.427 62.2626 446.72 61.9697L451.72 56.9697C452.013 56.6768 452.487 56.6768 452.78 56.9697L457.78 61.9697C458.073 62.2626 458.073 62.7374 457.78 63.0303Z" fill="#141416"/>
<path fill-rule="evenodd" clip-rule="evenodd" d="M503.47 62.4697C503.763 62.1768 504.237 62.1768 504.53 62.4697L508 65.9393L511.47 62.4697C511.763 62.1768 512.237 62.1768 512.53 62.4697C512.823 62.7626 512.823 63.2374 512.53 63.5303L508.53 67.5303C508.237 67.8232 507.763 67.8232 507.47 67.5303L503.47 63.5303C503.177 63.2374 503.177 62.7626 503.47 62.4697Z" fill="#141416"/>
<path fill-rule="evenodd" clip-rule="evenodd" d="M512.53 57.5303C512.237 57.8232 511.763 57.8232 511.47 57.5303L508 54.0607L504.53 57.5303C504.237 57.8232 503.763 57.8232 503.47 57.5303C503.177 57.2374 503.177 56.7626 503.47 56.4697L507.47 52.4697C507.763 52.1768 508.237 52.1768 508.53 52.4697L512.53 56.4697C512.823 56.7626 512.823 57.2374 512.53 57.5303Z" fill="#141416"/>
<path fill-rule="evenodd" clip-rule="evenodd" d="M561.53 55.4697C561.823 55.7626 561.823 56.2374 561.53 56.5303L558.061 60L561.53 63.4697C561.823 63.7626 561.823 64.2374 561.53 64.5303C561.237 64.8232 560.763 64.8232 560.47 64.5303L556.47 60.5303C556.177 60.2374 556.177 59.7626 556.47 59.4697L560.47 55.4697C560.763 55.1768 561.237 55.1768 561.53 55.4697Z" fill="#141416"/>
<path fill-rule="evenodd" clip-rule="evenodd" d="M566.47 64.5303C566.177 64.2374 566.177 63.7626 566.47 63.4697L569.939 60L566.47 56.5303C566.177 56.2374 566.177 55.7626 566.47 55.4697C566.763 55.1768 567.237 55.1768 567.53 55.4697L571.53 59.4697C571.823 59.7626 571.823 60.2374 571.53 60.5303L567.53 64.5303C567.237 64.8232 566.763 64.8232 566.47 64.5303Z" fill="#141416"/>
<path fill-rule="evenodd" clip-rule="evenodd" d="M614.757 58.8356C615.172 58.8356 615.507 59.1714 615.507 59.5856L615.507 64.4925L620.414 64.4925C620.828 64.4925 621.164 64.8283 621.164 65.2425C621.164 65.6567 620.828 65.9925 620.414 65.9925L614.757 65.9925C614.343 65.9925 614.007 65.6567 614.007 65.2425L614.007 59.5856C614.007 59.1714 614.343 58.8356 614.757 58.8356Z" fill="#141416"/>
<path fill-rule="evenodd" clip-rule="evenodd" d="M625.243 61.1644C624.828 61.1644 624.493 60.8286 624.493 60.4144L624.493 55.5075L619.586 55.5075C619.172 55.5075 618.836 55.1717 618.836 54.7575C618.836 54.3433 619.172 54.0075 619.586 54.0075L625.243 54.0075C625.657 54.0075 625.993 54.3433 625.993 54.7575L625.993 60.4144C625.993 60.8286 625.657 61.1644 625.243 61.1644Z" fill="#141416"/>
<path fill-rule="evenodd" clip-rule="evenodd" d="M677.164 54.7573C677.164 55.1715 676.828 55.5073 676.414 55.5073L671.507 55.5073L671.507 60.4141C671.507 60.8283 671.172 61.1641 670.757 61.1641C670.343 61.1641 670.007 60.8283 670.007 60.4141L670.007 54.7573C670.007 54.343 670.343 54.0073 670.757 54.0073L676.414 54.0073C676.828 54.0073 677.164 54.343 677.164 54.7573Z" fill="#141416"/>
<path fill-rule="evenodd" clip-rule="evenodd" d="M674.836 65.2427C674.836 64.8285 675.172 64.4927 675.586 64.4927L680.493 64.4927L680.493 59.5859C680.493 59.1717 680.828 58.8359 681.243 58.8359C681.657 58.8359 681.993 59.1717 681.993 59.5859L681.993 65.2427C681.993 65.657 681.657 65.9927 681.243 65.9927L675.586 65.9927C675.172 65.9927 674.836 65.657 674.836 65.2427Z" fill="#141416"/>
<path fill-rule="evenodd" clip-rule="evenodd" d="M56.4697 114.47C56.7626 114.177 57.2374 114.177 57.5303 114.47L60 116.939L62.4697 114.47C62.7626 114.177 63.2374 114.177 63.5303 114.47C63.8232 114.763 63.8232 115.237 63.5303 115.53L60.5303 118.53C60.2374 118.823 59.7626 118.823 59.4697 118.53L56.4697 115.53C56.1768 115.237 56.1768 114.763 56.4697 114.47Z" fill="#141416"/>
<path fill-rule="evenodd" clip-rule="evenodd" d="M60 125.75C54.6152 125.75 50.25 121.385 50.25 116C50.25 110.615 54.6152 106.25 60 106.25C65.3848 106.25 69.75 110.615 69.75 116C69.75 121.385 65.3848 125.75 60 125.75ZM51.75 116C51.75 120.556 55.4437 124.25 60 124.25C64.5563 124.25 68.25 120.556 68.25 116C68.25 111.444 64.5563 107.75 60 107.75C55.4437 107.75 51.75 111.444 51.75 116Z" fill="#141416"/>
<path fill-rule="evenodd" clip-rule="evenodd" d="M114.47 119.53C114.177 119.237 114.177 118.763 114.47 118.47L116.939 116L114.47 113.53C114.177 113.237 114.177 112.763 114.47 112.47C114.763 112.177 115.237 112.177 115.53 112.47L118.53 115.47C118.823 115.763 118.823 116.237 118.53 116.53L115.53 119.53C115.237 119.823 114.763 119.823 114.47 119.53Z" fill="#141416"/>
<path fill-rule="evenodd" clip-rule="evenodd" d="M125.75 116C125.75 121.385 121.385 125.75 116 125.75C110.615 125.75 106.25 121.385 106.25 116C106.25 110.615 110.615 106.25 116 106.25C121.385 106.25 125.75 110.615 125.75 116ZM116 124.25C120.556 124.25 124.25 120.556 124.25 116C124.25 111.444 120.556 107.75 116 107.75C111.444 107.75 107.75 111.444 107.75 116C107.75 120.556 111.444 124.25 116 124.25Z" fill="#141416"/>
<path fill-rule="evenodd" clip-rule="evenodd" d="M175.53 117.53C175.237 117.823 174.763 117.823 174.47 117.53L172 115.061L169.53 117.53C169.237 117.823 168.763 117.823 168.47 117.53C168.177 117.237 168.177 116.763 168.47 116.47L171.47 113.47C171.763 113.177 172.237 113.177 172.53 113.47L175.53 116.47C175.823 116.763 175.823 117.237 175.53 117.53Z" fill="#141416"/>
<path fill-rule="evenodd" clip-rule="evenodd" d="M172 106.25C177.385 106.25 181.75 110.615 181.75 116C181.75 121.385 177.385 125.75 172 125.75C166.615 125.75 162.25 121.385 162.25 116C162.25 110.615 166.615 106.25 172 106.25ZM180.25 116C180.25 111.444 176.556 107.75 172 107.75C167.444 107.75 163.75 111.444 163.75 116C163.75 120.556 167.444 124.25 172 124.25C176.556 124.25 180.25 120.556 180.25 116Z" fill="#141416"/>
<path fill-rule="evenodd" clip-rule="evenodd" d="M229.53 112.47C229.823 112.763 229.823 113.237 229.53 113.53L227.061 116L229.53 118.47C229.823 118.763 229.823 119.237 229.53 119.53C229.237 119.823 228.763 119.823 228.47 119.53L225.47 116.53C225.177 116.237 225.177 115.763 225.47 115.47L228.47 112.47C228.763 112.177 229.237 112.177 229.53 112.47Z" fill="#141416"/>
<path fill-rule="evenodd" clip-rule="evenodd" d="M218.25 116C218.25 110.615 222.615 106.25 228 106.25C233.385 106.25 237.75 110.615 237.75 116C237.75 121.385 233.385 125.75 228 125.75C222.615 125.75 218.25 121.385 218.25 116ZM228 107.75C223.444 107.75 219.75 111.444 219.75 116C219.75 120.556 223.444 124.25 228 124.25C232.556 124.25 236.25 120.556 236.25 116C236.25 111.444 232.556 107.75 228 107.75Z" fill="#141416"/>
<path fill-rule="evenodd" clip-rule="evenodd" d="M284 125.75C278.615 125.75 274.25 121.385 274.25 116C274.25 110.615 278.615 106.25 284 106.25C289.385 106.25 293.75 110.615 293.75 116C293.75 121.385 289.385 125.75 284 125.75ZM275.75 116C275.75 120.556 279.444 124.25 284 124.25C288.556 124.25 292.25 120.556 292.25 116C292.25 111.444 288.556 107.75 284 107.75C279.444 107.75 275.75 111.444 275.75 116Z" fill="#141416"/>
<path fill-rule="evenodd" clip-rule="evenodd" d="M284.75 112.25C284.75 111.836 284.414 111.5 284 111.5C283.586 111.5 283.25 111.836 283.25 112.25V117.439L281.53 115.72C281.237 115.427 280.763 115.427 280.47 115.72C280.177 116.013 280.177 116.487 280.47 116.78L283.47 119.78C283.763 120.073 284.237 120.073 284.53 119.78L287.53 116.78C287.823 116.487 287.823 116.013 287.53 115.72C287.237 115.427 286.763 115.427 286.47 115.72L284.75 117.439V112.25Z" fill="#141416"/>
<path fill-rule="evenodd" clip-rule="evenodd" d="M349.75 116C349.75 121.385 345.385 125.75 340 125.75C334.615 125.75 330.25 121.385 330.25 116C330.25 110.615 334.615 106.25 340 106.25C345.385 106.25 349.75 110.615 349.75 116ZM340 124.25C344.556 124.25 348.25 120.556 348.25 116C348.25 111.444 344.556 107.75 340 107.75C335.444 107.75 331.75 111.444 331.75 116C331.75 120.556 335.444 124.25 340 124.25Z" fill="#141416"/>
<path fill-rule="evenodd" clip-rule="evenodd" d="M339.25 119.25C339.25 119.664 339.586 120 340 120C340.414 120 340.75 119.664 340.75 119.25L340.75 114.061L342.47 115.78C342.763 116.073 343.237 116.073 343.53 115.78C343.823 115.487 343.823 115.013 343.53 114.72L340.53 111.72C340.237 111.427 339.763 111.427 339.47 111.72L336.47 114.72C336.177 115.013 336.177 115.487 336.47 115.78C336.763 116.073 337.237 116.073 337.53 115.78L339.25 114.061L339.25 119.25Z" fill="#141416"/>
<path fill-rule="evenodd" clip-rule="evenodd" d="M396 106.25C401.385 106.25 405.75 110.615 405.75 116C405.75 121.385 401.385 125.75 396 125.75C390.615 125.75 386.25 121.385 386.25 116C386.25 110.615 390.615 106.25 396 106.25ZM404.25 116C404.25 111.444 400.556 107.75 396 107.75C391.444 107.75 387.75 111.444 387.75 116C387.75 120.556 391.444 124.25 396 124.25C400.556 124.25 404.25 120.556 404.25 116Z" fill="#141416"/>
<path fill-rule="evenodd" clip-rule="evenodd" d="M392.5 115.25C392.086 115.25 391.75 115.586 391.75 116C391.75 116.414 392.086 116.75 392.5 116.75L397.689 116.75L395.97 118.47C395.677 118.763 395.677 119.237 395.97 119.53C396.263 119.823 396.737 119.823 397.03 119.53L400.03 116.53C400.323 116.237 400.323 115.763 400.03 115.47L397.03 112.47C396.737 112.177 396.263 112.177 395.97 112.47C395.677 112.763 395.677 113.237 395.97 113.53L397.689 115.25L392.5 115.25Z" fill="#141416"/>
<path fill-rule="evenodd" clip-rule="evenodd" d="M442.25 116C442.25 110.615 446.615 106.25 452 106.25C457.385 106.25 461.75 110.615 461.75 116C461.75 121.385 457.385 125.75 452 125.75C446.615 125.75 442.25 121.385 442.25 116ZM452 107.75C447.444 107.75 443.75 111.444 443.75 116C443.75 120.556 447.444 124.25 452 124.25C456.556 124.25 460.25 120.556 460.25 116C460.25 111.444 456.556 107.75 452 107.75Z" fill="#141416"/>
<path fill-rule="evenodd" clip-rule="evenodd" d="M455.5 115.25C455.914 115.25 456.25 115.586 456.25 116C456.25 116.414 455.914 116.75 455.5 116.75L450.311 116.75L452.03 118.47C452.323 118.763 452.323 119.237 452.03 119.53C451.737 119.823 451.263 119.823 450.97 119.53L447.97 116.53C447.677 116.237 447.677 115.763 447.97 115.47L450.97 112.47C451.263 112.177 451.737 112.177 452.03 112.47C452.323 112.763 452.323 113.237 452.03 113.53L450.311 115.25L455.5 115.25Z" fill="#141416"/>
<path fill-rule="evenodd" clip-rule="evenodd" d="M510.53 112.53C510.237 112.823 509.763 112.823 509.47 112.53L508 111.061L506.53 112.53C506.237 112.823 505.763 112.823 505.47 112.53C505.177 112.237 505.177 111.763 505.47 111.47L507.47 109.47C507.61 109.329 507.801 109.25 508 109.25C508.199 109.25 508.39 109.329 508.53 109.47L510.53 111.47C510.823 111.763 510.823 112.237 510.53 112.53Z" fill="#141416"/>
<path fill-rule="evenodd" clip-rule="evenodd" d="M505.47 119.47C505.763 119.177 506.237 119.177 506.53 119.47L508 120.939L509.47 119.47C509.763 119.177 510.237 119.177 510.53 119.47C510.823 119.763 510.823 120.237 510.53 120.53L508.53 122.53C508.237 122.823 507.763 122.823 507.47 122.53L505.47 120.53C505.177 120.237 505.177 119.763 505.47 119.47Z" fill="#141416"/>
<path fill-rule="evenodd" clip-rule="evenodd" d="M514.5 120V112C514.5 108.41 511.59 105.5 508 105.5C504.41 105.5 501.5 108.41 501.5 112V120C501.5 123.59 504.41 126.5 508 126.5C511.59 126.5 514.5 123.59 514.5 120ZM508 104C503.582 104 500 107.582 500 112V120C500 124.418 503.582 128 508 128C512.418 128 516 124.418 516 120V112C516 107.582 512.418 104 508 104Z" fill="#141416"/>
<g clip-path="url(#clip0_816_8691)">
<path fill-rule="evenodd" clip-rule="evenodd" d="M560.53 113.47C560.823 113.763 560.823 114.237 560.53 114.53L559.061 116L560.53 117.47C560.823 117.763 560.823 118.237 560.53 118.53C560.237 118.823 559.763 118.823 559.47 118.53L557.47 116.53C557.329 116.39 557.25 116.199 557.25 116C557.25 115.801 557.329 115.61 557.47 115.47L559.47 113.47C559.763 113.177 560.237 113.177 560.53 113.47Z" fill="#141416"/>
<path fill-rule="evenodd" clip-rule="evenodd" d="M567.47 118.53C567.177 118.237 567.177 117.763 567.47 117.47L568.939 116L567.47 114.53C567.177 114.237 567.177 113.763 567.47 113.47C567.763 113.177 568.237 113.177 568.53 113.47L570.53 115.47C570.823 115.763 570.823 116.237 570.53 116.53L568.53 118.53C568.237 118.823 567.763 118.823 567.47 118.53Z" fill="#141416"/>
<path fill-rule="evenodd" clip-rule="evenodd" d="M568 109.5L560 109.5C556.41 109.5 553.5 112.41 553.5 116C553.5 119.59 556.41 122.5 560 122.5L568 122.5C571.59 122.5 574.5 119.59 574.5 116C574.5 112.41 571.59 109.5 568 109.5ZM552 116C552 120.418 555.582 124 560 124L568 124C572.418 124 576 120.418 576 116C576 111.582 572.418 108 568 108L560 108C555.582 108 552 111.582 552 116Z" fill="#141416"/>
</g>
<path d="M620 114C621.105 114 622 114.895 622 116C622 117.105 621.105 118 620 118C618.895 118 618 117.105 618 116C618 114.895 618.895 114 620 114Z" fill="#141416"/>
<path fill-rule="evenodd" clip-rule="evenodd" d="M611.631 115.116C611.143 115.604 611.143 116.396 611.631 116.884L613.045 118.298C613.338 118.591 613.338 119.066 613.045 119.359C612.752 119.652 612.277 119.652 611.984 119.359L610.57 117.945C609.496 116.871 609.496 115.129 610.57 114.055L611.984 112.641C612.277 112.348 612.752 112.348 613.045 112.641C613.338 112.934 613.338 113.409 613.045 113.702L611.631 115.116Z" fill="#141416"/>
<path fill-rule="evenodd" clip-rule="evenodd" d="M620.884 107.631C620.396 107.143 619.604 107.143 619.116 107.631L617.702 109.045C617.409 109.338 616.934 109.338 616.641 109.045C616.348 108.752 616.348 108.278 616.641 107.985L618.055 106.57C619.129 105.496 620.871 105.496 621.945 106.57L623.359 107.985C623.652 108.278 623.652 108.752 623.359 109.045C623.066 109.338 622.591 109.338 622.298 109.045L620.884 107.631Z" fill="#141416"/>
<path fill-rule="evenodd" clip-rule="evenodd" d="M628.369 116.884C628.857 116.396 628.857 115.604 628.369 115.116L626.955 113.702C626.662 113.409 626.662 112.934 626.955 112.641C627.248 112.348 627.723 112.348 628.016 112.641L629.43 114.055C630.504 115.129 630.504 116.871 629.43 117.945L628.016 119.359C627.723 119.652 627.248 119.652 626.955 119.359C626.662 119.066 626.662 118.591 626.955 118.298L628.369 116.884Z" fill="#141416"/>
<path fill-rule="evenodd" clip-rule="evenodd" d="M619.116 124.369C619.604 124.857 620.396 124.857 620.884 124.369L622.298 122.955C622.591 122.662 623.066 122.662 623.359 122.955C623.652 123.248 623.652 123.722 623.359 124.015L621.945 125.43C620.871 126.504 619.129 126.504 618.055 125.43L616.641 124.015C616.348 123.722 616.348 123.248 616.641 122.955C616.934 122.662 617.409 122.662 617.702 122.955L619.116 124.369Z" fill="#141416"/>
<path d="M677.414 114.586C678.195 115.367 678.195 116.633 677.414 117.414C676.633 118.195 675.367 118.195 674.586 117.414C673.805 116.633 673.805 115.367 674.586 114.586C675.367 113.805 676.633 113.805 677.414 114.586Z" fill="#141416"/>
<path fill-rule="evenodd" clip-rule="evenodd" d="M670 108.75C669.31 108.75 668.75 109.31 668.75 110V112C668.75 112.414 668.414 112.75 668 112.75C667.586 112.75 667.25 112.414 667.25 112V110C667.25 108.481 668.481 107.25 670 107.25H672C672.414 107.25 672.75 107.586 672.75 108C672.75 108.414 672.414 108.75 672 108.75H670Z" fill="#141416"/>
<path fill-rule="evenodd" clip-rule="evenodd" d="M683.25 110C683.25 109.31 682.69 108.75 682 108.75L680 108.75C679.586 108.75 679.25 108.414 679.25 108C679.25 107.586 679.586 107.25 680 107.25L682 107.25C683.519 107.25 684.75 108.481 684.75 110L684.75 112C684.75 112.414 684.414 112.75 684 112.75C683.586 112.75 683.25 112.414 683.25 112L683.25 110Z" fill="#141416"/>
<path fill-rule="evenodd" clip-rule="evenodd" d="M682 123.25C682.69 123.25 683.25 122.69 683.25 122L683.25 120C683.25 119.586 683.586 119.25 684 119.25C684.414 119.25 684.75 119.586 684.75 120L684.75 122C684.75 123.519 683.519 124.75 682 124.75L680 124.75C679.586 124.75 679.25 124.414 679.25 124C679.25 123.586 679.586 123.25 680 123.25L682 123.25Z" fill="#141416"/>
<path fill-rule="evenodd" clip-rule="evenodd" d="M668.75 122C668.75 122.69 669.31 123.25 670 123.25L672 123.25C672.414 123.25 672.75 123.586 672.75 124C672.75 124.414 672.414 124.75 672 124.75L670 124.75C668.481 124.75 667.25 123.519 667.25 122L667.25 120C667.25 119.586 667.586 119.25 668 119.25C668.414 119.25 668.75 119.586 668.75 120L668.75 122Z" fill="#141416"/>
<path fill-rule="evenodd" clip-rule="evenodd" d="M50.4697 166.47C50.7626 166.177 51.2374 166.177 51.5303 166.47L56.5303 171.47C56.8232 171.763 56.8232 172.237 56.5303 172.53L51.5303 177.53C51.2374 177.823 50.7626 177.823 50.4697 177.53C50.1768 177.237 50.1768 176.763 50.4697 176.47L54.9393 172L50.4697 167.53C50.1768 167.237 50.1768 166.763 50.4697 166.47Z" fill="#141416"/>
<path fill-rule="evenodd" clip-rule="evenodd" d="M57.4697 166.47C57.7626 166.177 58.2374 166.177 58.5303 166.47L63.5303 171.47C63.8232 171.763 63.8232 172.237 63.5303 172.53L58.5303 177.53C58.2374 177.823 57.7626 177.823 57.4697 177.53C57.1768 177.237 57.1768 176.763 57.4697 176.47L61.9393 172L57.4697 167.53C57.1768 167.237 57.1768 166.763 57.4697 166.47Z" fill="#141416"/>
<path fill-rule="evenodd" clip-rule="evenodd" d="M64.4697 166.47C64.7626 166.177 65.2374 166.177 65.5303 166.47L70.5303 171.47C70.8232 171.763 70.8232 172.237 70.5303 172.53L65.5303 177.53C65.2374 177.823 64.7626 177.823 64.4697 177.53C64.1768 177.237 64.1768 176.763 64.4697 176.47L68.9393 172L64.4697 167.53C64.1768 167.237 64.1768 166.763 64.4697 166.47Z" fill="#141416"/>
<rect x="0.5" y="0.5" width="735" height="231" stroke="#E6E8EC"/>
<defs>
<clipPath id="clip0_816_8691">
<rect width="24" height="24" fill="white" transform="translate(552 128) rotate(-90)"/>
</clipPath>
</defs>
</svg>
