<svg width="1016" height="345" viewBox="0 0 1016 345" fill="none" xmlns="http://www.w3.org/2000/svg">
<path fill-rule="evenodd" clip-rule="evenodd" d="M60 70.75C54.6152 70.75 50.25 66.3848 50.25 61C50.25 55.6152 54.6152 51.25 60 51.25C65.3848 51.25 69.75 55.6152 69.75 61C69.75 66.3848 65.3848 70.75 60 70.75ZM51.75 61C51.75 65.5563 55.4437 69.25 60 69.25C64.5563 69.25 68.25 65.5563 68.25 61C68.25 56.4437 64.5563 52.75 60 52.75C55.4437 52.75 51.75 56.4437 51.75 61Z" fill="#141416"/>
<path fill-rule="evenodd" clip-rule="evenodd" d="M60 57.25C60.4142 57.25 60.75 57.5858 60.75 58V64C60.75 64.4142 60.4142 64.75 60 64.75C59.5858 64.75 59.25 64.4142 59.25 64V58C59.25 57.5858 59.5858 57.25 60 57.25Z" fill="#141416"/>
<path fill-rule="evenodd" clip-rule="evenodd" d="M63.75 61C63.75 61.4142 63.4142 61.75 63 61.75L57 61.75C56.5858 61.75 56.25 61.4142 56.25 61C56.25 60.5858 56.5858 60.25 57 60.25L63 60.25C63.4142 60.25 63.75 60.5858 63.75 61Z" fill="#141416"/>
<path fill-rule="evenodd" clip-rule="evenodd" d="M116 70.75C110.615 70.75 106.25 66.3848 106.25 61C106.25 55.6152 110.615 51.25 116 51.25C121.385 51.25 125.75 55.6152 125.75 61C125.75 66.3848 121.385 70.75 116 70.75ZM107.75 61C107.75 65.5563 111.444 69.25 116 69.25C120.556 69.25 124.25 65.5563 124.25 61C124.25 56.4437 120.556 52.75 116 52.75C111.444 52.75 107.75 56.4437 107.75 61Z" fill="#141416"/>
<path fill-rule="evenodd" clip-rule="evenodd" d="M119.75 61C119.75 61.4142 119.414 61.75 119 61.75L113 61.75C112.586 61.75 112.25 61.4142 112.25 61C112.25 60.5858 112.586 60.25 113 60.25L119 60.25C119.414 60.25 119.75 60.5858 119.75 61Z" fill="#141416"/>
<path fill-rule="evenodd" clip-rule="evenodd" d="M172 70.75C166.615 70.75 162.25 66.3848 162.25 61C162.25 55.6152 166.615 51.25 172 51.25C177.385 51.25 181.75 55.6152 181.75 61C181.75 66.3848 177.385 70.75 172 70.75ZM163.75 61C163.75 65.5563 167.444 69.25 172 69.25C176.556 69.25 180.25 65.5563 180.25 61C180.25 56.4437 176.556 52.75 172 52.75C167.444 52.75 163.75 56.4437 163.75 61Z" fill="#141416"/>
<path fill-rule="evenodd" clip-rule="evenodd" d="M174.652 58.3483C174.945 58.6412 174.945 59.1161 174.652 59.409L170.409 63.6516C170.116 63.9445 169.641 63.9445 169.348 63.6516C169.055 63.3587 169.055 62.8839 169.348 62.591L173.591 58.3483C173.884 58.0554 174.359 58.0554 174.652 58.3483Z" fill="#141416"/>
<path fill-rule="evenodd" clip-rule="evenodd" d="M174.652 63.6517C174.359 63.9446 173.884 63.9446 173.591 63.6517L169.348 59.409C169.055 59.1161 169.055 58.6413 169.348 58.3484C169.641 58.0555 170.116 58.0555 170.409 58.3484L174.652 62.591C174.945 62.8839 174.945 63.3588 174.652 63.6517Z" fill="#141416"/>
<path fill-rule="evenodd" clip-rule="evenodd" d="M228 55.25C228.414 55.25 228.75 55.5858 228.75 56V66C228.75 66.4142 228.414 66.75 228 66.75C227.586 66.75 227.25 66.4142 227.25 66V56C227.25 55.5858 227.586 55.25 228 55.25Z" fill="#141416"/>
<path fill-rule="evenodd" clip-rule="evenodd" d="M233.75 61C233.75 61.4142 233.414 61.75 233 61.75L223 61.75C222.586 61.75 222.25 61.4142 222.25 61C222.25 60.5858 222.586 60.25 223 60.25L233 60.25C233.414 60.25 233.75 60.5858 233.75 61Z" fill="#141416"/>
<path fill-rule="evenodd" clip-rule="evenodd" d="M289.75 61C289.75 61.4142 289.414 61.75 289 61.75L279 61.75C278.586 61.75 278.25 61.4142 278.25 61C278.25 60.5858 278.586 60.25 279 60.25L289 60.25C289.414 60.25 289.75 60.5858 289.75 61Z" fill="#141416"/>
<path fill-rule="evenodd" clip-rule="evenodd" d="M344.066 56.9341C344.359 57.227 344.359 57.7019 344.066 57.9948L336.995 65.0659C336.702 65.3588 336.227 65.3588 335.934 65.0659C335.641 64.773 335.641 64.2981 335.934 64.0052L343.005 56.9341C343.298 56.6412 343.773 56.6412 344.066 56.9341Z" fill="#141416"/>
<path fill-rule="evenodd" clip-rule="evenodd" d="M344.066 65.0659C343.773 65.3587 343.298 65.3587 343.005 65.0659L335.934 57.9948C335.641 57.7019 335.641 57.227 335.934 56.9341C336.227 56.6412 336.702 56.6412 336.995 56.9341L344.066 64.0052C344.359 64.2981 344.359 64.773 344.066 65.0659Z" fill="#141416"/>
<path fill-rule="evenodd" clip-rule="evenodd" d="M395.75 52C390.918 52 387 55.9175 387 60.75C387 65.5825 390.918 69.5 395.75 69.5C397.896 69.5 399.862 68.7273 401.384 67.4448L404.22 70.2803C404.513 70.5732 404.988 70.5732 405.28 70.2803C405.573 69.9874 405.573 69.5126 405.28 69.2197L402.445 66.3842C403.727 64.8619 404.5 62.8962 404.5 60.75C404.5 55.9175 400.582 52 395.75 52ZM388.5 60.75C388.5 56.7459 391.746 53.5 395.75 53.5C399.754 53.5 403 56.7459 403 60.75C403 64.7541 399.754 68 395.75 68C391.746 68 388.5 64.7541 388.5 60.75Z" fill="#141416"/>
<path fill-rule="evenodd" clip-rule="evenodd" d="M447 53.75C445.757 53.75 444.75 54.7574 444.75 56V58C444.75 58.4142 444.414 58.75 444 58.75C443.586 58.75 443.25 58.4142 443.25 58V56C443.25 53.9289 444.929 52.25 447 52.25H449C449.414 52.25 449.75 52.5858 449.75 53C449.75 53.4142 449.414 53.75 449 53.75H447Z" fill="#141416"/>
<path fill-rule="evenodd" clip-rule="evenodd" d="M459.25 56C459.25 54.7574 458.243 53.75 457 53.75L455 53.75C454.586 53.75 454.25 53.4142 454.25 53C454.25 52.5858 454.586 52.25 455 52.25L457 52.25C459.071 52.25 460.75 53.9289 460.75 56L460.75 58C460.75 58.4142 460.414 58.75 460 58.75C459.586 58.75 459.25 58.4142 459.25 58L459.25 56Z" fill="#141416"/>
<path fill-rule="evenodd" clip-rule="evenodd" d="M457 68.25C458.243 68.25 459.25 67.2426 459.25 66L459.25 64C459.25 63.5858 459.586 63.25 460 63.25C460.414 63.25 460.75 63.5858 460.75 64L460.75 66C460.75 68.0711 459.071 69.75 457 69.75L455 69.75C454.586 69.75 454.25 69.4142 454.25 69C454.25 68.5858 454.586 68.25 455 68.25L457 68.25Z" fill="#141416"/>
<path fill-rule="evenodd" clip-rule="evenodd" d="M444.75 66C444.75 67.2426 445.757 68.25 447 68.25L449 68.25C449.414 68.25 449.75 68.5858 449.75 69C449.75 69.4142 449.414 69.75 449 69.75L447 69.75C444.929 69.75 443.25 68.0711 443.25 66L443.25 64C443.25 63.5858 443.586 63.25 444 63.25C444.414 63.25 444.75 63.5858 444.75 64L444.75 66Z" fill="#141416"/>
<path fill-rule="evenodd" clip-rule="evenodd" d="M514 64.75C512.757 64.75 511.75 65.7574 511.75 67V69C511.75 69.4142 511.414 69.75 511 69.75C510.586 69.75 510.25 69.4142 510.25 69V67C510.25 64.9289 511.929 63.25 514 63.25H516C516.414 63.25 516.75 63.5858 516.75 64C516.75 64.4142 516.414 64.75 516 64.75H514Z" fill="#141416"/>
<path fill-rule="evenodd" clip-rule="evenodd" d="M504.25 67C504.25 65.7574 503.243 64.75 502 64.75L500 64.75C499.586 64.75 499.25 64.4142 499.25 64C499.25 63.5858 499.586 63.25 500 63.25L502 63.25C504.071 63.25 505.75 64.9289 505.75 67L505.75 69C505.75 69.4142 505.414 69.75 505 69.75C504.586 69.75 504.25 69.4142 504.25 69L504.25 67Z" fill="#141416"/>
<path fill-rule="evenodd" clip-rule="evenodd" d="M502 57.25C503.243 57.25 504.25 56.2426 504.25 55L504.25 53C504.25 52.5858 504.586 52.25 505 52.25C505.414 52.25 505.75 52.5858 505.75 53L505.75 55C505.75 57.0711 504.071 58.75 502 58.75L500 58.75C499.586 58.75 499.25 58.4142 499.25 58C499.25 57.5858 499.586 57.25 500 57.25L502 57.25Z" fill="#141416"/>
<path fill-rule="evenodd" clip-rule="evenodd" d="M511.75 55C511.75 56.2426 512.757 57.25 514 57.25L516 57.25C516.414 57.25 516.75 57.5858 516.75 58C516.75 58.4142 516.414 58.75 516 58.75L514 58.75C511.929 58.75 510.25 57.0711 510.25 55L510.25 53C510.25 52.5858 510.586 52.25 511 52.25C511.414 52.25 511.75 52.5858 511.75 53L511.75 55Z" fill="#141416"/>
<path fill-rule="evenodd" clip-rule="evenodd" d="M564 70.75C558.615 70.75 554.25 66.3848 554.25 61C554.25 55.6152 558.615 51.25 564 51.25C569.385 51.25 573.75 55.6152 573.75 61C573.75 66.3848 569.385 70.75 564 70.75ZM555.75 61C555.75 65.5563 559.444 69.25 564 69.25C568.556 69.25 572.25 65.5563 572.25 61C572.25 56.4437 568.556 52.75 564 52.75C559.444 52.75 555.75 56.4437 555.75 61Z" fill="#141416"/>
<path fill-rule="evenodd" clip-rule="evenodd" d="M564 59.25C564.414 59.25 564.75 59.5858 564.75 60V65C564.75 65.4142 564.414 65.75 564 65.75C563.586 65.75 563.25 65.4142 563.25 65V60C563.25 59.5858 563.586 59.25 564 59.25Z" fill="#141416"/>
<path d="M564.75 56.75C564.75 57.1642 564.414 57.5 564 57.5C563.586 57.5 563.25 57.1642 563.25 56.75C563.25 56.3358 563.586 56 564 56C564.414 56 564.75 56.3358 564.75 56.75Z" fill="#141416"/>
<path fill-rule="evenodd" clip-rule="evenodd" d="M620 51.25C625.385 51.25 629.75 55.6152 629.75 61C629.75 66.3848 625.385 70.75 620 70.75C614.615 70.75 610.25 66.3848 610.25 61C610.25 55.6152 614.615 51.25 620 51.25ZM628.25 61C628.25 56.4437 624.556 52.75 620 52.75C615.444 52.75 611.75 56.4437 611.75 61C611.75 65.5563 615.444 69.25 620 69.25C624.556 69.25 628.25 65.5563 628.25 61Z" fill="#141416"/>
<path fill-rule="evenodd" clip-rule="evenodd" d="M620 62.75C619.586 62.75 619.25 62.4142 619.25 62L619.25 57C619.25 56.5858 619.586 56.25 620 56.25C620.414 56.25 620.75 56.5858 620.75 57L620.75 62C620.75 62.4142 620.414 62.75 620 62.75Z" fill="#141416"/>
<path d="M619.25 65.25C619.25 64.8358 619.586 64.5 620 64.5C620.414 64.5 620.75 64.8358 620.75 65.25C620.75 65.6642 620.414 66 620 66C619.586 66 619.25 65.6642 619.25 65.25Z" fill="#141416"/>
<path d="M675.25 64.25C675.25 63.8358 675.586 63.5 676 63.5C676.414 63.5 676.75 63.8358 676.75 64.25C676.75 64.6642 676.414 65 676 65C675.586 65 675.25 64.6642 675.25 64.25Z" fill="#141416"/>
<path fill-rule="evenodd" clip-rule="evenodd" d="M673.581 52.8983C674.62 50.9752 677.38 50.9752 678.419 52.8983L685.065 65.1923C686.055 67.0246 684.728 69.25 682.645 69.25H669.355C667.272 69.25 665.945 67.0246 666.935 65.1923L673.581 52.8983ZM677.1 53.6115C676.627 52.7374 675.373 52.7374 674.9 53.6115L668.255 65.9056C667.805 66.7384 668.408 67.75 669.355 67.75H682.645C683.592 67.75 684.195 66.7384 683.745 65.9056L677.1 53.6115Z" fill="#141416"/>
<path fill-rule="evenodd" clip-rule="evenodd" d="M676 57.25C676.414 57.25 676.75 57.5858 676.75 58V61.5C676.75 61.9142 676.414 62.25 676 62.25C675.586 62.25 675.25 61.9142 675.25 61.5V58C675.25 57.5858 675.586 57.25 676 57.25Z" fill="#141416"/>
<path d="M727 56.5C727 57.3284 726.328 58 725.5 58C724.672 58 724 57.3284 724 56.5C724 55.6716 724.672 55 725.5 55C726.328 55 727 55.6716 727 56.5Z" fill="#141416"/>
<path fill-rule="evenodd" clip-rule="evenodd" d="M730.75 56.5C730.75 56.0858 731.086 55.75 731.5 55.75H740.5C740.914 55.75 741.25 56.0858 741.25 56.5C741.25 56.9142 740.914 57.25 740.5 57.25H731.5C731.086 57.25 730.75 56.9142 730.75 56.5Z" fill="#141416"/>
<path d="M727 65.5C727 66.3284 726.328 67 725.5 67C724.672 67 724 66.3284 724 65.5C724 64.6716 724.672 64 725.5 64C726.328 64 727 64.6716 727 65.5Z" fill="#141416"/>
<path fill-rule="evenodd" clip-rule="evenodd" d="M730.75 65.5C730.75 65.0858 731.086 64.75 731.5 64.75H740.5C740.914 64.75 741.25 65.0858 741.25 65.5C741.25 65.9142 740.914 66.25 740.5 66.25H731.5C731.086 66.25 730.75 65.9142 730.75 65.5Z" fill="#141416"/>
<path fill-rule="evenodd" clip-rule="evenodd" d="M788.945 53.4806C788.867 53.4707 788.788 53.4621 788.71 53.4547C788.672 53.4511 788.635 53.445 788.599 53.4364C788.26 53.3563 788 53.0653 788 52.7107C788 52.3182 788.319 51.9971 788.71 52.0281C788.754 52.0316 788.799 52.0354 788.843 52.0396C788.951 52.0498 789.059 52.0619 789.167 52.076C790.729 52.2803 792.218 52.8924 793.479 53.8598C795.051 55.0659 796.181 56.757 796.693 58.6707C797.206 60.5844 797.073 62.6138 796.315 64.4442C795.557 66.2746 794.216 67.8037 792.5 68.7943C790.784 69.7849 788.79 70.1816 786.825 69.923C784.861 69.6644 783.037 68.7649 781.636 67.364C780.235 65.9631 779.336 64.139 779.077 62.1748C778.87 60.5991 779.084 59.0039 779.688 57.5488C779.73 57.4484 779.773 57.3487 779.819 57.2496C779.837 57.2093 779.856 57.169 779.875 57.1289C780.044 56.7746 780.481 56.6591 780.821 56.8554C781.128 57.0326 781.25 57.4035 781.15 57.7366C781.14 57.7722 781.127 57.8074 781.111 57.842C781.078 57.9138 781.046 57.9861 781.015 58.0588C780.495 59.2936 780.31 60.6498 780.486 61.9892C780.704 63.6433 781.461 65.1793 782.641 66.3589C783.821 67.5386 785.357 68.2961 787.011 68.5138C788.665 68.7316 790.345 68.3975 791.789 67.5633C793.234 66.7292 794.363 65.4416 795.002 63.9002C795.64 62.3589 795.752 60.65 795.32 59.0385C794.889 57.4271 793.937 56.0031 792.614 54.9875C791.542 54.1651 790.274 53.6476 788.945 53.4806Z" fill="#141416"/>
<path fill-rule="evenodd" clip-rule="evenodd" d="M788 58.5C787.672 58.5 787.347 58.5647 787.043 58.6903C786.74 58.8159 786.464 59.0001 786.232 59.2322C786 59.4644 785.816 59.74 785.69 60.0433C785.565 60.3466 785.5 60.6717 785.5 61C785.5 61.3283 785.565 61.6534 785.69 61.9567C785.816 62.26 786 62.5356 786.232 62.7678C786.464 62.9999 786.74 63.1841 787.043 63.3097C787.347 63.4353 787.672 63.5 788 63.5C788.328 63.5 788.653 63.4353 788.957 63.3097C789.26 63.1841 789.536 62.9999 789.768 62.7678C790 62.5356 790.184 62.26 790.31 61.9567C790.435 61.6534 790.5 61.3283 790.5 61C790.5 60.6717 790.435 60.3466 790.31 60.0433C790.184 59.74 790 59.4644 789.768 59.2322C789.536 59.0001 789.26 58.8159 788.957 58.6903C788.653 58.5647 788.328 58.5 788 58.5ZM786.469 57.3045C786.955 57.1035 787.475 57 788 57C788.525 57 789.045 57.1035 789.531 57.3045C790.016 57.5055 790.457 57.8001 790.828 58.1716C791.2 58.543 791.494 58.984 791.696 59.4693C791.897 59.9546 792 60.4747 792 61C792 61.5253 791.897 62.0454 791.696 62.5307C791.494 63.016 791.2 63.457 790.828 63.8284C790.457 64.1999 790.016 64.4945 789.531 64.6955C789.045 64.8965 788.525 65 788 65C787.475 65 786.955 64.8965 786.469 64.6955C785.984 64.4945 785.543 64.1999 785.172 63.8284C784.8 63.457 784.505 63.016 784.304 62.5307C784.103 62.0454 784 61.5253 784 61C784 60.4747 784.103 59.9546 784.304 59.4693C784.506 58.984 784.8 58.543 785.172 58.1716C785.543 57.8001 785.984 57.5055 786.469 57.3045Z" fill="#141416"/>
<circle cx="844" cy="61" r="4" fill="#141416"/>
<path fill-rule="evenodd" clip-rule="evenodd" d="M844.945 53.4806C844.867 53.4707 844.788 53.4621 844.71 53.4547C844.672 53.4511 844.635 53.445 844.599 53.4364C844.26 53.3563 844 53.0653 844 52.7107C844 52.3182 844.319 51.9971 844.71 52.0281C844.754 52.0316 844.799 52.0354 844.843 52.0396C844.951 52.0498 845.059 52.0619 845.167 52.076C846.729 52.2803 848.218 52.8924 849.479 53.8598C851.051 55.0659 852.181 56.757 852.693 58.6707C853.206 60.5844 853.073 62.6138 852.315 64.4442C851.557 66.2746 850.216 67.8037 848.5 68.7943C846.784 69.7849 844.79 70.1816 842.825 69.923C840.861 69.6644 839.037 68.7649 837.636 67.364C836.235 65.9631 835.336 64.139 835.077 62.1748C834.87 60.5991 835.084 59.0039 835.688 57.5488C835.73 57.4484 835.773 57.3487 835.819 57.2496C835.837 57.2093 835.856 57.169 835.875 57.1289C836.044 56.7746 836.481 56.6591 836.821 56.8554C837.128 57.0326 837.25 57.4035 837.15 57.7366C837.14 57.7722 837.127 57.8074 837.111 57.842C837.078 57.9138 837.046 57.9861 837.015 58.0588C836.495 59.2936 836.31 60.6498 836.486 61.9892C836.704 63.6433 837.461 65.1793 838.641 66.3589C839.821 67.5386 841.357 68.2961 843.011 68.5138C844.665 68.7316 846.345 68.3975 847.789 67.5633C849.234 66.7292 850.363 65.4416 851.002 63.9002C851.64 62.3589 851.752 60.65 851.32 59.0385C850.889 57.4271 849.937 56.0031 848.614 54.9875C847.542 54.1651 846.274 53.6476 844.945 53.4806Z" fill="#141416"/>
<path fill-rule="evenodd" clip-rule="evenodd" d="M844 58.5C843.672 58.5 843.347 58.5647 843.043 58.6903C842.74 58.8159 842.464 59.0001 842.232 59.2322C842 59.4644 841.816 59.74 841.69 60.0433C841.565 60.3466 841.5 60.6717 841.5 61C841.5 61.3283 841.565 61.6534 841.69 61.9567C841.816 62.26 842 62.5356 842.232 62.7678C842.464 62.9999 842.74 63.1841 843.043 63.3097C843.347 63.4353 843.672 63.5 844 63.5C844.328 63.5 844.653 63.4353 844.957 63.3097C845.26 63.1841 845.536 62.9999 845.768 62.7678C846 62.5356 846.184 62.26 846.31 61.9567C846.435 61.6534 846.5 61.3283 846.5 61C846.5 60.6717 846.435 60.3466 846.31 60.0433C846.184 59.74 846 59.4644 845.768 59.2322C845.536 59.0001 845.26 58.8159 844.957 58.6903C844.653 58.5647 844.328 58.5 844 58.5ZM842.469 57.3045C842.955 57.1035 843.475 57 844 57C844.525 57 845.045 57.1035 845.531 57.3045C846.016 57.5055 846.457 57.8001 846.828 58.1716C847.2 58.543 847.494 58.984 847.696 59.4693C847.897 59.9546 848 60.4747 848 61C848 61.5253 847.897 62.0454 847.696 62.5307C847.494 63.016 847.2 63.457 846.828 63.8284C846.457 64.1999 846.016 64.4945 845.531 64.6955C845.045 64.8965 844.525 65 844 65C843.475 65 842.955 64.8965 842.469 64.6955C841.984 64.4945 841.543 64.1999 841.172 63.8284C840.8 63.457 840.505 63.016 840.304 62.5307C840.103 62.0454 840 61.5253 840 61C840 60.4747 840.103 59.9546 840.304 59.4693C840.506 58.984 840.8 58.543 841.172 58.1716C841.543 57.8001 841.984 57.5055 842.469 57.3045Z" fill="#141416"/>
<path fill-rule="evenodd" clip-rule="evenodd" d="M891.25 55C891.25 54.5858 891.586 54.25 892 54.25H908C908.414 54.25 908.75 54.5858 908.75 55C908.75 55.4142 908.414 55.75 908 55.75H892C891.586 55.75 891.25 55.4142 891.25 55Z" fill="#141416"/>
<path fill-rule="evenodd" clip-rule="evenodd" d="M894.25 61C894.25 60.5858 894.586 60.25 895 60.25H905C905.414 60.25 905.75 60.5858 905.75 61C905.75 61.4142 905.414 61.75 905 61.75H895C894.586 61.75 894.25 61.4142 894.25 61Z" fill="#141416"/>
<path fill-rule="evenodd" clip-rule="evenodd" d="M896.25 67C896.25 66.5858 896.586 66.25 897 66.25H903C903.414 66.25 903.75 66.5858 903.75 67C903.75 67.4142 903.414 67.75 903 67.75H897C896.586 67.75 896.25 67.4142 896.25 67Z" fill="#141416"/>
<path fill-rule="evenodd" clip-rule="evenodd" d="M60 126.75C54.6152 126.75 50.25 122.385 50.25 117C50.25 111.615 54.6152 107.25 60 107.25C65.3848 107.25 69.75 111.615 69.75 117C69.75 122.385 65.3848 126.75 60 126.75ZM51.75 117C51.75 121.556 55.4437 125.25 60 125.25C64.5563 125.25 68.25 121.556 68.25 117C68.25 112.444 64.5563 108.75 60 108.75C55.4437 108.75 51.75 112.444 51.75 117Z" fill="#141416"/>
<path fill-rule="evenodd" clip-rule="evenodd" d="M63.7803 114.47C64.0732 114.763 64.0732 115.237 63.7803 115.53L59.7803 119.53C59.4874 119.823 59.0126 119.823 58.7197 119.53L56.7197 117.53C56.4268 117.237 56.4268 116.763 56.7197 116.47C57.0126 116.177 57.4874 116.177 57.7803 116.47L59.25 117.939L62.7197 114.47C63.0126 114.177 63.4874 114.177 63.7803 114.47Z" fill="#141416"/>
<path opacity="0.4" fill-rule="evenodd" clip-rule="evenodd" d="M116 126.75C110.615 126.75 106.25 122.385 106.25 117C106.25 111.615 110.615 107.25 116 107.25C121.385 107.25 125.75 111.615 125.75 117C125.75 122.385 121.385 126.75 116 126.75ZM107.75 117C107.75 121.556 111.444 125.25 116 125.25C120.556 125.25 124.25 121.556 124.25 117C124.25 112.444 120.556 108.75 116 108.75C111.444 108.75 107.75 112.444 107.75 117Z" fill="#141416"/>
<path d="M122 117C122 120.314 119.314 123 116 123C112.686 123 110 120.314 110 117C110 113.686 112.686 111 116 111C119.314 111 122 113.686 122 117Z" fill="#141416"/>
<path fill-rule="evenodd" clip-rule="evenodd" d="M172 126.75C166.615 126.75 162.25 122.385 162.25 117C162.25 111.615 166.615 107.25 172 107.25C177.385 107.25 181.75 111.615 181.75 117C181.75 122.385 177.385 126.75 172 126.75ZM163.75 117C163.75 121.556 167.444 125.25 172 125.25C176.556 125.25 180.25 121.556 180.25 117C180.25 112.444 176.556 108.75 172 108.75C167.444 108.75 163.75 112.444 163.75 117Z" fill="#141416"/>
<path fill-rule="evenodd" clip-rule="evenodd" d="M233.53 113.47C233.823 113.763 233.823 114.237 233.53 114.53L227.53 120.53C227.237 120.823 226.763 120.823 226.47 120.53L222.97 117.03C222.677 116.737 222.677 116.263 222.97 115.97C223.263 115.677 223.737 115.677 224.03 115.97L227 118.939L232.47 113.47C232.763 113.177 233.237 113.177 233.53 113.47Z" fill="#141416"/>
<path fill-rule="evenodd" clip-rule="evenodd" d="M289.491 113.342C288.229 112.052 286.153 112.052 284.891 113.342L284.536 113.705C284.395 113.849 284.202 113.931 284 113.931C283.798 113.931 283.605 113.849 283.464 113.705L283.109 113.342C281.847 112.052 279.77 112.052 278.509 113.342C277.286 114.592 277.286 116.59 278.509 117.84L283.658 123.106C283.845 123.298 284.154 123.298 284.342 123.106L289.491 117.84C290.714 116.59 290.714 114.592 289.491 113.342ZM284 112.118C285.862 110.403 288.773 110.462 290.564 112.293C292.356 114.126 292.356 117.055 290.564 118.888L285.415 124.155C284.638 124.948 283.361 124.948 282.585 124.155L277.436 118.888C275.644 117.055 275.644 114.126 277.436 112.293C279.227 110.462 282.137 110.403 284 112.118Z" fill="#141416"/>
<path fill-rule="evenodd" clip-rule="evenodd" d="M345.491 113.342C344.229 112.052 342.153 112.052 340.891 113.342L340.536 113.705C340.395 113.849 340.202 113.931 340 113.931C339.798 113.931 339.605 113.849 339.464 113.705L339.109 113.342C337.847 112.052 335.77 112.052 334.509 113.342C333.286 114.592 333.286 116.59 334.509 117.84L339.658 123.106C339.845 123.298 340.154 123.298 340.342 123.106L345.491 117.84C346.714 116.59 346.714 114.592 345.491 113.342ZM340 112.118C341.862 110.403 344.773 110.462 346.564 112.293C348.356 114.126 348.356 117.055 346.564 118.888L341.415 124.155C340.638 124.948 339.361 124.948 338.585 124.155L333.436 118.888C331.644 117.055 331.644 114.126 333.436 112.293C335.227 110.462 338.137 110.403 340 112.118Z" fill="#141416"/>
<rect x="343.192" y="110" width="8.16824" height="13" rx="4.08412" transform="rotate(45 343.192 110)" fill="#141416"/>
<rect x="331" y="115.776" width="8.16824" height="13" rx="4.08412" transform="rotate(-45 331 115.776)" fill="#141416"/>
<path fill-rule="evenodd" clip-rule="evenodd" d="M395.125 107.639C395.666 107.327 396.334 107.327 396.875 107.639L403.669 111.562C404.211 111.874 404.544 112.452 404.544 113.077V120.923C404.544 121.548 404.211 122.126 403.669 122.438L396.875 126.361C396.334 126.673 395.666 126.673 395.125 126.361L388.331 122.438C387.789 122.126 387.456 121.548 387.456 120.923V113.077C387.456 112.452 387.789 111.874 388.331 111.562L395.125 107.639ZM396.125 108.938C396.048 108.893 395.952 108.893 395.875 108.938L389.081 112.861C389.003 112.905 388.956 112.988 388.956 113.077V120.923C388.956 121.012 389.003 121.094 389.081 121.139L395.875 125.062C395.952 125.106 396.048 125.106 396.125 125.062L402.919 121.139C402.997 121.094 403.044 121.012 403.044 120.923V113.077C403.044 112.988 402.997 112.905 402.919 112.861L396.125 108.938Z" fill="#141416"/>
<path fill-rule="evenodd" clip-rule="evenodd" d="M396 114.75C394.757 114.75 393.75 115.757 393.75 117C393.75 118.243 394.757 119.25 396 119.25C397.243 119.25 398.25 118.243 398.25 117C398.25 115.757 397.243 114.75 396 114.75ZM392.25 117C392.25 114.929 393.929 113.25 396 113.25C398.071 113.25 399.75 114.929 399.75 117C399.75 119.071 398.071 120.75 396 120.75C393.929 120.75 392.25 119.071 392.25 117Z" fill="#141416"/>
<path fill-rule="evenodd" clip-rule="evenodd" d="M449 110.5H446C445.724 110.5 445.5 110.724 445.5 111V114C445.5 114.276 445.724 114.5 446 114.5H449C449.276 114.5 449.5 114.276 449.5 114V111C449.5 110.724 449.276 110.5 449 110.5ZM446 109C444.895 109 444 109.895 444 111V114C444 115.105 444.895 116 446 116H449C450.105 116 451 115.105 451 114V111C451 109.895 450.105 109 449 109H446Z" fill="#141416"/>
<path fill-rule="evenodd" clip-rule="evenodd" d="M458 110.5H455C454.724 110.5 454.5 110.724 454.5 111V114C454.5 114.276 454.724 114.5 455 114.5H458C458.276 114.5 458.5 114.276 458.5 114V111C458.5 110.724 458.276 110.5 458 110.5ZM455 109C453.895 109 453 109.895 453 111V114C453 115.105 453.895 116 455 116H458C459.105 116 460 115.105 460 114V111C460 109.895 459.105 109 458 109H455Z" fill="#141416"/>
<path fill-rule="evenodd" clip-rule="evenodd" d="M449 119.5H446C445.724 119.5 445.5 119.724 445.5 120V123C445.5 123.276 445.724 123.5 446 123.5H449C449.276 123.5 449.5 123.276 449.5 123V120C449.5 119.724 449.276 119.5 449 119.5ZM446 118C444.895 118 444 118.895 444 120V123C444 124.105 444.895 125 446 125H449C450.105 125 451 124.105 451 123V120C451 118.895 450.105 118 449 118H446Z" fill="#141416"/>
<path fill-rule="evenodd" clip-rule="evenodd" d="M458 119.5H455C454.724 119.5 454.5 119.724 454.5 120V123C454.5 123.276 454.724 123.5 455 123.5H458C458.276 123.5 458.5 123.276 458.5 123V120C458.5 119.724 458.276 119.5 458 119.5ZM455 118C453.895 118 453 118.895 453 120V123C453 124.105 453.895 125 455 125H458C459.105 125 460 124.105 460 123V120C460 118.895 459.105 118 458 118H455Z" fill="#141416"/>
<path fill-rule="evenodd" clip-rule="evenodd" d="M508 122.75C507.586 122.75 507.25 122.414 507.25 122L507.25 112C507.25 111.586 507.586 111.25 508 111.25C508.414 111.25 508.75 111.586 508.75 112L508.75 122C508.75 122.414 508.414 122.75 508 122.75Z" fill="#141416"/>
<circle cx="564" cy="117" r="8" fill="#141416"/>
<path d="M615 117C615 118.105 614.105 119 613 119C611.895 119 611 118.105 611 117C611 115.895 611.895 115 613 115C614.105 115 615 115.895 615 117Z" fill="#141416"/>
<path d="M622 117C622 118.105 621.105 119 620 119C618.895 119 618 118.105 618 117C618 115.895 618.895 115 620 115C621.105 115 622 115.895 622 117Z" fill="#141416"/>
<path d="M629 117C629 118.105 628.105 119 627 119C625.895 119 625 118.105 625 117C625 115.895 625.895 115 627 115C628.105 115 629 115.895 629 117Z" fill="#141416"/>
<path fill-rule="evenodd" clip-rule="evenodd" d="M677.5 110H673.5C670.462 110 668 112.462 668 115.5V119.5C668 122.538 670.462 125 673.5 125H677.5C680.538 125 683 122.538 683 119.5V115.5C683 112.462 680.538 110 677.5 110ZM673.5 108.5C669.634 108.5 666.5 111.634 666.5 115.5V119.5C666.5 123.366 669.634 126.5 673.5 126.5H677.5C681.366 126.5 684.5 123.366 684.5 119.5V115.5C684.5 111.634 681.366 108.5 677.5 108.5H673.5Z" fill="#141416"/>
<circle cx="682.5" cy="110.5" r="4.5" fill="#141416"/>
<path fill-rule="evenodd" clip-rule="evenodd" d="M726 111.75C725.862 111.75 725.75 111.862 725.75 112V124.44C725.75 124.623 725.939 124.744 726.104 124.668L731.27 122.296C731.733 122.083 732.267 122.083 732.73 122.296L737.896 124.668C738.061 124.744 738.25 124.623 738.25 124.44V112C738.25 111.862 738.138 111.75 738 111.75H726ZM724.25 112C724.25 111.034 725.034 110.25 726 110.25H738C738.966 110.25 739.75 111.034 739.75 112V124.44C739.75 125.716 738.429 126.563 737.27 126.031L732.104 123.659C732.038 123.628 731.962 123.628 731.896 123.659L726.73 126.031C725.571 126.563 724.25 125.716 724.25 124.44V112Z" fill="#141416"/>
<path fill-rule="evenodd" clip-rule="evenodd" d="M727.5 108.75C727.362 108.75 727.25 108.862 727.25 109V111H725.75V109C725.75 108.034 726.534 107.25 727.5 107.25H736.5C737.466 107.25 738.25 108.034 738.25 109V111H736.75V109C736.75 108.862 736.638 108.75 736.5 108.75H727.5Z" fill="#141416"/>
<path fill-rule="evenodd" clip-rule="evenodd" d="M786.879 109.577C787.338 108.647 788.662 108.648 789.121 109.577L790.849 113.078L794.714 113.64C795.739 113.789 796.148 115.049 795.407 115.772L792.61 118.498L793.27 122.347C793.445 123.368 792.374 124.147 791.457 123.665L788 121.847L784.544 123.665C783.626 124.147 782.555 123.368 782.73 122.347L783.39 118.498L780.594 115.772C779.852 115.049 780.261 113.789 781.286 113.64L785.151 113.078L786.879 109.577ZM788 110.695L786.438 113.86C786.256 114.229 785.904 114.485 785.497 114.544L782.003 115.052L784.531 117.516C784.826 117.803 784.96 118.216 784.891 118.622L784.294 122.101L787.418 120.458C787.783 120.267 788.218 120.267 788.582 120.458L791.706 122.101L791.11 118.622C791.04 118.216 791.174 117.803 791.469 117.516L793.997 115.052L790.503 114.544C790.096 114.485 789.744 114.229 789.562 113.86L788 110.695Z" fill="#141416"/>
<path d="M843.552 109.908C843.735 109.537 844.265 109.537 844.448 109.908L846.235 113.528C846.308 113.676 846.448 113.778 846.611 113.802L850.606 114.382C851.016 114.442 851.18 114.946 850.883 115.235L847.992 118.053C847.875 118.167 847.821 118.333 847.849 118.495L848.531 122.474C848.601 122.882 848.172 123.194 847.806 123.001L844.233 121.122C844.087 121.046 843.913 121.046 843.767 121.122L840.194 123.001C839.828 123.194 839.399 122.882 839.469 122.474L840.151 118.495C840.179 118.333 840.125 118.167 840.008 118.053L837.117 115.235C836.82 114.946 836.984 114.442 837.394 114.382L841.389 113.802C841.552 113.778 841.692 113.676 841.765 113.528L843.552 109.908Z" fill="#141416"/>
<path fill-rule="evenodd" clip-rule="evenodd" d="M842.879 109.577C843.338 108.647 844.662 108.648 845.121 109.577L846.849 113.078L850.714 113.64C851.739 113.789 852.148 115.049 851.407 115.772L848.61 118.498L849.27 122.347C849.445 123.368 848.374 124.147 847.457 123.665L844 121.847L840.544 123.665C839.626 124.147 838.555 123.368 838.73 122.347L839.39 118.498L836.594 115.772C835.852 115.049 836.261 113.789 837.286 113.64L841.151 113.078L842.879 109.577ZM844 110.695L842.438 113.86C842.256 114.229 841.904 114.485 841.497 114.544L838.003 115.052L840.531 117.516C840.826 117.803 840.96 118.216 840.891 118.622L840.294 122.101L843.418 120.458C843.783 120.267 844.218 120.267 844.582 120.458L847.706 122.101L847.11 118.622C847.04 118.216 847.174 117.803 847.469 117.516L849.997 115.052L846.503 114.544C846.096 114.485 845.744 114.229 845.562 113.86L844 110.695Z" fill="#141416"/>
<path fill-rule="evenodd" clip-rule="evenodd" d="M891.25 112C891.25 109.929 892.929 108.25 895 108.25H905C907.071 108.25 908.75 109.929 908.75 112V113C908.75 113.966 907.966 114.75 907 114.75H893C892.034 114.75 891.25 113.966 891.25 113V112ZM895 109.75C893.757 109.75 892.75 110.757 892.75 112V113C892.75 113.138 892.862 113.25 893 113.25H907C907.138 113.25 907.25 113.138 907.25 113V112C907.25 110.757 906.243 109.75 905 109.75H895Z" fill="#141416"/>
<path fill-rule="evenodd" clip-rule="evenodd" d="M891.25 118C891.25 117.034 892.034 116.25 893 116.25H907C907.966 116.25 908.75 117.034 908.75 118V123C908.75 125.071 907.071 126.75 905 126.75H895C892.929 126.75 891.25 125.071 891.25 123V118ZM893 117.75C892.862 117.75 892.75 117.862 892.75 118V123C892.75 124.243 893.757 125.25 895 125.25H905C906.243 125.25 907.25 124.243 907.25 123V118C907.25 117.862 907.138 117.75 907 117.75H893Z" fill="#141416"/>
<path fill-rule="evenodd" clip-rule="evenodd" d="M947.25 112C947.25 109.929 948.929 108.25 951 108.25H961C963.071 108.25 964.75 109.929 964.75 112V113C964.75 113.966 963.966 114.75 963 114.75H949C948.034 114.75 947.25 113.966 947.25 113V112ZM951 109.75C949.757 109.75 948.75 110.757 948.75 112V113C948.75 113.138 948.862 113.25 949 113.25H963C963.138 113.25 963.25 113.138 963.25 113V112C963.25 110.757 962.243 109.75 961 109.75H951Z" fill="#141416"/>
<path d="M948 118C948 117.448 948.448 117 949 117H963C963.552 117 964 117.448 964 118V123C964 124.657 962.657 126 961 126H951C949.343 126 948 124.657 948 123V118Z" fill="#141416"/>
<path fill-rule="evenodd" clip-rule="evenodd" d="M947.25 118C947.25 117.034 948.034 116.25 949 116.25H963C963.966 116.25 964.75 117.034 964.75 118V123C964.75 125.071 963.071 126.75 961 126.75H951C948.929 126.75 947.25 125.071 947.25 123V118ZM949 117.75C948.862 117.75 948.75 117.862 948.75 118V123C948.75 124.243 949.757 125.25 951 125.25H961C962.243 125.25 963.25 124.243 963.25 123V118C963.25 117.862 963.138 117.75 963 117.75H949Z" fill="#141416"/>
<circle cx="60" cy="173" r="9" fill="#141416"/>
<path fill-rule="evenodd" clip-rule="evenodd" d="M60 182.75C54.6152 182.75 50.25 178.385 50.25 173C50.25 167.615 54.6152 163.25 60 163.25C65.3848 163.25 69.75 167.615 69.75 173C69.75 178.385 65.3848 182.75 60 182.75ZM51.75 173C51.75 177.556 55.4437 181.25 60 181.25C64.5563 181.25 68.25 177.556 68.25 173C68.25 168.444 64.5563 164.75 60 164.75C55.4437 164.75 51.75 168.444 51.75 173Z" fill="#141416"/>
<path fill-rule="evenodd" clip-rule="evenodd" d="M63.7803 170.47C64.0732 170.763 64.0732 171.237 63.7803 171.53L59.7803 175.53C59.4874 175.823 59.0126 175.823 58.7197 175.53L56.7197 173.53C56.4268 173.237 56.4268 172.763 56.7197 172.47C57.0126 172.177 57.4874 172.177 57.7803 172.47L59.25 173.939L62.7197 170.47C63.0126 170.177 63.4874 170.177 63.7803 170.47Z" fill="white"/>
<g clip-path="url(#clip0_816_8759)">
<path d="M123.312 180.635C123.648 180.894 124.134 180.833 124.366 180.478C125.244 179.138 125.789 177.603 125.95 176.001C126.137 174.144 125.8 172.272 124.978 170.596C124.156 168.921 122.882 167.508 121.299 166.519C119.716 165.53 117.888 165.004 116.022 165C114.155 164.996 112.325 165.514 110.738 166.497C109.151 167.479 107.87 168.886 107.041 170.558C106.212 172.23 105.867 174.101 106.046 175.959C106.201 177.561 106.739 179.098 107.611 180.442C107.842 180.798 108.327 180.862 108.665 180.604V180.604C109.002 180.346 109.063 179.865 108.837 179.505C108.137 178.392 107.704 177.128 107.577 175.811C107.426 174.239 107.717 172.656 108.419 171.241C109.12 169.826 110.204 168.636 111.547 167.804C112.89 166.973 114.439 166.534 116.018 166.538C117.598 166.541 119.145 166.987 120.484 167.824C121.824 168.66 122.902 169.856 123.598 171.274C124.293 172.692 124.578 174.276 124.42 175.847C124.287 177.163 123.849 178.426 123.144 179.536C122.916 179.895 122.975 180.376 123.312 180.635V180.635Z" fill="#141416"/>
<circle cx="116" cy="178" r="2" fill="#141416"/>
<path d="M114.268 177L120 171.072L117.732 179L114.268 177Z" fill="#141416"/>
</g>
<path fill-rule="evenodd" clip-rule="evenodd" d="M177.75 168C177.75 168.414 177.414 168.75 177 168.75L167 168.75C166.586 168.75 166.25 168.414 166.25 168C166.25 167.586 166.586 167.25 167 167.25L177 167.25C177.414 167.25 177.75 167.586 177.75 168Z" fill="#141416"/>
<path fill-rule="evenodd" clip-rule="evenodd" d="M177.75 173C177.75 173.414 177.414 173.75 177 173.75L167 173.75C166.586 173.75 166.25 173.414 166.25 173C166.25 172.586 166.586 172.25 167 172.25L177 172.25C177.414 172.25 177.75 172.586 177.75 173Z" fill="#141416"/>
<path fill-rule="evenodd" clip-rule="evenodd" d="M177.75 178C177.75 178.414 177.414 178.75 177 178.75L167 178.75C166.586 178.75 166.25 178.414 166.25 178C166.25 177.586 166.586 177.25 167 177.25L177 177.25C177.414 177.25 177.75 177.586 177.75 178Z" fill="#141416"/>
<g clip-path="url(#clip1_816_8759)">
<path d="M228.707 178.293C229.098 178.683 229.098 179.317 228.707 179.707C228.316 180.098 227.683 180.098 227.293 179.707C226.902 179.317 226.902 178.683 227.293 178.293C227.683 177.902 228.316 177.902 228.707 178.293Z" fill="#141416"/>
<path d="M231.017 175.983C231.303 175.697 231.306 175.227 230.981 174.986C230.652 174.741 230.294 174.538 229.913 174.381C229.307 174.129 228.657 174 228 174C227.343 174 226.693 174.129 226.087 174.381C225.706 174.538 225.348 174.741 225.019 174.986C224.694 175.227 224.697 175.697 224.983 175.983V175.983C225.27 176.269 225.731 176.262 226.07 176.04C226.253 175.921 226.446 175.819 226.648 175.736C227.077 175.558 227.536 175.467 228 175.467C228.464 175.467 228.923 175.558 229.352 175.736C229.554 175.819 229.747 175.921 229.93 176.04C230.269 176.262 230.731 176.269 231.017 175.983V175.983Z" fill="#141416"/>
<path d="M233.849 173.151C234.133 172.867 234.135 172.403 233.828 172.142C233.115 171.536 232.311 171.044 231.444 170.685C230.352 170.233 229.182 170 228 170C226.818 170 225.648 170.233 224.556 170.685C223.689 171.044 222.884 171.536 222.171 172.142C221.865 172.403 221.867 172.867 222.151 173.151V173.151C222.436 173.436 222.895 173.433 223.205 173.177C223.78 172.704 224.423 172.317 225.113 172.031C226.028 171.652 227.009 171.457 228 171.457C228.99 171.457 229.971 171.652 230.886 172.031C231.577 172.317 232.22 172.704 232.794 173.177C233.105 173.433 233.564 173.436 233.849 173.151V173.151Z" fill="#141416"/>
<path d="M236.688 170.312C236.967 170.033 236.968 169.58 236.675 169.318C235.583 168.339 234.332 167.552 232.975 166.99C231.398 166.336 229.707 166 228 166C226.293 166 224.602 166.336 223.025 166.99C221.668 167.552 220.417 168.339 219.325 169.318C219.032 169.58 219.033 170.033 219.312 170.312V170.312C219.59 170.59 220.04 170.588 220.335 170.328C221.293 169.481 222.386 168.797 223.571 168.307C224.975 167.725 226.48 167.426 228 167.426C229.52 167.426 231.025 167.725 232.429 168.307C233.614 168.797 234.707 169.481 235.665 170.328C235.96 170.588 236.41 170.59 236.688 170.312V170.312Z" fill="#141416"/>
</g>
<path d="M285.571 172.143L283.514 170.909C282.848 170.509 282 170.989 282 171.766V174.234C282 175.011 282.848 175.491 283.514 175.091L285.571 173.857C286.218 173.469 286.218 172.531 285.571 172.143Z" fill="#141416"/>
<path fill-rule="evenodd" clip-rule="evenodd" d="M288 166H280C278.343 166 277 167.343 277 169V177C277 178.657 278.343 180 280 180H288C289.657 180 291 178.657 291 177V169C291 167.343 289.657 166 288 166ZM280 165C277.791 165 276 166.791 276 169V177C276 179.209 277.791 181 280 181H288C290.209 181 292 179.209 292 177V169C292 166.791 290.209 165 288 165H280Z" fill="#141416"/>
<path d="M340.707 174.293C341.098 174.683 341.098 175.317 340.707 175.707C340.317 176.098 339.684 176.098 339.293 175.707C338.903 175.317 338.903 174.683 339.293 174.293C339.684 173.902 340.317 173.902 340.707 174.293Z" fill="#141416"/>
<path fill-rule="evenodd" clip-rule="evenodd" d="M330.25 165C330.25 164.586 330.586 164.25 331 164.25H349C349.414 164.25 349.75 164.586 349.75 165V169.5C349.75 170.765 348.896 171.83 347.734 172.151C347.649 173.834 347.223 175.704 346.183 177.234C344.977 179.008 342.991 180.25 340 180.25C337.009 180.25 335.023 179.008 333.817 177.234C332.777 175.704 332.351 173.834 332.266 172.151C331.104 171.83 330.25 170.765 330.25 169.5V165ZM333.775 172.25C333.87 173.698 334.25 175.203 335.058 176.391C335.977 177.742 337.491 178.75 340 178.75C342.509 178.75 344.023 177.742 344.942 176.391C345.75 175.203 346.13 173.698 346.225 172.25H333.775ZM331.75 165.75V169.5C331.75 170.19 332.31 170.75 333 170.75H347C347.69 170.75 348.25 170.19 348.25 169.5V165.75H331.75Z" fill="#141416"/>
<path d="M391 175C391.552 175 392 175.448 392 176C392 176.552 391.552 177 391 177C390.448 177 390 176.552 390 176C390 175.448 390.448 175 391 175Z" fill="#141416"/>
<path fill-rule="evenodd" clip-rule="evenodd" d="M388.018 168.448C388.626 167.11 389.961 166.25 391.432 166.25H399.719C401.091 166.25 402.354 167 403.011 168.204L405.25 172.309V176.5C405.25 178.571 403.571 180.25 401.5 180.25H390C387.929 180.25 386.25 178.571 386.25 176.5V172.338L388.018 168.448ZM391.432 167.75C390.549 167.75 389.749 168.266 389.383 169.069L388.165 171.75H403.237L401.694 168.923C401.3 168.2 400.542 167.75 399.719 167.75H391.432ZM403.75 173.25H387.75V176.5C387.75 177.743 388.757 178.75 390 178.75H401.5C402.743 178.75 403.75 177.743 403.75 176.5V173.25Z" fill="#141416"/>
<path fill-rule="evenodd" clip-rule="evenodd" d="M451 165.75C448.101 165.75 445.75 168.101 445.75 171H444.25C444.25 167.272 447.272 164.25 451 164.25H453C456.728 164.25 459.75 167.272 459.75 171H458.25C458.25 168.101 455.899 165.75 453 165.75H451Z" fill="#141416"/>
<path fill-rule="evenodd" clip-rule="evenodd" d="M446.5 175V173C446.5 172.172 445.828 171.5 445 171.5C444.172 171.5 443.5 172.172 443.5 173V175C443.5 175.828 444.172 176.5 445 176.5C445.828 176.5 446.5 175.828 446.5 175ZM445 170C443.343 170 442 171.343 442 173V175C442 176.657 443.343 178 445 178C446.657 178 448 176.657 448 175V173C448 171.343 446.657 170 445 170Z" fill="#141416"/>
<path fill-rule="evenodd" clip-rule="evenodd" d="M452.25 181C452.25 181.414 452.586 181.75 453 181.75H455C457.623 181.75 459.75 179.623 459.75 177H458.25C458.25 178.795 456.795 180.25 455 180.25H453C452.586 180.25 452.25 180.586 452.25 181Z" fill="#141416"/>
<path fill-rule="evenodd" clip-rule="evenodd" d="M460.5 175V173C460.5 172.172 459.828 171.5 459 171.5C458.172 171.5 457.5 172.172 457.5 173V175C457.5 175.828 458.172 176.5 459 176.5C459.828 176.5 460.5 175.828 460.5 175ZM459 170C457.343 170 456 171.343 456 173V175C456 176.657 457.343 178 459 178C460.657 178 462 176.657 462 175V173C462 171.343 460.657 170 459 170Z" fill="#141416"/>
<path fill-rule="evenodd" clip-rule="evenodd" d="M504.5 178V175C504.5 174.172 503.828 173.5 503 173.5C502.172 173.5 501.5 174.172 501.5 175V178C501.5 178.828 502.172 179.5 503 179.5C503.828 179.5 504.5 178.828 504.5 178ZM503 172C501.343 172 500 173.343 500 175V178C500 179.657 501.343 181 503 181C504.657 181 506 179.657 506 178V175C506 173.343 504.657 172 503 172Z" fill="#141416"/>
<path fill-rule="evenodd" clip-rule="evenodd" d="M503 164.25C503.414 164.25 503.75 164.586 503.75 165L503.75 172C503.75 172.414 503.414 172.75 503 172.75C502.586 172.75 502.25 172.414 502.25 172L502.25 165C502.25 164.586 502.586 164.25 503 164.25Z" fill="#141416"/>
<path fill-rule="evenodd" clip-rule="evenodd" d="M510 164.25C510.414 164.25 510.75 164.586 510.75 165V166C510.75 167.243 511.757 168.25 513 168.25C514.243 168.25 515.25 167.243 515.25 166V165C515.25 164.586 515.586 164.25 516 164.25C516.414 164.25 516.75 164.586 516.75 165V166C516.75 168.071 515.071 169.75 513 169.75C510.929 169.75 509.25 168.071 509.25 166V165C509.25 164.586 509.586 164.25 510 164.25Z" fill="#141416"/>
<path fill-rule="evenodd" clip-rule="evenodd" d="M513 168.25C513.414 168.25 513.75 168.586 513.75 169L513.75 180C513.75 180.414 513.414 180.75 513 180.75C512.586 180.75 512.25 180.414 512.25 180L512.25 169C512.25 168.586 512.586 168.25 513 168.25Z" fill="#141416"/>
<path fill-rule="evenodd" clip-rule="evenodd" d="M564 182.75C558.615 182.75 554.25 178.385 554.25 173C554.25 167.615 558.615 163.25 564 163.25C569.385 163.25 573.75 167.615 573.75 173C573.75 178.385 569.385 182.75 564 182.75ZM555.75 173C555.75 177.556 559.444 181.25 564 181.25C568.556 181.25 572.25 177.556 572.25 173C572.25 168.444 568.556 164.75 564 164.75C559.444 164.75 555.75 168.444 555.75 173Z" fill="#141416"/>
<path d="M561.402 171.5C561.126 171.978 560.514 172.142 560.036 171.866C559.558 171.59 559.394 170.978 559.67 170.5C559.946 170.022 560.558 169.858 561.036 170.134C561.514 170.41 561.678 171.022 561.402 171.5Z" fill="#141416"/>
<path d="M568.33 175.5C568.054 175.978 567.443 176.142 566.964 175.866C566.486 175.59 566.322 174.978 566.598 174.5C566.874 174.022 567.486 173.858 567.964 174.134C568.443 174.41 568.606 175.022 568.33 175.5Z" fill="#141416"/>
<path fill-rule="evenodd" clip-rule="evenodd" d="M566.25 169.103C566.489 169.241 566.571 169.547 566.433 169.786L562.433 176.714C562.295 176.953 561.989 177.035 561.75 176.897C561.511 176.759 561.429 176.453 561.567 176.214L565.567 169.286C565.705 169.047 566.011 168.965 566.25 169.103Z" fill="#141416"/>
<g clip-path="url(#clip2_816_8759)">
<path d="M608 173C608 166.373 613.373 161 620 161V161C626.627 161 632 166.373 632 173V173C632 179.627 626.627 185 620 185V185C613.373 185 608 179.627 608 173V173Z" fill="url(#paint0_linear_816_8759)"/>
<path fill-rule="evenodd" clip-rule="evenodd" d="M615.847 169.901C616.022 169.357 616.512 168.965 617.081 168.965H618.839L618.112 172.143L618.039 172.456C617.864 172.961 617.402 173.318 616.862 173.318H615.059L615.808 170.055L615.836 169.936C615.839 169.93 615.84 169.924 615.842 169.919C615.843 169.913 615.845 169.907 615.847 169.901ZM616.721 170.06L616.749 170.055L618.293 170.072L618.287 170.094C618.259 170.219 618.191 170.327 618.084 170.418C617.972 170.503 617.853 170.548 617.729 170.548H616.636L616.552 170.912H617.808L617.803 170.934C617.774 171.059 617.701 171.167 617.594 171.258C617.487 171.349 617.363 171.394 617.239 171.394H616.439L616.349 171.78C616.321 171.905 616.248 172.013 616.141 172.104C616.034 172.194 615.915 172.24 615.786 172.24H615.763L616.169 170.475C616.191 170.389 616.259 170.282 616.366 170.196C616.479 170.106 616.597 170.06 616.721 170.06Z" fill="white"/>
<path fill-rule="evenodd" clip-rule="evenodd" d="M619.211 168.948C619.363 168.403 619.859 168 620.45 168H622.208L620.997 173.296C620.856 173.863 620.349 174.283 619.746 174.283H617.988L619.183 169.073C619.188 169.033 619.2 168.988 619.211 168.948ZM620.93 170.049C621.042 170.049 621.132 170.089 621.2 170.157C621.273 170.231 621.307 170.316 621.301 170.424C621.301 170.453 621.297 170.479 621.292 170.507C621.292 170.512 621.291 170.516 621.29 170.52L621.194 170.923C621.166 171.054 621.087 171.196 620.98 171.281C620.873 171.366 620.761 171.383 620.637 171.383H619.572L619.482 171.769C619.453 171.894 619.38 172.001 619.273 172.092C619.166 172.183 619.048 172.229 618.918 172.229H618.896V172.223L619.392 170.049H620.93ZM619.684 170.9H620.721L620.806 170.537H619.769L619.684 170.9Z" fill="white"/>
<path fill-rule="evenodd" clip-rule="evenodd" d="M622.169 169.839C622.355 169.328 622.828 168.965 623.38 168.965H625.138L624.377 172.285C624.231 172.881 623.718 173.318 623.115 173.318H621.358L622.124 169.975C622.124 169.975 622.158 169.867 622.169 169.839ZM624.062 170.055C624.175 170.055 624.265 170.094 624.332 170.162C624.4 170.231 624.434 170.316 624.428 170.429C624.428 170.458 624.422 170.492 624.417 170.526L624.411 170.543H623.611L623.329 171.774C623.301 171.899 623.228 172.007 623.121 172.098C623.014 172.189 622.896 172.234 622.766 172.234H622.744L623.132 170.543H622.794C622.682 170.543 622.591 170.503 622.524 170.435C622.456 170.361 622.422 170.276 622.422 170.168C622.422 170.14 622.428 170.106 622.434 170.072L622.439 170.055H623.341H623.386H624.062Z" fill="white"/>
<path d="M624.502 173.652C624.502 173.311 624.784 173.027 625.122 173.027C625.46 173.027 625.742 173.311 625.742 173.652C625.742 173.992 625.46 174.276 625.122 174.276C624.784 174.276 624.502 173.992 624.502 173.652ZM625.592 173.652C625.592 173.358 625.385 173.15 625.122 173.15C624.859 173.15 624.652 173.358 624.652 173.652C624.652 173.945 624.859 174.153 625.122 174.153C625.385 174.153 625.592 173.945 625.592 173.652ZM624.887 173.292H625.15C625.319 173.292 625.413 173.349 625.413 173.5C625.413 173.623 625.348 173.68 625.226 173.69L625.413 174.002H625.282L625.103 173.699H625.028V174.002H624.897V173.292H624.887ZM625.019 173.595H625.132C625.207 173.595 625.272 173.585 625.272 173.491C625.272 173.406 625.197 173.396 625.132 173.396H625.019V173.595Z" fill="white"/>
<path d="M614.588 175.797V177.958H614.204V175.797H613.637V175.469H615.156V175.797H614.588Z" fill="white"/>
<path d="M616.875 177.025L615.656 177.193C615.698 177.529 615.882 177.697 616.216 177.697C616.416 177.697 616.583 177.664 616.725 177.588L616.833 177.865C616.666 177.95 616.458 178 616.191 178C615.907 178 615.681 177.916 615.523 177.739C615.364 177.571 615.289 177.336 615.289 177.033C615.289 176.747 615.364 176.52 615.515 176.343C615.665 176.167 615.865 176.074 616.124 176.074C616.358 176.074 616.55 176.15 616.683 176.293C616.817 176.436 616.883 176.638 616.883 176.89C616.875 176.94 616.875 176.991 616.875 177.025ZM616.524 176.823C616.524 176.503 616.383 176.343 616.115 176.343C615.974 176.343 615.857 176.394 615.773 176.503C615.681 176.613 615.64 176.755 615.64 176.949L616.524 176.823Z" fill="white"/>
<path d="M617.142 177.958V175.267H617.518V177.958H617.142Z" fill="white"/>
<path d="M619.371 177.025L618.152 177.193C618.194 177.529 618.377 177.697 618.711 177.697C618.912 177.697 619.079 177.664 619.22 177.588L619.329 177.865C619.162 177.95 618.953 178 618.686 178C618.402 178 618.177 177.916 618.018 177.739C617.86 177.571 617.785 177.336 617.785 177.033C617.785 176.747 617.86 176.52 618.01 176.343C618.16 176.167 618.361 176.074 618.619 176.074C618.853 176.074 619.045 176.15 619.179 176.293C619.312 176.436 619.379 176.638 619.379 176.89C619.371 176.94 619.371 176.991 619.371 177.025ZM619.012 176.823C619.012 176.503 618.87 176.343 618.603 176.343C618.461 176.343 618.344 176.394 618.261 176.503C618.169 176.613 618.127 176.755 618.127 176.949L619.012 176.823Z" fill="white"/>
<path d="M620.84 177.865C620.714 177.95 620.556 177.992 620.372 177.992C620.147 177.992 619.963 177.916 619.813 177.765C619.646 177.588 619.563 177.344 619.563 177.033C619.563 176.722 619.646 176.478 619.813 176.301C619.955 176.15 620.147 176.074 620.372 176.074C620.564 176.074 620.714 176.116 620.84 176.2L620.714 176.47C620.631 176.411 620.531 176.377 620.414 176.377C620.28 176.377 620.172 176.428 620.088 176.528C619.997 176.646 619.947 176.806 619.947 177.025C619.947 177.235 619.997 177.403 620.097 177.521C620.18 177.63 620.289 177.68 620.422 177.68C620.539 177.68 620.639 177.647 620.723 177.588L620.84 177.865Z" fill="white"/>
<path d="M622.392 177.714C622.25 177.899 622.05 177.991 621.791 177.991C621.54 177.991 621.34 177.899 621.19 177.714C621.048 177.537 620.981 177.31 620.981 177.024C620.981 176.738 621.048 176.511 621.19 176.335C621.332 176.15 621.532 176.057 621.791 176.057C622.041 176.057 622.242 176.15 622.392 176.335C622.534 176.511 622.6 176.738 622.6 177.024C622.6 177.31 622.534 177.546 622.392 177.714ZM622.116 176.545C622.041 176.427 621.933 176.368 621.791 176.368C621.649 176.368 621.54 176.427 621.465 176.545C621.39 176.663 621.357 176.823 621.357 177.024C621.357 177.226 621.39 177.386 621.465 177.504C621.54 177.621 621.649 177.689 621.791 177.689C621.933 177.689 622.041 177.63 622.116 177.504C622.191 177.386 622.225 177.226 622.225 177.024C622.225 176.823 622.191 176.663 622.116 176.545Z" fill="white"/>
<path d="M624.979 177.958V176.705C624.979 176.596 624.946 176.52 624.888 176.461C624.821 176.402 624.737 176.377 624.629 176.377C624.479 176.377 624.37 176.419 624.295 176.503V177.966H623.919V176.671C623.919 176.579 623.886 176.503 623.819 176.453C623.752 176.402 623.661 176.377 623.544 176.377C623.419 176.377 623.318 176.394 623.227 176.436V177.966H622.859V176.2C623.068 176.116 623.285 176.066 623.519 176.066C623.786 176.066 623.978 176.133 624.103 176.268C624.253 176.133 624.462 176.066 624.712 176.066C624.904 176.066 625.063 176.116 625.18 176.226C625.297 176.335 625.347 176.478 625.347 176.663V177.949H624.979V177.958Z" fill="white"/>
<circle cx="628" cy="165" r="3.75" fill="#19AC52" stroke="white" stroke-width="0.5"/>
</g>
<path d="M668.137 173.191L676.161 163.233C676.528 162.777 677.268 163.035 677.268 163.618V171.11C677.268 171.45 677.546 171.727 677.889 171.727H683.378C683.907 171.727 684.194 172.342 683.851 172.743L675.256 182.781C674.882 183.219 674.162 182.956 674.162 182.382V174.81C674.162 174.469 673.884 174.193 673.541 174.193H668.622C668.101 174.193 667.812 173.595 668.137 173.191Z" fill="#141416"/>
<path fill-rule="evenodd" clip-rule="evenodd" d="M732.25 166.138L726.56 173.25H730C730.69 173.25 731.25 173.81 731.25 174.5V179.96L737.378 172.75H733.5C732.81 172.75 732.25 172.19 732.25 171.5V166.138ZM731.524 164.645C732.262 163.722 733.75 164.244 733.75 165.425V171.25H737.919C738.984 171.25 739.561 172.498 738.871 173.31L731.952 181.449C731.199 182.336 729.75 181.803 729.75 180.64V174.75H726.04C724.992 174.75 724.409 173.538 725.064 172.719L731.524 164.645Z" fill="#141416"/>
<path fill-rule="evenodd" clip-rule="evenodd" d="M788 182.5C793.247 182.5 797.5 178.247 797.5 173C797.5 167.753 793.247 163.5 788 163.5C782.753 163.5 778.5 167.753 778.5 173C778.5 178.247 782.753 182.5 788 182.5ZM788 184C794.075 184 799 179.075 799 173C799 166.925 794.075 162 788 162C781.925 162 777 166.925 777 173C777 179.075 781.925 184 788 184Z" fill="#141416"/>
<path fill-rule="evenodd" clip-rule="evenodd" d="M788 172.5C789.105 172.5 790 171.605 790 170.5C790 169.395 789.105 168.5 788 168.5C786.895 168.5 786 169.395 786 170.5C786 171.605 786.895 172.5 788 172.5ZM788 174C789.933 174 791.5 172.433 791.5 170.5C791.5 168.567 789.933 167 788 167C786.067 167 784.5 168.567 784.5 170.5C784.5 172.433 786.067 174 788 174Z" fill="#141416"/>
<path fill-rule="evenodd" clip-rule="evenodd" d="M782.874 181C784.353 181.95 786.111 182.5 788 182.5C789.889 182.5 791.647 181.95 793.126 181C792.326 178.951 790.331 177.5 788 177.5C785.669 177.5 783.674 178.951 782.874 181ZM794.86 181.599C794.211 178.405 791.386 176 788 176C784.614 176 781.789 178.405 781.14 181.599C783.021 183.102 785.406 184 788 184C790.594 184 792.979 183.102 794.86 181.599Z" fill="#141416"/>
<g clip-path="url(#clip3_816_8759)">
<path fill-rule="evenodd" clip-rule="evenodd" d="M837.996 168.412L849.996 168.412C852.482 168.412 854.496 170.426 854.496 172.912L854.496 175.645C854.496 177.449 853.034 178.912 851.229 178.912L851.107 178.912C850.215 178.912 849.369 178.515 848.797 177.83L848.589 177.58C846.213 174.729 841.798 174.842 839.571 177.812C839.052 178.504 838.237 178.912 837.371 178.912L836.996 178.912C835.063 178.912 833.496 177.345 833.496 175.412L833.496 172.912C833.496 170.426 835.511 168.412 837.996 168.412ZM849.996 166.912L837.996 166.912C834.683 166.912 831.996 169.598 831.996 172.912L831.996 175.412C831.996 178.173 834.235 180.412 836.996 180.412L837.371 180.412C838.709 180.412 839.969 179.782 840.771 178.712C842.418 176.517 845.681 176.433 847.437 178.541L847.645 178.79C848.501 179.818 849.77 180.412 851.107 180.412L851.229 180.412C853.862 180.412 855.996 178.277 855.996 175.645L855.996 172.912C855.996 169.598 853.31 166.912 849.996 166.912ZM850.496 170.912C850.496 170.497 850.16 170.162 849.746 170.162C849.332 170.162 848.996 170.497 848.996 170.912L848.996 171.912L847.996 171.912C847.582 171.912 847.246 172.247 847.246 172.662C847.246 173.076 847.582 173.412 847.996 173.412L848.996 173.412L848.996 174.412C848.996 174.826 849.332 175.162 849.746 175.162C850.16 175.162 850.496 174.826 850.496 174.412L850.496 173.412L851.496 173.412C851.91 173.412 852.246 173.076 852.246 172.662C852.246 172.247 851.91 171.912 851.496 171.912L850.496 171.912L850.496 170.912ZM839.996 172.412C839.996 173.24 839.325 173.912 838.496 173.912C837.668 173.912 836.996 173.24 836.996 172.412C836.996 171.583 837.668 170.912 838.496 170.912C839.325 170.912 839.996 171.583 839.996 172.412Z" fill="#141416"/>
</g>
<path fill-rule="evenodd" clip-rule="evenodd" d="M904.596 176.91C907.135 174.372 907.135 170.256 904.596 167.718C902.058 165.179 897.942 165.179 895.404 167.718C892.865 170.256 892.865 174.372 895.404 176.91L900 181.506L904.596 176.91ZM905.657 166.657C908.781 169.781 908.781 174.846 905.657 177.971L900.707 182.92C900.317 183.311 899.683 183.311 899.293 182.92L894.343 177.971C891.219 174.846 891.219 169.781 894.343 166.657C897.467 163.533 902.533 163.533 905.657 166.657Z" fill="#141416"/>
<path d="M900 174C899.172 174 898.5 173.328 898.5 172.5C898.5 171.672 899.172 171 900 171C900.828 171 901.5 171.672 901.5 172.5C901.5 173.328 900.828 174 900 174Z" fill="#141416"/>
<path fill-rule="evenodd" clip-rule="evenodd" d="M53.2494 232.301C53.5928 233.645 54.2907 234.918 55.3431 235.971C58.4673 239.095 63.5327 239.095 66.6569 235.971C69.781 232.846 69.781 227.781 66.6569 224.657L61.7071 219.707C61.3166 219.317 60.6834 219.317 60.2929 219.707L58.2407 221.759L58.6585 222.177C58.877 222.396 59.0752 222.627 59.2529 222.868L61 221.121L65.5962 225.717C68.1346 228.256 68.1346 232.371 65.5962 234.91C63.0578 237.448 58.9422 237.448 56.4038 234.91C55.6728 234.179 55.1524 233.317 54.8424 232.4C54.3104 232.438 53.7743 232.404 53.2494 232.301Z" fill="#141416"/>
<path fill-rule="evenodd" clip-rule="evenodd" d="M54.5737 222.256L52.4147 224.415C51.2223 225.607 51.2223 227.54 52.4147 228.733C53.6071 229.925 55.5403 229.925 56.7327 228.733C57.9251 227.54 57.9251 225.607 56.7327 224.415L54.5737 222.256ZM51.354 223.354C49.5758 225.132 49.5758 228.015 51.354 229.794C53.1322 231.572 56.0152 231.572 57.7934 229.794C59.5715 228.015 59.5715 225.132 57.7934 223.354L54.6999 220.261C54.6302 220.191 54.5172 220.191 54.4474 220.261L51.354 223.354Z" fill="#141416"/>
<path fill-rule="evenodd" clip-rule="evenodd" d="M107.364 235.069C107.314 235.206 107.206 235.314 107.069 235.364L105.267 236.031C104.832 236.192 104.832 236.808 105.267 236.969L107.069 237.636C107.206 237.686 107.314 237.794 107.364 237.931L108.031 239.733C108.192 240.168 108.808 240.168 108.969 239.733L109.636 237.931C109.686 237.794 109.794 237.686 109.931 237.636L111.733 236.969C112.168 236.808 112.168 236.192 111.733 236.031L109.931 235.364C109.794 235.314 109.686 235.206 109.636 235.069L108.969 233.267C108.808 232.832 108.192 232.832 108.031 233.267L107.364 235.069ZM108.5 236.089C108.384 236.246 108.245 236.384 108.089 236.5C108.245 236.616 108.384 236.755 108.5 236.911C108.616 236.755 108.754 236.616 108.911 236.5C108.754 236.384 108.616 236.246 108.5 236.089Z" fill="black"/>
<path fill-rule="evenodd" clip-rule="evenodd" d="M113.744 225.448C113.693 225.585 113.585 225.693 113.448 225.744L107.267 228.031C106.832 228.192 106.832 228.808 107.267 228.969L113.448 231.256C113.585 231.307 113.693 231.415 113.744 231.552L116.031 237.733C116.192 238.168 116.808 238.168 116.969 237.733L119.256 231.552C119.307 231.415 119.415 231.307 119.551 231.256L125.733 228.969C126.168 228.808 126.168 228.192 125.733 228.031L119.551 225.744C119.415 225.693 119.307 225.585 119.256 225.448L116.969 219.267C116.808 218.832 116.192 218.832 116.031 219.267L113.744 225.448ZM116.5 222.322L115.151 225.969C114.948 226.516 114.516 226.948 113.969 227.151L110.322 228.5L113.969 229.849C114.516 230.052 114.948 230.484 115.151 231.031L116.5 234.678L117.849 231.031C118.052 230.484 118.483 230.052 119.031 229.849L122.678 228.5L119.031 227.151C118.483 226.948 118.052 226.516 117.849 225.969L116.5 222.322Z" fill="#141416"/>
<path fill-rule="evenodd" clip-rule="evenodd" d="M179.538 232.912C179.113 232.97 178.679 233.001 178.238 233.001C173.037 233.001 168.82 228.784 168.82 223.582C168.82 222.677 168.948 221.8 169.187 220.969C165.867 222.126 163.484 225.286 163.484 229C163.484 233.696 167.291 237.503 171.987 237.503C175.27 237.503 178.122 235.641 179.538 232.912ZM179.997 231.305C180.798 231.123 181.635 231.774 181.344 232.542C179.914 236.318 176.264 239.003 171.987 239.003C166.463 239.003 161.984 234.524 161.984 229C161.984 224.224 165.332 220.229 169.81 219.235C170.612 219.057 171.137 219.979 170.843 220.746C170.505 221.627 170.32 222.583 170.32 223.582C170.32 227.956 173.865 231.501 178.238 231.501C178.843 231.501 179.431 231.433 179.997 231.305Z" fill="black"/>
<path fill-rule="evenodd" clip-rule="evenodd" d="M222.768 218.25L223 218.25C223.414 218.25 223.75 218.586 223.75 219C223.75 219.414 223.414 219.75 223 219.75H222.8C221.948 219.75 221.353 219.751 220.891 219.788C220.437 219.825 220.176 219.895 219.979 219.995C219.555 220.211 219.211 220.555 218.995 220.979C218.895 221.176 218.825 221.437 218.788 221.891C218.751 222.353 218.75 222.948 218.75 223.8V224C218.75 224.414 218.414 224.75 218 224.75C217.586 224.75 217.25 224.414 217.25 224L217.25 223.768C217.25 222.955 217.25 222.299 217.293 221.769C217.338 221.222 217.432 220.742 217.659 220.298C218.018 219.592 218.592 219.018 219.298 218.659C219.742 218.432 220.222 218.338 220.769 218.293C221.299 218.25 221.955 218.25 222.768 218.25Z" fill="black"/>
<path fill-rule="evenodd" clip-rule="evenodd" d="M238.75 223.768L238.75 224C238.75 224.414 238.414 224.75 238 224.75C237.586 224.75 237.25 224.414 237.25 224L237.25 223.8C237.25 222.948 237.249 222.353 237.212 221.891C237.175 221.437 237.105 221.176 237.005 220.979C236.789 220.555 236.445 220.211 236.021 219.995C235.824 219.895 235.563 219.825 235.109 219.788C234.647 219.751 234.052 219.75 233.2 219.75L233 219.75C232.586 219.75 232.25 219.414 232.25 219C232.25 218.586 232.586 218.25 233 218.25L233.232 218.25C234.045 218.25 234.701 218.25 235.231 218.293C235.778 218.338 236.258 218.432 236.702 218.659C237.408 219.018 237.982 219.592 238.341 220.298C238.568 220.742 238.662 221.222 238.707 221.769C238.75 222.299 238.75 222.955 238.75 223.768Z" fill="black"/>
<path fill-rule="evenodd" clip-rule="evenodd" d="M233.232 239.75L233 239.75C232.586 239.75 232.25 239.414 232.25 239C232.25 238.586 232.586 238.25 233 238.25L233.2 238.25C234.052 238.25 234.647 238.249 235.109 238.212C235.563 238.175 235.824 238.105 236.021 238.005C236.445 237.789 236.789 237.445 237.005 237.021C237.105 236.824 237.175 236.563 237.212 236.109C237.249 235.647 237.25 235.052 237.25 234.2L237.25 234C237.25 233.586 237.586 233.25 238 233.25C238.414 233.25 238.75 233.586 238.75 234L238.75 234.232C238.75 235.045 238.75 235.701 238.707 236.231C238.662 236.778 238.568 237.258 238.341 237.702C237.982 238.408 237.408 238.982 236.702 239.341C236.258 239.568 235.778 239.662 235.231 239.707C234.701 239.75 234.045 239.75 233.232 239.75Z" fill="black"/>
<path fill-rule="evenodd" clip-rule="evenodd" d="M217.25 234.232L217.25 234C217.25 233.586 217.586 233.25 218 233.25C218.414 233.25 218.75 233.586 218.75 234L218.75 234.2C218.75 235.052 218.751 235.647 218.788 236.109C218.825 236.563 218.895 236.824 218.995 237.021C219.211 237.445 219.555 237.789 219.979 238.005C220.176 238.105 220.437 238.175 220.891 238.212C221.353 238.249 221.948 238.25 222.8 238.25L223 238.25C223.414 238.25 223.75 238.586 223.75 239C223.75 239.414 223.414 239.75 223 239.75L222.768 239.75C221.955 239.75 221.299 239.75 220.769 239.707C220.222 239.662 219.742 239.568 219.298 239.341C218.592 238.982 218.018 238.408 217.659 237.702C217.432 237.258 217.338 236.778 217.293 236.231C217.25 235.701 217.25 235.045 217.25 234.232Z" fill="black"/>
<path fill-rule="evenodd" clip-rule="evenodd" d="M228 226.5C228.828 226.5 229.5 225.828 229.5 225C229.5 224.172 228.828 223.5 228 223.5C227.172 223.5 226.5 224.172 226.5 225C226.5 225.828 227.172 226.5 228 226.5ZM228 228C229.657 228 231 226.657 231 225C231 223.343 229.657 222 228 222C226.343 222 225 223.343 225 225C225 226.657 226.343 228 228 228Z" fill="black"/>
<path fill-rule="evenodd" clip-rule="evenodd" d="M227 230.75C225.757 230.75 224.75 231.757 224.75 233V234C224.75 234.414 224.414 234.75 224 234.75C223.586 234.75 223.25 234.414 223.25 234V233C223.25 230.929 224.929 229.25 227 229.25H229C231.071 229.25 232.75 230.929 232.75 233V234C232.75 234.414 232.414 234.75 232 234.75C231.586 234.75 231.25 234.414 231.25 234V233C231.25 231.757 230.243 230.75 229 230.75H227Z" fill="black"/>
<path fill-rule="evenodd" clip-rule="evenodd" d="M284.449 221.862C284.163 221.74 283.837 221.74 283.551 221.862C282.87 222.152 281.775 222.592 280.906 222.804C280.148 222.989 279.198 223.091 278.413 223.149C277.807 223.194 277.37 223.69 277.404 224.235C277.51 225.946 277.726 228.448 278.106 229.733C278.549 231.23 279.495 232.678 280.548 233.928C281.596 235.172 282.72 236.186 283.477 236.816C283.786 237.073 284.214 237.073 284.523 236.816C285.28 236.186 286.404 235.172 287.452 233.928C288.505 232.678 289.451 231.23 289.894 229.733C290.274 228.448 290.49 225.946 290.596 224.235C290.63 223.69 290.193 223.194 289.587 223.149C288.802 223.091 287.852 222.989 287.094 222.804C286.225 222.592 285.13 222.152 284.449 221.862ZM283.075 220.745C283.665 220.493 284.335 220.493 284.925 220.745C285.604 221.034 286.618 221.438 287.382 221.625C288.038 221.785 288.906 221.882 289.675 221.938C290.882 222.027 291.887 223.04 291.808 224.31C291.704 225.988 291.485 228.636 291.058 230.077C290.549 231.801 289.486 233.398 288.381 234.71C287.272 236.028 286.09 237.092 285.3 237.749C284.54 238.381 283.46 238.381 282.7 237.749C281.91 237.092 280.728 236.028 279.619 234.71C278.514 233.398 277.451 231.801 276.942 230.077C276.515 228.636 276.296 225.988 276.192 224.31C276.113 223.04 277.118 222.027 278.324 221.938C279.094 221.882 279.962 221.785 280.618 221.625C281.382 221.438 282.396 221.034 283.075 220.745Z" fill="black"/>
<path d="M333.524 229.905C333.121 228.542 332.903 225.967 332.798 224.272C332.742 223.365 333.462 222.61 334.369 222.544C335.146 222.487 336.055 222.387 336.762 222.214C337.579 222.015 338.633 221.593 339.313 221.303C339.751 221.116 340.249 221.116 340.687 221.303C341.367 221.593 342.421 222.015 343.238 222.214C343.945 222.387 344.854 222.487 345.631 222.544C346.537 222.61 347.258 223.365 347.202 224.272C347.097 225.967 346.879 228.542 346.476 229.905C345.523 233.126 342.458 235.996 340.911 237.283C340.377 237.727 339.623 237.727 339.089 237.283C337.541 235.996 334.477 233.126 333.524 229.905Z" fill="#141416"/>
<path d="M397.309 222.884L403.562 229.137C404.05 229.625 404.05 230.416 403.562 230.905L397.905 236.562C397.417 237.05 396.625 237.05 396.137 236.562L389.884 230.309C389.629 230.054 389.497 229.702 389.521 229.342L389.875 224.039C389.916 223.414 390.414 222.916 391.039 222.875L396.342 222.521C396.702 222.497 397.054 222.629 397.309 222.884Z" stroke="black" stroke-width="1.5"/>
<circle cx="394.192" cy="227.192" r="2" transform="rotate(-45 394.192 227.192)" fill="#141416"/>
<path fill-rule="evenodd" clip-rule="evenodd" d="M444.773 229.292C444.734 229.867 444.946 230.431 445.354 230.839L451.607 237.092C452.388 237.873 453.654 237.873 454.435 237.092L460.092 231.435C460.873 230.654 460.873 229.388 460.092 228.607L453.839 222.354C453.432 221.946 452.868 221.734 452.292 221.773L446.989 222.126C445.989 222.193 445.193 222.989 445.126 223.989L444.773 229.292ZM451.606 228.607C452.387 227.826 452.387 226.559 451.606 225.778C450.825 224.997 449.559 224.997 448.778 225.778C447.997 226.559 447.997 227.826 448.778 228.607C449.559 229.388 450.825 229.388 451.606 228.607Z" fill="#141416"/>
<path d="M499 229C499 226.2 499 224.8 499.545 223.73C500.024 222.789 500.789 222.024 501.73 221.545C502.8 221 504.2 221 507 221H509.5C511.83 221 512.995 221 513.913 221.381C515.139 221.888 516.112 222.861 516.619 224.087C517 225.005 517 226.17 517 228.5L-nan -nanL-nan -nanL517 228.5C517 230.83 517 231.995 516.619 232.913C516.112 234.139 515.139 235.112 513.913 235.619C512.995 236 511.83 236 509.5 236H504.454C503.67 236 503.278 236 502.905 236.071C502.37 236.174 501.861 236.384 501.41 236.69C501.097 236.903 500.819 237.181 500.264 237.736L-nan -nanL500.264 237.736C499.922 238.078 499.751 238.249 499.608 238.281C499.403 238.327 499.191 238.239 499.078 238.061C499 237.939 499 237.696 499 237.212V236V229Z" fill="#141416"/>
<path fill-rule="evenodd" clip-rule="evenodd" d="M556.5 226.983L556.5 232.017C556.5 232.192 556.591 232.354 556.741 232.445L561.5 235.334L561.5 223.665L556.741 226.555C556.591 226.646 556.5 226.808 556.5 226.983ZM555 232.017C555 232.716 555.365 233.364 555.962 233.727L561.481 237.078C562.147 237.482 563 237.003 563 236.223L563 222.777C563 221.997 562.147 221.518 561.481 221.922L555.962 225.273C555.365 225.636 555 226.284 555 226.983L555 232.017Z" fill="#141416"/>
<path fill-rule="evenodd" clip-rule="evenodd" d="M566.084 233.124C565.739 232.894 565.646 232.429 565.876 232.084C566.195 231.605 566.75 230.764 566.75 229.5C566.75 228.236 566.195 227.395 565.876 226.916C565.646 226.571 565.739 226.106 566.084 225.876C566.429 225.646 566.894 225.739 567.124 226.084L567.129 226.092C567.479 226.616 568.25 227.773 568.25 229.5C568.25 231.227 567.479 232.384 567.129 232.908L567.124 232.916C566.894 233.261 566.429 233.354 566.084 233.124Z" fill="#141416"/>
<path fill-rule="evenodd" clip-rule="evenodd" d="M569.084 236.124C568.739 235.894 568.646 235.429 568.876 235.084C569.528 234.105 570.75 232.264 570.75 229.5C570.75 226.736 569.528 224.895 568.876 223.916C568.646 223.571 568.739 223.106 569.084 222.876C569.429 222.646 569.894 222.739 570.124 223.084L570.129 223.092C570.812 224.117 572.25 226.273 572.25 229.5C572.25 232.727 570.812 234.884 570.129 235.908L570.124 235.916C569.894 236.261 569.429 236.354 569.084 236.124Z" fill="#141416"/>
<path fill-rule="evenodd" clip-rule="evenodd" d="M622.5 229V223C622.5 221.619 621.381 220.5 620 220.5C618.619 220.5 617.5 221.619 617.5 223V229C617.5 230.381 618.619 231.5 620 231.5C621.381 231.5 622.5 230.381 622.5 229ZM620 219C617.791 219 616 220.791 616 223V229C616 231.209 617.791 233 620 233C622.209 233 624 231.209 624 229V223C624 220.791 622.209 219 620 219Z" fill="#141416"/>
<path fill-rule="evenodd" clip-rule="evenodd" d="M613 227.25C613.414 227.25 613.75 227.586 613.75 228V229C613.75 232.452 616.548 235.25 620 235.25C623.452 235.25 626.25 232.452 626.25 229V228C626.25 227.586 626.586 227.25 627 227.25C627.414 227.25 627.75 227.586 627.75 228V229C627.75 233.28 624.28 236.75 620 236.75C615.72 236.75 612.25 233.28 612.25 229V228C612.25 227.586 612.586 227.25 613 227.25Z" fill="#141416"/>
<path fill-rule="evenodd" clip-rule="evenodd" d="M620 235.25C620.414 235.25 620.75 235.586 620.75 236L620.75 239C620.75 239.414 620.414 239.75 620 239.75C619.586 239.75 619.25 239.414 619.25 239L619.25 236C619.25 235.586 619.586 235.25 620 235.25Z" fill="#141416"/>
<mask id="path-154-inside-1_816_8759" fill="white">
<path fill-rule="evenodd" clip-rule="evenodd" d="M669.091 236.988C669.091 236.982 669.086 236.977 669.08 236.977C666.231 236.719 664 234.365 664 231.5C664 229.159 665.489 227.16 667.587 226.366C667.839 226.271 668.046 226.08 668.154 225.834C669.403 222.99 672.283 221 675.637 221C679.545 221 682.811 223.704 683.6 227.311C683.688 227.713 684.02 228.02 684.422 228.108C686.469 228.558 688 230.353 688 232.5C688 234.985 685.949 237 683.418 237C683.394 237 683.37 237 683.346 236.999C683.346 236.999 683.346 237 683.346 237V237C683.346 237 683.345 237 683.345 237H675.637H669.605C669.603 237 669.602 237 669.6 237C669.598 237 669.597 237 669.595 237H669.103C669.096 237 669.091 236.995 669.091 236.988V236.988Z"/>
</mask>
<path d="M683.6 227.311L681.926 227.678L683.6 227.311ZM684.422 228.108L684.054 229.783L684.422 228.108ZM683.346 236.999L683.32 238.714L683.346 236.999ZM668.154 225.834L666.584 225.144L668.154 225.834ZM669.08 236.977L669.235 235.269L669.08 236.977ZM669.235 235.269C667.235 235.089 665.714 233.445 665.714 231.5H662.286C662.286 235.286 665.227 238.35 668.926 238.684L669.235 235.269ZM665.714 231.5C665.714 229.91 666.726 228.525 668.194 227.969L666.98 224.763C664.252 225.795 662.286 228.408 662.286 231.5H665.714ZM669.723 226.523C670.703 224.293 672.974 222.714 675.637 222.714V219.286C671.592 219.286 668.103 221.688 666.584 225.144L669.723 226.523ZM675.637 222.714C678.743 222.714 681.309 224.861 681.926 227.678L685.275 226.945C684.313 222.547 680.347 219.286 675.637 219.286V222.714ZM684.054 229.783C685.353 230.068 686.286 231.196 686.286 232.5H689.714C689.714 229.511 687.586 227.048 684.789 226.434L684.054 229.783ZM686.286 232.5C686.286 234.01 685.031 235.286 683.418 235.286V238.714C686.866 238.714 689.714 235.961 689.714 232.5H686.286ZM683.418 235.286C683.403 235.286 683.387 235.286 683.372 235.285L683.32 238.714C683.353 238.714 683.385 238.714 683.418 238.714V235.286ZM683.345 235.286H675.637V238.714H683.345V235.286ZM675.637 235.286H669.605V238.714H675.637V235.286ZM669.605 235.286C669.603 235.286 669.602 235.286 669.601 235.286C669.6 235.286 669.6 235.286 669.6 235.286V238.714C669.601 238.714 669.603 238.714 669.603 238.714C669.604 238.714 669.605 238.714 669.605 238.714V235.286ZM669.6 235.286C669.6 235.286 669.6 235.286 669.599 235.286C669.598 235.286 669.597 235.286 669.595 235.286V238.714C669.595 238.714 669.596 238.714 669.597 238.714C669.597 238.714 669.599 238.714 669.6 238.714V235.286ZM669.595 235.286H669.103V238.714H669.595V235.286ZM681.631 237C681.631 236.053 682.399 235.286 683.345 235.286V238.714C684.292 238.714 685.06 237.947 685.06 237H681.631ZM681.926 227.678C682.169 228.79 683.058 229.564 684.054 229.783L684.789 226.434C684.982 226.476 685.207 226.635 685.275 226.945L681.926 227.678ZM683.372 235.285C682.415 235.271 681.631 236.043 681.631 237H685.06C685.06 237.956 684.277 238.728 683.32 238.714L683.372 235.285ZM669.103 235.286C670.043 235.286 670.805 236.048 670.805 236.988H667.377C667.377 237.942 668.149 238.714 669.103 238.714V235.286ZM668.194 227.969C668.858 227.718 669.422 227.209 669.723 226.523L666.584 225.144C666.669 224.952 666.82 224.823 666.98 224.763L668.194 227.969ZM668.926 238.684C668.059 238.606 667.377 237.88 667.377 236.988H670.805C670.805 236.085 670.113 235.349 669.235 235.269L668.926 238.684Z" fill="#141416" mask="url(#path-154-inside-1_816_8759)"/>
<path d="M665 231C665 228.791 667.239 227 670 227C672.761 227 675 228.791 675 231" stroke="#141416" stroke-width="1.5" stroke-linecap="round"/>
<path fill-rule="evenodd" clip-rule="evenodd" d="M732 238.5C737.247 238.5 741.5 234.247 741.5 229C741.5 223.753 737.247 219.5 732 219.5C726.753 219.5 722.5 223.753 722.5 229C722.5 234.247 726.753 238.5 732 238.5ZM732 240C738.075 240 743 235.075 743 229C743 222.925 738.075 218 732 218C725.925 218 721 222.925 721 229C721 235.075 725.925 240 732 240Z" fill="black"/>
<path d="M729.882 232.36C729.752 232.36 729.565 232.41 729.322 232.517C729.416 232.379 729.465 232.235 729.465 232.079V225.257C729.465 225.138 729.403 225.081 729.285 225.081H726.137C726.044 225.075 726.001 225.125 726.001 225.219V226.602C725.994 226.696 726.044 226.746 726.15 226.746H727.282C727.525 226.746 727.755 226.59 727.829 226.552C727.724 226.752 727.668 226.884 727.668 226.953V232.079C727.661 232.191 727.717 232.335 727.829 232.504C727.612 232.41 727.425 232.36 727.282 232.36H726.455C726.336 232.36 726.28 232.423 726.28 232.542V233.768C726.274 233.887 726.336 233.95 726.455 233.95H730.635C730.753 233.95 730.815 233.887 730.815 233.768V232.542C730.815 232.423 730.753 232.36 730.635 232.36H729.882Z" fill="black"/>
<path d="M735.605 234C736.258 234 736.824 233.756 737.297 233.268C737.764 232.786 738 232.197 738 231.515V227.529C738 226.846 737.764 226.252 737.297 225.751C736.824 225.25 736.258 225 735.605 225H734.181C733.534 225 732.974 225.25 732.501 225.751C732.022 226.252 731.786 226.846 731.786 227.529V231.515C731.786 232.197 732.022 232.786 732.501 233.268C732.974 233.756 733.534 234 734.181 234H735.605ZM734.635 232.36C733.988 232.36 733.664 232.01 733.67 231.309V227.735C733.664 227.028 733.988 226.671 734.635 226.671H735.145C735.798 226.671 736.128 227.028 736.128 227.735V231.309C736.128 232.01 735.798 232.36 735.145 232.36H734.635Z" fill="black"/>
<rect x="780.75" y="221.75" width="14.5" height="14.5" rx="2.25" stroke="black" stroke-width="1.5"/>
<path d="M783 237V239" stroke="black" stroke-width="1.5" stroke-linecap="round"/>
<path d="M788 237V239" stroke="black" stroke-width="1.5" stroke-linecap="round"/>
<path d="M793 237V239" stroke="black" stroke-width="1.5" stroke-linecap="round"/>
<path d="M783 219V221" stroke="black" stroke-width="1.5" stroke-linecap="round"/>
<path d="M788 219V221" stroke="black" stroke-width="1.5" stroke-linecap="round"/>
<path d="M793 219V221" stroke="black" stroke-width="1.5" stroke-linecap="round"/>
<path d="M780 224L778 224" stroke="black" stroke-width="1.5" stroke-linecap="round"/>
<path d="M780 229L778 229" stroke="black" stroke-width="1.5" stroke-linecap="round"/>
<path d="M780 234L778 234" stroke="black" stroke-width="1.5" stroke-linecap="round"/>
<path d="M798 224L796 224" stroke="black" stroke-width="1.5" stroke-linecap="round"/>
<path d="M798 229L796 229" stroke="black" stroke-width="1.5" stroke-linecap="round"/>
<path d="M798 234L796 234" stroke="black" stroke-width="1.5" stroke-linecap="round"/>
<rect x="832.75" y="223.75" width="22.5" height="10.5" rx="1.25" stroke="black" stroke-width="1.5"/>
<path d="M838 235V237" stroke="black" stroke-width="1.5" stroke-linecap="round"/>
<path d="M834 235V237" stroke="black" stroke-width="1.5" stroke-linecap="round"/>
<path d="M854 235V237" stroke="black" stroke-width="1.5" stroke-linecap="round"/>
<path d="M842 235V237" stroke="black" stroke-width="1.5" stroke-linecap="round"/>
<path d="M846 235V237" stroke="black" stroke-width="1.5" stroke-linecap="round"/>
<path d="M850 235V237" stroke="black" stroke-width="1.5" stroke-linecap="round"/>
<path d="M838 221V223" stroke="black" stroke-width="1.5" stroke-linecap="round"/>
<path d="M834 221V223" stroke="black" stroke-width="1.5" stroke-linecap="round"/>
<path d="M854 221V223" stroke="black" stroke-width="1.5" stroke-linecap="round"/>
<path d="M842 221V223" stroke="black" stroke-width="1.5" stroke-linecap="round"/>
<path d="M846 221V223" stroke="black" stroke-width="1.5" stroke-linecap="round"/>
<path d="M850 221V223" stroke="black" stroke-width="1.5" stroke-linecap="round"/>
<path fill-rule="evenodd" clip-rule="evenodd" d="M905.5 234V227.304C905.5 226.804 905.251 226.338 904.837 226.059L900.837 223.37C900.331 223.03 899.669 223.03 899.163 223.37L895.163 226.059C894.749 226.338 894.5 226.804 894.5 227.304V234C894.5 234.828 895.172 235.5 896 235.5H904C904.828 235.5 905.5 234.828 905.5 234ZM894.326 224.814C893.497 225.372 893 226.305 893 227.304V234C893 235.657 894.343 237 896 237H904C905.657 237 907 235.657 907 234V227.304C907 226.305 906.503 225.372 905.674 224.814L901.674 222.125C900.662 221.445 899.338 221.445 898.326 222.125L894.326 224.814Z" fill="black"/>
<path fill-rule="evenodd" clip-rule="evenodd" d="M68.8067 280.624L68.1842 279.544C67.6577 278.63 66.4907 278.314 65.5755 278.839C65.1399 279.095 64.6201 279.168 64.1307 279.041C63.6413 278.914 63.2226 278.598 62.9668 278.161C62.8023 277.884 62.7139 277.568 62.7105 277.246C62.7254 276.729 62.5304 276.228 62.17 275.858C61.8096 275.487 61.3145 275.278 60.7975 275.278H59.5435C59.037 275.278 58.5513 275.48 58.194 275.839C57.8367 276.198 57.6372 276.685 57.6396 277.191C57.6246 278.237 56.7725 279.077 55.7266 279.077C55.4042 279.073 55.0885 278.985 54.8112 278.82C53.8961 278.296 52.7291 278.611 52.2025 279.525L51.5343 280.624C51.0084 281.536 51.3194 282.703 52.23 283.232C52.8219 283.574 53.1865 284.206 53.1865 284.889C53.1865 285.573 52.8219 286.204 52.23 286.546C51.3206 287.072 51.0092 288.235 51.5343 289.145L52.1659 290.235C52.4126 290.68 52.8266 291.008 53.3162 291.147C53.8058 291.287 54.3306 291.225 54.7746 290.976C55.2111 290.721 55.7312 290.652 56.2193 290.782C56.7075 290.913 57.1232 291.233 57.3742 291.672C57.5387 291.949 57.6271 292.265 57.6305 292.587C57.6305 293.644 58.487 294.5 59.5435 294.5H60.7975C61.8505 294.5 62.7055 293.649 62.7105 292.596C62.7081 292.088 62.9089 291.6 63.2682 291.241C63.6275 290.881 64.1155 290.681 64.6236 290.683C64.9452 290.692 65.2596 290.78 65.5389 290.939C66.4517 291.465 67.6179 291.154 68.1476 290.244L68.8067 289.145C69.0618 288.707 69.1318 288.186 69.0012 287.696C68.8706 287.207 68.5502 286.789 68.111 286.537C67.6718 286.284 67.3514 285.867 67.2208 285.377C67.0902 284.887 67.1603 284.366 67.4154 283.928C67.5812 283.638 67.8214 283.398 68.111 283.232C69.0161 282.703 69.3264 281.543 68.8067 280.633V280.624Z" stroke="#141416" stroke-width="1.5" stroke-linecap="round" stroke-linejoin="round"/>
<circle cx="60.1751" cy="284.889" r="2.63616" stroke="#141416" stroke-width="1.5" stroke-linecap="round" stroke-linejoin="round"/>
<rect y="1" width="1016" height="344" stroke="#E6E8EC"/>
<defs>
<linearGradient id="paint0_linear_816_8759" x1="622.5" y1="161" x2="615" y2="185" gradientUnits="userSpaceOnUse">
<stop stop-color="#FF7C52"/>
<stop offset="1" stop-color="#EF3D25"/>
</linearGradient>
<clipPath id="clip0_816_8759">
<rect width="24" height="24" fill="white" transform="translate(104 161)"/>
</clipPath>
<clipPath id="clip1_816_8759">
<rect width="24" height="24" fill="white" transform="translate(216 161)"/>
</clipPath>
<clipPath id="clip2_816_8759">
<rect width="24" height="24" fill="white" transform="translate(608 161)"/>
</clipPath>
<clipPath id="clip3_816_8759">
<rect width="24" height="24" fill="white" transform="translate(832 161)"/>
</clipPath>
</defs>
</svg>
