<svg width="584" height="72" viewBox="0 0 584 72" fill="none" xmlns="http://www.w3.org/2000/svg">
<g clip-path="url(#clip0_1522_17228)">
<path d="M39.698 34.7559C40.0885 35.1464 40.0885 35.7796 39.698 36.1701C39.3075 36.5606 38.6743 36.5606 38.2838 36.1701C37.8932 35.7796 37.8932 35.1464 38.2838 34.7559C38.6743 34.3654 39.3075 34.3654 39.698 34.7559Z" fill="#141416"/>
<path d="M42.0076 32.4459C42.294 32.1595 42.2967 31.69 41.9715 31.4485C41.6426 31.2043 41.2842 31.0009 40.9041 30.8434C40.2975 30.5922 39.6473 30.4628 38.9907 30.4628C38.3341 30.4628 37.6839 30.5922 37.0773 30.8434C36.6971 31.0009 36.3387 31.2043 36.0099 31.4485C35.6847 31.69 35.6873 32.1595 35.9737 32.4459V32.4459C36.2602 32.7323 36.7216 32.7245 37.0609 32.5033C37.2432 32.3844 37.4365 32.2823 37.6386 32.1986C38.0673 32.0211 38.5267 31.9297 38.9907 31.9297C39.4547 31.9297 39.9141 32.0211 40.3428 32.1986C40.5448 32.2823 40.7382 32.3844 40.9205 32.5033C41.2598 32.7245 41.7212 32.7323 42.0076 32.4459V32.4459Z" fill="#141416"/>
<path d="M44.8395 29.614C45.124 29.3295 45.1258 28.8657 44.8192 28.6051C44.1063 27.9992 43.302 27.5071 42.4348 27.1479C41.3429 26.6956 40.1726 26.4629 38.9907 26.4629C37.8088 26.4629 36.6385 26.6956 35.5465 27.1479C34.6794 27.5071 33.8751 27.9992 33.1622 28.6051C32.8556 28.8657 32.8574 29.3295 33.1419 29.614V29.614C33.4264 29.8986 33.8856 29.8954 34.1962 29.6397C34.771 29.1664 35.4138 28.78 36.1041 28.4941C37.0193 28.115 38.0001 27.9199 38.9907 27.9199C39.9812 27.9199 40.9621 28.115 41.8772 28.4941C42.5676 28.78 43.2103 29.1664 43.7851 29.6397C44.0958 29.8954 44.555 29.8986 44.8395 29.614V29.614Z" fill="#141416"/>
<path d="M47.6791 26.7747C47.9575 26.4963 47.9588 26.0433 47.6655 25.7806C46.5738 24.8024 45.3231 24.0148 43.9657 23.4526C42.3885 22.7992 40.698 22.463 38.9908 22.463C37.2836 22.463 35.5932 22.7992 34.0159 23.4526C32.6585 24.0148 31.4079 24.8024 30.3161 25.7806C30.0229 26.0433 30.0241 26.4963 30.3025 26.7747V26.7747C30.5809 27.0531 31.0309 27.0513 31.3259 26.7905C32.2841 25.9437 33.3772 25.2604 34.5616 24.7698C35.9658 24.1882 37.4709 23.8888 38.9908 23.8888C40.5108 23.8888 42.0158 24.1882 43.4201 24.7698C44.6045 25.2604 45.6976 25.9437 46.6557 26.7905C46.9507 27.0513 47.4007 27.0531 47.6791 26.7747V26.7747Z" fill="#141416"/>
<path fill-rule="evenodd" clip-rule="evenodd" d="M21.25 43C21.25 41.4812 22.4812 40.25 24 40.25H48C49.5188 40.25 50.75 41.4812 50.75 43V48C50.75 49.5188 49.5188 50.75 48 50.75H24C22.4812 50.75 21.25 49.5188 21.25 48V43ZM24 41.75C23.3096 41.75 22.75 42.3096 22.75 43V48C22.75 48.6904 23.3096 49.25 24 49.25H48C48.6904 49.25 49.25 48.6904 49.25 48V43C49.25 42.3096 48.6904 41.75 48 41.75H24Z" fill="#141416"/>
<path fill-rule="evenodd" clip-rule="evenodd" d="M27 30.25C27.4142 30.25 27.75 30.5858 27.75 31L27.75 41C27.75 41.4142 27.4142 41.75 27 41.75C26.5858 41.75 26.25 41.4142 26.25 41L26.25 31C26.25 30.5858 26.5858 30.25 27 30.25Z" fill="#141416"/>
<path d="M29 45.5C29 46.3284 28.3284 47 27.5 47C26.6716 47 26 46.3284 26 45.5C26 44.6716 26.6716 44 27.5 44C28.3284 44 29 44.6716 29 45.5Z" fill="#141416"/>
</g>
<path fill-rule="evenodd" clip-rule="evenodd" d="M96 38.5H91C90.1716 38.5 89.5 39.1716 89.5 40V45C89.5 45.8284 90.1716 46.5 91 46.5H96C96.8284 46.5 97.5 45.8284 97.5 45V40C97.5 39.1716 96.8284 38.5 96 38.5ZM91 37C89.3431 37 88 38.3431 88 40V45C88 46.6569 89.3431 48 91 48H96C97.6569 48 99 46.6569 99 45V40C99 38.3431 97.6569 37 96 37H91Z" fill="#141416"/>
<path fill-rule="evenodd" clip-rule="evenodd" d="M96 25.5H91C90.1716 25.5 89.5 26.1716 89.5 27V32C89.5 32.8284 90.1716 33.5 91 33.5H96C96.8284 33.5 97.5 32.8284 97.5 32V27C97.5 26.1716 96.8284 25.5 96 25.5ZM91 24C89.3431 24 88 25.3431 88 27V32C88 33.6569 89.3431 35 91 35H96C97.6569 35 99 33.6569 99 32V27C99 25.3431 97.6569 24 96 24H91Z" fill="#141416"/>
<path fill-rule="evenodd" clip-rule="evenodd" d="M109 38.5H104C103.172 38.5 102.5 39.1716 102.5 40V45C102.5 45.8284 103.172 46.5 104 46.5H109C109.828 46.5 110.5 45.8284 110.5 45V40C110.5 39.1716 109.828 38.5 109 38.5ZM104 37C102.343 37 101 38.3431 101 40V45C101 46.6569 102.343 48 104 48H109C110.657 48 112 46.6569 112 45V40C112 38.3431 110.657 37 109 37H104Z" fill="#141416"/>
<path fill-rule="evenodd" clip-rule="evenodd" d="M108 23.25C108.414 23.25 108.75 23.5858 108.75 24L108.75 32C108.75 32.4142 108.414 32.75 108 32.75C107.586 32.75 107.25 32.4142 107.25 32L107.25 24C107.25 23.5858 107.586 23.25 108 23.25Z" fill="#141416"/>
<path fill-rule="evenodd" clip-rule="evenodd" d="M112.75 28C112.75 28.4142 112.414 28.75 112 28.75H104C103.586 28.75 103.25 28.4142 103.25 28C103.25 27.5858 103.586 27.25 104 27.25H112C112.414 27.25 112.75 27.5858 112.75 28Z" fill="#141416"/>
<path fill-rule="evenodd" clip-rule="evenodd" d="M167.25 23C167.25 22.5858 167.586 22.25 168 22.25L178 22.25C178.414 22.25 178.75 22.5858 178.75 23C178.75 23.4142 178.414 23.75 178 23.75L168 23.75C167.586 23.75 167.25 23.4142 167.25 23Z" fill="#141416"/>
<path fill-rule="evenodd" clip-rule="evenodd" d="M173 22.25C173.414 22.25 173.75 22.5858 173.75 23L173.75 27C173.75 27.4142 173.414 27.75 173 27.75C172.586 27.75 172.25 27.4142 172.25 27L172.25 23C172.25 22.5858 172.586 22.25 173 22.25Z" fill="#141416"/>
<path fill-rule="evenodd" clip-rule="evenodd" d="M173 39.5C176.038 39.5 178.5 37.0376 178.5 34C178.5 30.9624 176.038 28.5 173 28.5C169.962 28.5 167.5 30.9624 167.5 34C167.5 37.0376 169.962 39.5 173 39.5ZM173 41C176.866 41 180 37.866 180 34C180 30.134 176.866 27 173 27C169.134 27 166 30.134 166 34C166 37.866 169.134 41 173 41Z" fill="#141416"/>
<path d="M173 35C172.448 35 172 34.5523 172 34C172 33.4477 172.448 33 173 33C173.552 33 174 33.4477 174 34C174 34.5523 173.552 35 173 35Z" fill="#141416"/>
<path d="M157.5 42C156.948 42 156.5 41.5523 156.5 41C156.5 40.4477 156.948 40 157.5 40C158.052 40 158.5 40.4477 158.5 41C158.5 41.5523 158.052 42 157.5 42Z" fill="#141416"/>
<path fill-rule="evenodd" clip-rule="evenodd" d="M164 45.5H151C150.172 45.5 149.5 46.1716 149.5 47V48.5H165.5V47C165.5 46.1716 164.828 45.5 164 45.5ZM151 44C149.343 44 148 45.3431 148 47V49C148 49.5523 148.448 50 149 50H166C166.552 50 167 49.5523 167 49V47C167 45.3431 165.657 44 164 44H151Z" fill="#141416"/>
<path fill-rule="evenodd" clip-rule="evenodd" d="M163.311 45C163.434 44.5206 163.5 44.0179 163.5 43.5C163.5 40.1863 160.814 37.5 157.5 37.5C154.186 37.5 151.5 40.1863 151.5 43.5C151.5 44.0179 151.566 44.5206 151.689 45H150.15C150.052 44.5153 150 44.0137 150 43.5C150 39.3579 153.358 36 157.5 36C161.642 36 165 39.3579 165 43.5C165 44.0137 164.948 44.5153 164.85 45H163.311Z" fill="#141416"/>
<path fill-rule="evenodd" clip-rule="evenodd" d="M234.5 32.5V43.5H242.5V32.5H234.5ZM234 31C233.448 31 233 31.4477 233 32V44C233 44.5523 233.448 45 234 45H243C243.552 45 244 44.5523 244 44V32C244 31.4477 243.552 31 243 31H234Z" fill="#141416"/>
<path fill-rule="evenodd" clip-rule="evenodd" d="M223.25 44C223.25 43.5858 223.586 43.25 224 43.25H231C231.414 43.25 231.75 43.5858 231.75 44C231.75 44.4142 231.414 44.75 231 44.75H224C223.586 44.75 223.25 44.4142 223.25 44Z" fill="#141416"/>
<path fill-rule="evenodd" clip-rule="evenodd" d="M220.25 41C220.25 40.5858 220.586 40.25 221 40.25L231 40.25C231.414 40.25 231.75 40.5858 231.75 41C231.75 41.4142 231.414 41.75 231 41.75L221 41.75C220.586 41.75 220.25 41.4142 220.25 41Z" fill="#141416"/>
<path d="M229.044 33.7396L226.449 32.2565C226.249 32.1422 226 32.2866 226 32.517V35.4831C226 35.7134 226.249 35.8578 226.449 35.7436L229.044 34.2605C229.246 34.1453 229.246 33.8547 229.044 33.7396Z" fill="#141416"/>
<path fill-rule="evenodd" clip-rule="evenodd" d="M217.75 26.75V34.5C217.75 34.9142 217.414 35.25 217 35.25C216.586 35.25 216.25 34.9142 216.25 34.5V26.3C216.25 25.7201 216.72 25.25 217.3 25.25H237.7C238.28 25.25 238.75 25.7201 238.75 26.3V29.5C238.75 29.9142 238.414 30.25 238 30.25C237.586 30.25 237.25 29.9142 237.25 29.5V26.75H217.75Z" fill="#141416"/>
<path fill-rule="evenodd" clip-rule="evenodd" d="M213.5 37.5V46.5H217.5V37.5H213.5ZM213 36C212.448 36 212 36.4477 212 37V47C212 47.5523 212.448 48 213 48H218C218.552 48 219 47.5523 219 47V37C219 36.4477 218.552 36 218 36H213Z" fill="#141416"/>
<path fill-rule="evenodd" clip-rule="evenodd" d="M301 38.5H294C291.515 38.5 289.5 40.5147 289.5 43V44C289.5 46.4853 291.515 48.5 294 48.5H301C303.485 48.5 305.5 46.4853 305.5 44V43C305.5 40.5147 303.485 38.5 301 38.5ZM294 37C290.686 37 288 39.6863 288 43V44C288 47.3137 290.686 50 294 50H301C304.314 50 307 47.3137 307 44V43C307 39.6863 304.314 37 301 37H294Z" fill="#141416"/>
<path d="M287 33.4394V30.5605C287 30.3209 287.267 30.178 287.466 30.3109L289.626 31.7503C289.804 31.8691 289.804 32.1308 289.626 32.2496L287.466 33.689C287.267 33.8219 287 33.679 287 33.4394Z" fill="#141416"/>
<path fill-rule="evenodd" clip-rule="evenodd" d="M278.25 25C278.25 23.4812 279.481 22.25 281 22.25H295C296.519 22.25 297.75 23.4812 297.75 25V35C297.75 35.4142 297.414 35.75 297 35.75C296.586 35.75 296.25 35.4142 296.25 35V25C296.25 24.3096 295.69 23.75 295 23.75H281C280.31 23.75 279.75 24.3096 279.75 25V39C279.75 39.6904 280.31 40.25 281 40.25H286C286.414 40.25 286.75 40.5858 286.75 41C286.75 41.4142 286.414 41.75 286 41.75H281C279.481 41.75 278.25 40.5188 278.25 39V25Z" fill="#141416"/>
<path d="M302 43.5C302 44.3284 301.328 45 300.5 45C299.672 45 299 44.3284 299 43.5C299 42.6716 299.672 42 300.5 42C301.328 42 302 42.6716 302 43.5Z" fill="#141416"/>
<path fill-rule="evenodd" clip-rule="evenodd" d="M351.25 44C351.25 43.5858 351.586 43.25 352 43.25H359C359.414 43.25 359.75 43.5858 359.75 44C359.75 44.4142 359.414 44.75 359 44.75H352C351.586 44.75 351.25 44.4142 351.25 44Z" fill="#141416"/>
<path fill-rule="evenodd" clip-rule="evenodd" d="M348.25 41C348.25 40.5858 348.586 40.25 349 40.25L359 40.25C359.414 40.25 359.75 40.5858 359.75 41C359.75 41.4142 359.414 41.75 359 41.75L349 41.75C348.586 41.75 348.25 41.4142 348.25 41Z" fill="#141416"/>
<path d="M357.044 33.7396L354.449 32.2565C354.249 32.1422 354 32.2866 354 32.517V35.4831C354 35.7134 354.249 35.8578 354.449 35.7436L357.044 34.2605C357.246 34.1453 357.246 33.8547 357.044 33.7396Z" fill="#141416"/>
<path fill-rule="evenodd" clip-rule="evenodd" d="M345.75 26.75V34.5C345.75 34.9142 345.414 35.25 345 35.25C344.586 35.25 344.25 34.9142 344.25 34.5V26.3C344.25 25.7201 344.72 25.25 345.3 25.25H365.7C366.28 25.25 366.75 25.7201 366.75 26.3V29.5C366.75 29.9142 366.414 30.25 366 30.25C365.586 30.25 365.25 29.9142 365.25 29.5V26.75H345.75Z" fill="#141416"/>
<rect x="362" y="35" width="10" height="10" fill="#D9D9D9"/>
<g clip-path="url(#clip1_1522_17228)">
<path d="M423.698 34.7559C424.089 35.1464 424.089 35.7796 423.698 36.1701C423.307 36.5606 422.674 36.5606 422.284 36.1701C421.893 35.7796 421.893 35.1464 422.284 34.7559C422.674 34.3654 423.307 34.3654 423.698 34.7559Z" fill="#141416"/>
<path d="M426.008 32.4459C426.294 32.1595 426.297 31.69 425.971 31.4485C425.643 31.2043 425.284 31.0009 424.904 30.8434C424.297 30.5922 423.647 30.4628 422.991 30.4628C422.334 30.4628 421.684 30.5922 421.077 30.8434C420.697 31.0009 420.339 31.2043 420.01 31.4485C419.685 31.69 419.687 32.1595 419.974 32.4459V32.4459C420.26 32.7323 420.722 32.7245 421.061 32.5033C421.243 32.3844 421.437 32.2823 421.639 32.1986C422.067 32.0211 422.527 31.9297 422.991 31.9297C423.455 31.9297 423.914 32.0211 424.343 32.1986C424.545 32.2823 424.738 32.3844 424.92 32.5033C425.26 32.7245 425.721 32.7323 426.008 32.4459V32.4459Z" fill="#141416"/>
<path d="M428.84 29.614C429.124 29.3295 429.126 28.8657 428.819 28.6051C428.106 27.9992 427.302 27.5071 426.435 27.1479C425.343 26.6956 424.173 26.4629 422.991 26.4629C421.809 26.4629 420.638 26.6956 419.547 27.1479C418.679 27.5071 417.875 27.9992 417.162 28.6051C416.856 28.8657 416.857 29.3295 417.142 29.614V29.614C417.426 29.8986 417.886 29.8954 418.196 29.6397C418.771 29.1664 419.414 28.78 420.104 28.4941C421.019 28.115 422 27.9199 422.991 27.9199C423.981 27.9199 424.962 28.115 425.877 28.4941C426.568 28.78 427.21 29.1664 427.785 29.6397C428.096 29.8954 428.555 29.8986 428.84 29.614V29.614Z" fill="#141416"/>
<path d="M431.679 26.7747C431.958 26.4963 431.959 26.0433 431.666 25.7806C430.574 24.8024 429.323 24.0148 427.966 23.4526C426.388 22.7992 424.698 22.463 422.991 22.463C421.284 22.463 419.593 22.7992 418.016 23.4526C416.659 24.0148 415.408 24.8024 414.316 25.7806C414.023 26.0433 414.024 26.4963 414.303 26.7747V26.7747C414.581 27.0531 415.031 27.0513 415.326 26.7905C416.284 25.9437 417.377 25.2604 418.562 24.7698C419.966 24.1882 421.471 23.8888 422.991 23.8888C424.511 23.8888 426.016 24.1882 427.42 24.7698C428.604 25.2604 429.698 25.9437 430.656 26.7905C430.951 27.0513 431.401 27.0531 431.679 26.7747V26.7747Z" fill="#141416"/>
<path fill-rule="evenodd" clip-rule="evenodd" d="M417.824 36.8096C417.882 36.4554 418.216 36.2153 418.57 36.2734C419.903 36.4921 420.92 37.6471 420.92 39.0419L420.92 39.0432C420.917 40.4582 419.868 41.6249 418.506 41.8163C418.151 41.8662 417.822 41.6186 417.772 41.2631C417.722 40.9076 417.97 40.5789 418.325 40.5289C419.056 40.4263 419.618 39.7994 419.62 39.0412C419.619 38.2942 419.075 37.6736 418.36 37.5563C418.006 37.4982 417.766 37.1639 417.824 36.8096Z" fill="#141416"/>
<path fill-rule="evenodd" clip-rule="evenodd" d="M419.153 43.5917C419.207 43.2367 419.537 42.9919 419.892 43.045C420.434 43.1259 420.973 43.2705 421.393 43.5456C421.845 43.8422 422.167 44.3024 422.167 44.9253C422.167 45.3356 422.026 45.6963 421.77 45.9853C421.527 46.2607 421.205 46.4431 420.877 46.5683C420.542 46.6963 420.166 46.5282 420.038 46.1928C419.91 45.8574 420.078 45.4818 420.414 45.3538C420.624 45.2735 420.738 45.1896 420.796 45.1244C420.842 45.0727 420.867 45.0182 420.867 44.9253C420.867 44.8169 420.835 44.7341 420.68 44.6327C420.493 44.5098 420.172 44.4012 419.7 44.3307C419.345 44.2776 419.1 43.9467 419.153 43.5917Z" fill="#141416"/>
<path fill-rule="evenodd" clip-rule="evenodd" d="M410.57 43.7466C411.49 43.4378 412.696 43.3479 413.915 43.3479C415.141 43.3479 416.347 43.4409 417.267 43.7535C417.73 43.911 418.168 44.1396 418.496 44.4832C418.839 44.8425 419.033 45.2996 419.033 45.8347C419.033 46.3711 418.837 46.8282 418.492 47.1861C418.162 47.5279 417.723 47.7539 417.259 47.9089C416.339 48.2167 415.134 48.3056 413.915 48.3056C412.689 48.3056 411.483 48.213 410.563 47.9011C410.1 47.744 409.661 47.5158 409.333 47.1727C408.99 46.8138 408.796 46.3569 408.796 45.8219C408.796 45.2855 408.992 44.8284 409.337 44.4705C409.666 44.1285 410.106 43.9021 410.57 43.7466ZM410.273 45.3725C410.157 45.4933 410.096 45.6289 410.096 45.8219C410.096 46.0159 410.157 46.1528 410.273 46.2744C410.404 46.4117 410.629 46.5509 410.98 46.67C411.689 46.9104 412.718 47.0056 413.915 47.0056C415.107 47.0056 416.136 46.9139 416.847 46.676C417.199 46.5582 417.425 46.4201 417.556 46.2837C417.672 46.1633 417.733 46.0279 417.733 45.8347C417.733 45.64 417.672 45.5026 417.556 45.3807C417.424 45.243 417.2 45.1037 416.849 44.9844C416.14 44.7435 415.112 44.6479 413.915 44.6479C412.724 44.6479 411.694 44.7406 410.983 44.9791C410.631 45.0973 410.405 45.2357 410.273 45.3725Z" fill="#141416"/>
<path fill-rule="evenodd" clip-rule="evenodd" d="M410.401 39.0505C410.401 37.1103 411.975 35.5375 413.915 35.5375C415.856 35.5375 417.429 37.111 417.429 39.0517C417.429 40.9933 415.856 42.566 413.915 42.566H413.892C411.956 42.5595 410.394 40.9853 410.401 39.0505ZM410.401 39.0505C410.401 39.0501 410.401 39.0497 410.401 39.0493L411.051 39.0517H410.401C410.401 39.0513 410.401 39.0509 410.401 39.0505ZM413.915 36.8375C412.692 36.8375 411.701 37.829 411.701 39.0517V39.0542C411.696 40.2714 412.678 41.2613 413.895 41.266H413.915C415.138 41.266 416.129 40.2751 416.129 39.0517C416.129 37.829 415.138 36.8375 413.915 36.8375Z" fill="#141416"/>
<path fill-rule="evenodd" clip-rule="evenodd" d="M410.005 36.8096C410.063 37.1639 409.823 37.4982 409.469 37.5563C408.754 37.6736 408.21 38.2942 408.209 39.0412C408.211 39.7996 408.773 40.4263 409.504 40.5289C409.859 40.5788 410.107 40.9075 410.057 41.263C410.007 41.6185 409.679 41.8662 409.323 41.8163C407.96 41.6249 406.912 40.458 406.909 39.0432L406.909 39.0419C406.909 37.6471 407.926 36.4921 409.259 36.2734C409.613 36.2153 409.947 36.4554 410.005 36.8096Z" fill="#141416"/>
<path fill-rule="evenodd" clip-rule="evenodd" d="M408.676 43.5917C408.729 43.9467 408.484 44.2776 408.129 44.3307C407.657 44.4012 407.336 44.5098 407.149 44.6327C406.994 44.7341 406.962 44.8169 406.962 44.9253C406.962 45.0182 406.988 45.0727 407.033 45.1244C407.091 45.1896 407.205 45.2735 407.416 45.3538C407.751 45.4818 407.919 45.8574 407.791 46.1928C407.663 46.5282 407.287 46.6963 406.952 46.5683C406.624 46.4431 406.303 46.2607 406.059 45.9853C405.804 45.6963 405.662 45.3356 405.662 44.9253C405.662 44.3024 405.984 43.8422 406.436 43.5456C406.856 43.2705 407.395 43.1259 407.937 43.045C408.292 42.9919 408.623 43.2367 408.676 43.5917Z" fill="#141416"/>
</g>
<g clip-path="url(#clip2_1522_17228)">
<path d="M487.698 34.7559C488.089 35.1464 488.089 35.7796 487.698 36.1701C487.307 36.5606 486.674 36.5606 486.284 36.1701C485.893 35.7796 485.893 35.1464 486.284 34.7559C486.674 34.3654 487.307 34.3654 487.698 34.7559Z" fill="#141416"/>
<path d="M490.008 32.4459C490.294 32.1595 490.297 31.69 489.971 31.4485C489.643 31.2043 489.284 31.0009 488.904 30.8434C488.297 30.5922 487.647 30.4628 486.991 30.4628C486.334 30.4628 485.684 30.5922 485.077 30.8434C484.697 31.0009 484.339 31.2043 484.01 31.4485C483.685 31.69 483.687 32.1595 483.974 32.4459V32.4459C484.26 32.7323 484.722 32.7245 485.061 32.5033C485.243 32.3844 485.437 32.2823 485.639 32.1986C486.067 32.0211 486.527 31.9297 486.991 31.9297C487.455 31.9297 487.914 32.0211 488.343 32.1986C488.545 32.2823 488.738 32.3844 488.92 32.5033C489.26 32.7245 489.721 32.7323 490.008 32.4459V32.4459Z" fill="#141416"/>
<path d="M492.84 29.614C493.124 29.3295 493.126 28.8657 492.819 28.6051C492.106 27.9992 491.302 27.5071 490.435 27.1479C489.343 26.6956 488.173 26.4629 486.991 26.4629C485.809 26.4629 484.638 26.6956 483.547 27.1479C482.679 27.5071 481.875 27.9992 481.162 28.6051C480.856 28.8657 480.857 29.3295 481.142 29.614V29.614C481.426 29.8986 481.886 29.8954 482.196 29.6397C482.771 29.1664 483.414 28.78 484.104 28.4941C485.019 28.115 486 27.9199 486.991 27.9199C487.981 27.9199 488.962 28.115 489.877 28.4941C490.568 28.78 491.21 29.1664 491.785 29.6397C492.096 29.8954 492.555 29.8986 492.84 29.614V29.614Z" fill="#141416"/>
<path d="M495.679 26.7747C495.958 26.4963 495.959 26.0433 495.666 25.7806C494.574 24.8024 493.323 24.0148 491.966 23.4526C490.388 22.7992 488.698 22.463 486.991 22.463C485.284 22.463 483.593 22.7992 482.016 23.4526C480.659 24.0148 479.408 24.8024 478.316 25.7806C478.023 26.0433 478.024 26.4963 478.303 26.7747V26.7747C478.581 27.0531 479.031 27.0513 479.326 26.7905C480.284 25.9437 481.377 25.2604 482.562 24.7698C483.966 24.1882 485.471 23.8888 486.991 23.8888C488.511 23.8888 490.016 24.1882 491.42 24.7698C492.604 25.2604 493.698 25.9437 494.656 26.7905C494.951 27.0513 495.401 27.0531 495.679 26.7747V26.7747Z" fill="#141416"/>
<path fill-rule="evenodd" clip-rule="evenodd" d="M474.005 44.3322C475.092 43.9679 476.524 43.8596 477.989 43.8596C479.462 43.8596 480.895 43.9721 481.98 44.3412C482.526 44.5269 483.031 44.793 483.406 45.1855C483.795 45.5937 484.016 46.1112 484.016 46.7203C484.016 47.3309 483.793 47.8482 483.402 48.2549C483.025 48.6456 482.518 48.9092 481.972 49.0925C480.885 49.4569 479.453 49.5653 477.989 49.5653C476.516 49.5653 475.082 49.453 473.997 49.084C473.451 48.8984 472.945 48.6323 472.571 48.2398C472.181 47.8315 471.961 47.3139 471.961 46.7046C471.961 46.0939 472.183 45.5765 472.575 45.1697C472.951 44.7789 473.459 44.5154 474.005 44.3322ZM473.511 46.0716C473.348 46.2411 473.261 46.4371 473.261 46.7046C473.261 46.9735 473.348 47.1714 473.511 47.3423C473.689 47.5289 473.981 47.7058 474.415 47.8532C475.29 48.1505 476.545 48.2653 477.989 48.2653C479.425 48.2653 480.681 48.1541 481.558 47.86C481.993 47.714 482.287 47.5385 482.465 47.3531C482.629 47.1836 482.716 46.9877 482.716 46.7203C482.716 46.4516 482.628 46.2538 482.465 46.0829C482.287 45.8963 481.995 45.7195 481.561 45.572C480.687 45.2746 479.432 45.1596 477.989 45.1596C476.552 45.1596 475.296 45.2706 474.418 45.5647C473.983 45.7107 473.69 45.8862 473.511 46.0716Z" fill="#141416"/>
<path fill-rule="evenodd" clip-rule="evenodd" d="M473.891 38.5561C473.892 36.2939 475.727 34.4608 477.989 34.4608C480.251 34.4608 482.085 36.2947 482.085 38.5572C482.085 40.8196 480.251 42.6544 477.989 42.6544H477.962C475.707 42.6467 473.884 40.8116 473.891 38.5561ZM473.891 38.5561C473.891 38.5558 473.891 38.5554 473.891 38.555L474.541 38.5572H473.891C473.891 38.5569 473.891 38.5565 473.891 38.5561ZM477.989 35.7608C476.444 35.7608 475.191 37.0128 475.191 38.5572V38.5594C475.186 40.0974 476.429 41.3486 477.965 41.3544H477.989C479.533 41.3544 480.785 40.102 480.785 38.5572C480.785 37.0127 479.533 35.7608 477.989 35.7608Z" fill="#141416"/>
</g>
<g clip-path="url(#clip3_1522_17228)">
<path d="M533 39.033V30.566C533 30.3438 533.044 30.1941 533.134 30.1169C533.224 30.0398 533.395 30 533.649 30H533.84C534.093 30 534.268 30.0398 534.355 30.1169C534.445 30.1941 534.489 30.3438 534.489 30.566V38.8318C534.489 39.1101 534.56 39.309 534.699 39.4329C534.838 39.5545 535.069 39.6154 535.386 39.6154H539.707C539.95 39.6154 540.108 39.6481 540.184 39.7159C540.261 39.7814 540.299 39.9218 540.299 40.1323V40.3147C540.299 40.5252 540.261 40.6655 540.184 40.731C540.108 40.7965 539.947 40.8316 539.707 40.8316H535.064C534.336 40.8316 533.813 40.6866 533.485 40.3989C533.164 40.1112 533 39.6551 533 39.033Z" fill="#141416"/>
<path d="M541.548 37.3817V30.566C541.548 30.3438 541.591 30.1941 541.681 30.1169C541.771 30.0398 541.943 30 542.199 30H542.39C542.646 30 542.818 30.0398 542.905 30.1169C542.995 30.1941 543.039 30.3438 543.039 30.566V37.3817C543.039 38.2377 543.293 38.8505 543.805 39.2224C544.315 39.5943 545.125 39.7814 546.235 39.7814C547.344 39.7814 548.154 39.5966 548.664 39.2224C549.174 38.8505 549.43 38.2354 549.43 37.3817V30.566C549.43 30.3438 549.474 30.1941 549.564 30.1169C549.648 30.0398 549.823 30 550.076 30H550.267C550.521 30 550.695 30.0398 550.782 30.1169C550.872 30.1941 550.916 30.3438 550.916 30.566V37.3817C550.916 39.7931 549.354 40.9977 546.232 40.9977C543.11 41 541.548 39.7931 541.548 37.3817Z" fill="#141416"/>
<path d="M562.482 30.5989C562.61 30.3767 562.648 30.227 562.596 30.1498C562.545 30.0726 562.373 30.0328 562.081 30.0328H561.89C561.596 30.0328 561.38 30.0726 561.241 30.1498C561.1 30.227 560.966 30.3767 560.841 30.5989L560.628 30.9848C561.089 31.1345 561.525 31.3239 561.937 31.5485L562.482 30.5989Z" fill="#141416"/>
<path d="M555.235 30.5989C555.107 30.3767 554.973 30.227 554.834 30.1498C554.692 30.0726 554.477 30.0328 554.185 30.0328H553.994C553.7 30.0328 553.528 30.0726 553.479 30.1498C553.427 30.227 553.466 30.3767 553.594 30.5989L554.136 31.5391C554.548 31.3169 554.987 31.1275 555.448 30.9778L555.235 30.5989Z" fill="#141416"/>
<path d="M562.864 40.2983L560.663 36.5326C560.598 36.411 560.532 36.2987 560.464 36.1935C560.312 35.8754 560.08 35.5924 559.788 35.3655C559.717 35.307 559.649 35.2579 559.578 35.2182C559.537 35.1924 559.496 35.1667 559.453 35.1433C559.041 34.9118 558.553 34.7784 558.027 34.7784C557.503 34.7784 557.015 34.9118 556.606 35.141C556.535 35.1807 556.467 35.2228 556.402 35.2673C556.334 35.3117 556.268 35.3608 556.203 35.417C555.936 35.6415 555.72 35.9128 555.578 36.2192C555.516 36.3151 555.453 36.4204 555.385 36.5326L553.204 40.2983C553.075 40.5205 553.037 40.6702 553.089 40.7474C553.141 40.8246 553.313 40.8643 553.604 40.8643H553.814C554.106 40.8643 554.324 40.8246 554.463 40.7474C554.602 40.6702 554.736 40.5205 554.864 40.2983L555.897 38.4435L556.833 36.7665C556.849 36.7385 556.865 36.7127 556.882 36.6847C556.92 36.6215 556.955 36.5607 556.988 36.5022C556.988 36.5022 556.988 36.4999 556.991 36.4999C557.212 36.2029 557.593 36.0064 558.029 36.0064C558.496 36.0064 558.902 36.2309 559.112 36.5654C559.147 36.6285 559.186 36.6964 559.224 36.7665L560.153 38.4365L561.192 40.3007C561.32 40.5229 561.454 40.6726 561.593 40.7497C561.732 40.8269 561.95 40.8667 562.242 40.8667H562.452C562.746 40.8667 562.918 40.8269 562.967 40.7497C563.03 40.6702 562.992 40.5205 562.864 40.2983Z" fill="#141416"/>
<path d="M561.389 32.4933L561.484 32.3296C561.555 32.2056 561.503 32.0559 561.367 31.9881C561.031 31.8197 560.677 31.6747 560.309 31.5577C559.595 31.3309 558.826 31.2069 558.021 31.2069C557.225 31.2069 556.462 31.3285 555.756 31.5507C555.388 31.6677 555.033 31.8104 554.698 31.9788C554.561 32.0466 554.51 32.1986 554.581 32.3202L554.673 32.4816C554.864 32.8114 555.325 32.9401 555.707 32.7787C556.405 32.4816 557.19 32.3156 558.016 32.3156C558.853 32.3156 559.646 32.4863 560.35 32.788C560.734 32.9518 561.198 32.8255 561.389 32.4933Z" fill="black" fill-opacity="0.5"/>
<path d="M560.129 34.0323L560.211 33.8966C560.293 33.761 560.23 33.5949 560.072 33.5247C559.845 33.4241 559.608 33.3399 559.363 33.2745L559.366 33.2721C558.943 33.1575 558.493 33.0944 558.024 33.0944C557.563 33.0944 557.122 33.1552 556.704 33.2651C556.456 33.3306 556.219 33.4148 555.993 33.5154C555.835 33.5855 555.772 33.7516 555.854 33.8873L555.936 34.0206C556.086 34.2708 556.432 34.3808 556.732 34.2708C557.127 34.1235 557.563 34.0416 558.021 34.0416C558.482 34.0416 558.921 34.1235 559.322 34.2732C559.622 34.3878 559.974 34.2872 560.129 34.0323Z" fill="black" fill-opacity="0.5"/>
</g>
<rect x="0.5" y="0.5" width="583" height="71" rx="4.5" stroke="#9747FF" stroke-dasharray="10 5"/>
<defs>
<clipPath id="clip0_1522_17228">
<rect width="32" height="32" fill="white" transform="translate(20 20)"/>
</clipPath>
<clipPath id="clip1_1522_17228">
<rect width="32" height="32" fill="white" transform="translate(404 20)"/>
</clipPath>
<clipPath id="clip2_1522_17228">
<rect width="32" height="32" fill="white" transform="translate(468 20)"/>
</clipPath>
<clipPath id="clip3_1522_17228">
<rect width="30" height="11" fill="white" transform="translate(533 30)"/>
</clipPath>
</defs>
</svg>
