<svg width="960" height="120" viewBox="0 0 960 120" fill="none" xmlns="http://www.w3.org/2000/svg">
<path fill-rule="evenodd" clip-rule="evenodd" d="M51.1013 53.25H67.6036C69.3193 53.25 70.6161 54.8039 70.3092 56.4919L69.0365 63.4919C68.7987 64.7995 67.6599 65.75 66.3308 65.75H55.6691C54.3401 65.75 53.2012 64.7995 52.9635 63.4919L51.1013 53.25ZM52.8986 54.75L54.4393 63.2236C54.5474 63.818 55.065 64.25 55.6691 64.25H66.3308C66.9349 64.25 67.4526 63.818 67.5607 63.2236L68.8334 56.2236C68.9729 55.4563 68.3834 54.75 67.6036 54.75H52.8986Z" fill="#141416"/>
<path fill-rule="evenodd" clip-rule="evenodd" d="M48.25 50C48.25 49.5858 48.5858 49.25 49 49.25H49.5604C50.8713 49.25 51.9999 50.1753 52.257 51.4607L52.7354 53.8529C52.8167 54.2591 52.5533 54.6542 52.1471 54.7354C51.7409 54.8167 51.3458 54.5533 51.2646 54.1471L50.7861 51.7549C50.6693 51.1706 50.1562 50.75 49.5604 50.75H49C48.5858 50.75 48.25 50.4142 48.25 50Z" fill="#141416"/>
<path fill-rule="evenodd" clip-rule="evenodd" d="M57.5 70C58.3284 70 59 69.3284 59 68.5C59 67.6716 58.3284 67 57.5 67C56.6716 67 56 67.6716 56 68.5C56 69.3284 56.6716 70 57.5 70Z" fill="black"/>
<path fill-rule="evenodd" clip-rule="evenodd" d="M64.5 70C65.3284 70 66 69.3284 66 68.5C66 67.6716 65.3284 67 64.5 67C63.6716 67 63 67.6716 63 68.5C63 69.3284 63.6716 70 64.5 70Z" fill="black"/>
<path d="M112.835 63.332C114.858 61.3268 116.021 60.1556 116.321 59.8184C116.677 59.4355 116.909 59.1348 117.019 58.916C117.146 58.6608 117.21 58.3828 117.21 58.082C117.21 57.7539 117.087 57.4805 116.841 57.2617C116.586 57.0339 116.262 56.9199 115.87 56.9199C115.496 56.9199 115.182 57.0339 114.927 57.2617C114.69 57.4714 114.517 57.7493 114.407 58.0957L112.753 57.4121C112.862 57.0566 113.054 56.7057 113.327 56.3594C113.591 56.0221 113.947 55.7441 114.394 55.5254C114.831 55.3066 115.337 55.1973 115.911 55.1973C116.531 55.1973 117.082 55.3203 117.565 55.5664C118.039 55.8125 118.409 56.1497 118.673 56.5781C118.937 57.0065 119.069 57.4805 119.069 58C119.069 59.0391 118.563 60.0508 117.552 61.0352C117.278 61.2995 116.517 62.056 115.269 63.3047L115.31 63.3867H119.192V65H112.835V63.332Z" fill="#141416"/>
<path d="M169.86 64.5762C169.231 64.1478 168.803 63.5234 168.575 62.7031L170.312 62.0195C170.421 62.4753 170.621 62.8262 170.913 63.0723C171.205 63.3184 171.569 63.4414 172.007 63.4414C172.408 63.4414 172.754 63.3229 173.046 63.0859C173.338 62.849 173.483 62.5391 173.483 62.1562C173.483 61.7461 173.328 61.4271 173.019 61.1992C172.7 60.9622 172.276 60.8438 171.747 60.8438H170.927V59.1758H171.679C172.089 59.1758 172.44 59.071 172.731 58.8613C173.014 58.6608 173.155 58.3646 173.155 57.9727C173.155 57.6628 173.037 57.403 172.8 57.1934C172.563 56.9837 172.267 56.8789 171.911 56.8789C171.528 56.8789 171.218 56.9837 170.981 57.1934C170.744 57.403 170.58 57.6582 170.489 57.959L168.821 57.2754C169.013 56.7103 169.377 56.2227 169.915 55.8125C170.453 55.4023 171.123 55.1973 171.925 55.1973C172.508 55.1973 173.041 55.3112 173.524 55.5391C173.989 55.7578 174.354 56.0632 174.618 56.4551C174.882 56.847 175.015 57.2845 175.015 57.7676C175.015 58.2689 174.896 58.7064 174.659 59.0801C174.431 59.4447 174.144 59.709 173.798 59.873V59.9824C174.263 60.1738 174.641 60.4701 174.933 60.8711C175.224 61.2721 175.37 61.7552 175.37 62.3203C175.37 62.8581 175.229 63.3548 174.946 63.8105C174.673 64.248 174.276 64.5944 173.757 64.8496C173.246 65.0957 172.663 65.2188 172.007 65.2188C171.196 65.2188 170.48 65.0046 169.86 64.5762Z" fill="#141416"/>
<path d="M228.677 63.2363H224.261V61.7461L228.513 55.4297H230.509V61.5273H231.698V63.2363H230.509V65H228.677V63.2363ZM228.677 61.5273V58.1504H228.554L226.298 61.5273H228.677Z" fill="#141416"/>
<path d="M282.482 64.9316C282.036 64.7493 281.63 64.4622 281.266 64.0703C280.919 63.6966 280.678 63.2181 280.541 62.6348L282.195 61.9922C282.305 62.4661 282.51 62.8398 282.811 63.1133C283.111 63.3867 283.485 63.5234 283.932 63.5234C284.387 63.5234 284.761 63.3776 285.053 63.0859C285.354 62.7852 285.504 62.4069 285.504 61.9512C285.504 61.4954 285.354 61.1172 285.053 60.8164C284.752 60.5156 284.378 60.3652 283.932 60.3652C283.649 60.3652 283.394 60.4245 283.166 60.543C282.947 60.6523 282.756 60.8073 282.592 61.0078L280.814 60.2148L281.348 55.4297H286.762V57.0293H282.879L282.537 59.2715L282.646 59.2988C283.111 58.916 283.667 58.7246 284.314 58.7246C284.843 58.7246 285.34 58.8613 285.805 59.1348C286.279 59.4082 286.648 59.7865 286.912 60.2695C287.195 60.7799 287.336 61.3405 287.336 61.9512C287.336 62.5801 287.19 63.1452 286.898 63.6465C286.598 64.1569 286.197 64.5443 285.695 64.8086C285.176 65.082 284.592 65.2188 283.945 65.2188C283.435 65.2188 282.947 65.123 282.482 64.9316Z" fill="#141416"/>
<path d="M338.25 64.7676C337.712 64.4577 337.307 64.0521 337.033 63.5508C336.742 63.0221 336.596 62.4661 336.596 61.8828C336.596 61.2721 336.71 60.7116 336.938 60.2012C337.193 59.627 337.53 59.0482 337.949 58.4648L340.26 55.1426L341.695 56.127L339.713 58.9023L339.809 58.9844C340.036 58.8841 340.278 58.834 340.533 58.834C340.998 58.834 341.463 58.9707 341.928 59.2441C342.383 59.5085 342.743 59.8776 343.008 60.3516C343.281 60.8255 343.418 61.3587 343.418 61.9512C343.418 62.5618 343.258 63.1224 342.939 63.6328C342.62 64.1523 342.206 64.5443 341.695 64.8086C341.176 65.082 340.624 65.2188 340.041 65.2188C339.367 65.2188 338.77 65.0684 338.25 64.7676ZM340 63.5508C340.428 63.5508 340.807 63.4004 341.135 63.0996C341.463 62.7988 341.627 62.4206 341.627 61.9648C341.627 61.5 341.463 61.1172 341.135 60.8164C340.807 60.5156 340.428 60.3652 340 60.3652C339.581 60.3652 339.207 60.5156 338.879 60.8164C338.551 61.1172 338.387 61.5 338.387 61.9648C338.387 62.4206 338.551 62.7988 338.879 63.0996C339.207 63.4004 339.581 63.5508 340 63.5508Z" fill="#141416"/>
<path d="M393.211 64.3711L397.203 57.2344L397.148 57.1523H392.746V55.4297H399.254V57.2344L394.756 65.2188L393.211 64.3711Z" fill="#141416"/>
<path d="M450.202 64.8496C449.701 64.6126 449.291 64.2663 448.972 63.8105C448.68 63.3822 448.534 62.89 448.534 62.334C448.534 61.8236 448.671 61.3633 448.944 60.9531C449.227 60.5339 449.578 60.2148 449.997 59.9961V59.8867C449.678 59.668 449.405 59.3854 449.177 59.0391C448.967 58.7109 448.862 58.3327 448.862 57.9043C448.862 57.3848 448.994 56.9245 449.259 56.5234C449.532 56.1133 449.91 55.7897 450.394 55.5527C450.886 55.3158 451.424 55.1973 452.007 55.1973C452.59 55.1973 453.128 55.3158 453.62 55.5527C454.085 55.7806 454.459 56.1042 454.741 56.5234C455.015 56.9336 455.151 57.3939 455.151 57.9043C455.151 58.3327 455.047 58.7109 454.837 59.0391C454.609 59.3945 454.331 59.6771 454.003 59.8867V59.9961C454.422 60.2148 454.773 60.5339 455.056 60.9531C455.338 61.3724 455.479 61.8327 455.479 62.334C455.479 62.89 455.334 63.3822 455.042 63.8105C454.723 64.2663 454.313 64.6126 453.812 64.8496C453.274 65.0957 452.672 65.2188 452.007 65.2188C451.341 65.2188 450.74 65.0957 450.202 64.8496ZM452.991 58.875C453.246 58.6562 453.374 58.3691 453.374 58.0137C453.374 57.6673 453.246 57.3848 452.991 57.166C452.727 56.9473 452.399 56.8379 452.007 56.8379C451.597 56.8379 451.264 56.9473 451.009 57.166C450.754 57.3848 450.626 57.6673 450.626 58.0137C450.626 58.3691 450.754 58.6562 451.009 58.875C451.264 59.0938 451.597 59.2031 452.007 59.2031C452.399 59.2031 452.727 59.0938 452.991 58.875ZM452.007 63.5234C452.49 63.5234 452.882 63.4004 453.183 63.1543C453.483 62.9082 453.634 62.5755 453.634 62.1562C453.634 61.7552 453.479 61.4316 453.169 61.1855C452.859 60.9395 452.472 60.8164 452.007 60.8164C451.542 60.8164 451.155 60.9395 450.845 61.1855C450.526 61.4316 450.366 61.7552 450.366 62.1562C450.366 62.5755 450.521 62.9082 450.831 63.1543C451.15 63.4004 451.542 63.5234 452.007 63.5234Z" fill="#141416"/>
<path d="M506.318 64.3027L508.287 61.5273L508.205 61.4453C507.995 61.5365 507.754 61.582 507.48 61.582C506.997 61.582 506.533 61.4499 506.086 61.1855C505.63 60.9212 505.27 60.5521 505.006 60.0781C504.732 59.6042 504.596 59.071 504.596 58.4785C504.596 57.8587 504.751 57.2982 505.061 56.7969C505.38 56.2865 505.799 55.8945 506.318 55.6211C506.856 55.3385 507.408 55.1973 507.973 55.1973C508.647 55.1973 509.244 55.3477 509.764 55.6484C510.292 55.9492 510.698 56.3594 510.98 56.8789C511.272 57.4076 511.418 57.9635 511.418 58.5469C511.418 59.1576 511.304 59.7181 511.076 60.2285C510.83 60.7754 510.488 61.3542 510.051 61.9648L507.754 65.2734L506.318 64.3027ZM509.135 59.5996C509.463 59.2988 509.627 58.9206 509.627 58.4648C509.627 58.0091 509.463 57.6309 509.135 57.3301C508.807 57.0293 508.433 56.8789 508.014 56.8789C507.585 56.8789 507.207 57.0293 506.879 57.3301C506.551 57.6309 506.387 58.0091 506.387 58.4648C506.387 58.9206 506.551 59.2988 506.879 59.5996C507.216 59.9095 507.594 60.0645 508.014 60.0645C508.424 60.0645 508.798 59.9095 509.135 59.5996Z" fill="#141416"/>
<path d="M559.249 57.8223L557.813 58.8613L556.884 57.4531L559.7 55.4297H561.081V65H559.249V57.8223Z" fill="#141416"/>
<path d="M564.909 64.5762C564.299 64.1387 563.834 63.5417 563.515 62.7852C563.177 62.0013 563.009 61.1445 563.009 60.2148C563.009 59.2852 563.177 58.4284 563.515 57.6445C563.834 56.888 564.299 56.291 564.909 55.8535C565.511 55.416 566.217 55.1973 567.028 55.1973C567.84 55.1973 568.546 55.416 569.147 55.8535C569.767 56.3092 570.237 56.9062 570.556 57.6445C570.884 58.4102 571.048 59.2669 571.048 60.2148C571.048 61.1628 570.884 62.0195 570.556 62.7852C570.237 63.5234 569.767 64.1204 569.147 64.5762C568.555 65.0046 567.849 65.2188 567.028 65.2188C566.208 65.2188 565.502 65.0046 564.909 64.5762ZM568.204 63.0723C568.532 62.7897 568.783 62.3978 568.956 61.8965C569.129 61.4043 569.216 60.8438 569.216 60.2148C569.216 59.2396 569.02 58.4466 568.628 57.8359C568.236 57.2253 567.703 56.9199 567.028 56.9199C566.372 56.9199 565.843 57.2298 565.442 57.8496C565.05 58.4603 564.854 59.2487 564.854 60.2148C564.854 60.8438 564.941 61.4043 565.114 61.8965C565.287 62.3796 565.543 62.7715 565.88 63.0723C566.199 63.3548 566.582 63.4961 567.028 63.4961C567.493 63.4961 567.885 63.3548 568.204 63.0723Z" fill="#141416"/>
<path d="M617.874 64.5762C617.263 64.1387 616.799 63.5417 616.479 62.7852C616.142 62.0013 615.974 61.1445 615.974 60.2148C615.974 59.2852 616.142 58.4284 616.479 57.6445C616.799 56.888 617.263 56.291 617.874 55.8535C618.476 55.416 619.182 55.1973 619.993 55.1973C620.804 55.1973 621.511 55.416 622.112 55.8535C622.732 56.3092 623.201 56.9062 623.521 57.6445C623.849 58.4102 624.013 59.2669 624.013 60.2148C624.013 61.1628 623.849 62.0195 623.521 62.7852C623.201 63.5234 622.732 64.1204 622.112 64.5762C621.52 65.0046 620.813 65.2188 619.993 65.2188C619.173 65.2188 618.466 65.0046 617.874 64.5762ZM621.169 63.0723C621.497 62.7897 621.748 62.3978 621.921 61.8965C622.094 61.4043 622.181 60.8438 622.181 60.2148C622.181 59.2396 621.985 58.4466 621.593 57.8359C621.201 57.2253 620.668 56.9199 619.993 56.9199C619.337 56.9199 618.808 57.2298 618.407 57.8496C618.015 58.4603 617.819 59.2487 617.819 60.2148C617.819 60.8438 617.906 61.4043 618.079 61.8965C618.252 62.3796 618.507 62.7715 618.845 63.0723C619.164 63.3548 619.547 63.4961 619.993 63.4961C620.458 63.4961 620.85 63.3548 621.169 63.0723Z" fill="#141416"/>
<path fill-rule="evenodd" clip-rule="evenodd" d="M675.49 53.8734C675.558 53.4648 675.282 53.0784 674.873 53.0103C674.465 52.9422 674.078 53.2182 674.01 53.6268L673.615 56H670.75C670.336 56 670 56.3358 670 56.75C670 57.1642 670.336 57.5 670.75 57.5H673.365L672.615 62H669.75C669.336 62 669 62.3358 669 62.75C669 63.1642 669.336 63.5 669.75 63.5H672.365L672.01 65.6268C671.942 66.0354 672.218 66.4218 672.627 66.4899C673.035 66.558 673.422 66.282 673.49 65.8734L673.885 63.5H677.365L677.01 65.6268C676.942 66.0354 677.218 66.4218 677.627 66.4899C678.035 66.558 678.422 66.282 678.49 65.8734L678.885 63.5H681.75C682.164 63.5 682.5 63.1642 682.5 62.75C682.5 62.3358 682.164 62 681.75 62H679.135L679.885 57.5H682.75C683.164 57.5 683.5 57.1642 683.5 56.75C683.5 56.3358 683.164 56 682.75 56H680.135L680.49 53.8734C680.558 53.4648 680.282 53.0784 679.873 53.0103C679.465 52.9422 679.078 53.2182 679.01 53.6268L678.615 56H675.135L675.49 53.8734ZM677.615 62L678.365 57.5H674.885L674.135 62H677.615Z" fill="#141416"/>
<path d="M737.511 65.788C737.56 65.9293 737.511 66 737.363 66H735.379C735.268 66 735.198 65.9548 735.167 65.8643L734.465 63.2184C734.453 63.1958 734.447 63.0516 734.447 62.7859C734.244 62.8424 734.069 62.8707 733.921 62.8707H730.137C729.983 62.8707 729.808 62.8424 729.611 62.7859C729.599 63.0516 729.593 63.1958 729.593 63.2184L728.891 65.8643C728.867 65.9548 728.793 66 728.67 66H726.704C726.55 66 726.498 65.935 726.547 65.8049L730.137 54.1357C730.162 54.0452 730.239 54 730.368 54H733.69C733.801 54 733.878 54.0452 733.921 54.1357L737.511 65.788ZM733.524 61.2254C733.666 61.2254 733.859 61.2594 734.105 61.3272C733.939 61.1293 733.835 60.9625 733.792 60.8269L732.546 56.3746C732.472 56.1428 732.497 55.9477 732.62 55.7894C732.534 55.8686 732.45 55.9081 732.37 55.9081H731.688C731.614 55.9081 731.534 55.8686 731.448 55.7894C731.571 55.9534 731.595 56.1484 731.521 56.3746L730.257 60.8269C730.22 60.9682 730.119 61.135 729.953 61.3272C730.205 61.2594 730.399 61.2254 730.534 61.2254H733.524Z" fill="#141416"/>
<path d="M783.978 66C783.827 66 783.755 65.9293 783.761 65.788V54.2039C783.761 54.0625 783.833 53.9947 783.978 54.0003H789.414C790.331 54.0003 791.096 54.2887 791.712 54.8653C792.327 55.4363 792.634 56.1374 792.634 56.9684V57.6469C792.634 58.02 792.556 58.3847 792.399 58.7408C792.248 59.097 792.049 59.3684 791.802 59.5549C791.754 59.5889 791.696 59.6228 791.63 59.6567C791.69 59.6906 791.748 59.733 791.802 59.7839C792.061 59.9931 792.284 60.2758 792.471 60.6319C792.664 60.9825 792.761 61.3302 792.761 61.675V63.0319C792.761 63.863 792.438 64.5668 791.793 65.1435C791.154 65.7145 790.379 66 789.468 66H783.978ZM785.869 59.1394C786.104 59.0376 786.285 58.9868 786.411 58.9868H788.908C789.39 58.9868 789.761 58.8737 790.02 58.6475C790.279 58.4214 790.409 58.1048 790.409 57.6978V57.0702C790.409 56.6518 790.279 56.3324 790.02 56.1119C789.761 55.8858 789.39 55.7727 788.908 55.7727H786.411C786.351 55.7727 786.285 55.7642 786.212 55.7473C786.146 55.7303 786.092 55.7134 786.049 55.6964C786.007 55.6738 785.968 55.654 785.932 55.637L785.869 55.6116C785.941 55.8434 785.98 55.9876 785.986 56.0441V58.7239C785.986 58.7691 785.98 58.82 785.968 58.8765C785.956 58.9274 785.941 58.9698 785.923 59.0037C785.911 59.0376 785.902 59.0631 785.896 59.08L785.869 59.1394ZM785.85 64.4057C785.863 64.4057 785.887 64.3972 785.923 64.3803C785.965 64.3576 786.007 64.335 786.049 64.3124C786.092 64.2898 786.146 64.27 786.212 64.2531C786.285 64.2361 786.351 64.2276 786.411 64.2276H788.908C789.378 64.2276 789.746 64.1145 790.011 63.8884C790.276 63.6623 790.409 63.3541 790.409 62.964V61.7259C790.409 61.3189 790.279 61.0023 790.02 60.7761C789.761 60.5443 789.39 60.4284 788.908 60.4284H786.411C786.303 60.4284 786.122 60.3691 785.869 60.2503C785.869 60.2616 785.875 60.2814 785.887 60.3097C785.899 60.338 785.911 60.3747 785.923 60.4199C785.941 60.4595 785.956 60.5047 785.968 60.5556C785.98 60.6065 785.986 60.6546 785.986 60.6998V63.9647C785.986 63.9986 785.98 64.0439 785.968 64.1004C785.956 64.1513 785.941 64.1965 785.923 64.2361C785.911 64.2757 785.899 64.3152 785.887 64.3548C785.875 64.3887 785.863 64.4057 785.85 64.4057Z" fill="#141416"/>
<path d="M846.734 57.846C846.611 57.846 846.546 57.7901 846.54 57.6781V57.233C846.54 56.2925 846.018 55.8223 844.974 55.8223H843.675C842.631 55.8223 842.109 56.2925 842.109 57.233V62.8006C842.109 63.7299 842.631 64.1945 843.675 64.1945H844.993C846.024 64.1945 846.54 63.7299 846.54 62.8006V62.2883C846.54 62.1763 846.611 62.1176 846.752 62.112H848.631C848.754 62.112 848.819 62.1707 848.825 62.2883V63.0273C848.825 63.8502 848.502 64.5528 847.857 65.1351C847.219 65.7117 846.454 66 845.564 66H843.086C842.208 66 841.443 65.7117 840.792 65.1351C840.147 64.5528 839.825 63.8502 839.825 63.0273V57.0063C839.825 56.1833 840.147 55.478 840.792 54.8901C841.443 54.2967 842.208 54 843.086 54H845.564C846.442 54 847.203 54.2967 847.848 54.8901C848.499 55.478 848.825 56.1833 848.825 57.0063V57.6781C848.825 57.7901 848.76 57.846 848.631 57.846H846.734Z" fill="#141416"/>
<path d="M896.182 66C896.061 66 896 65.9434 896 65.8301V54.1699C896 54.0566 896.061 54 896.182 54H901.688C902.61 54 903.392 54.2972 904.035 54.8917C904.678 55.4805 905 56.1911 905 57.0234V62.9597C905 63.7919 904.675 64.5081 904.026 65.1083C903.383 65.7028 902.604 66 901.688 66H896.182ZM898.102 64.293C898.102 64.293 898.117 64.2873 898.148 64.276C898.172 64.2647 898.202 64.2534 898.239 64.242C898.275 64.2307 898.314 64.2166 898.357 64.1996C898.399 64.1826 898.445 64.1713 898.493 64.1656C898.548 64.1599 898.606 64.1571 898.666 64.1571H901.233C901.706 64.1571 902.076 64.041 902.343 63.8089C902.61 63.5768 902.743 63.2682 902.743 62.8832V57.1083C902.743 56.712 902.61 56.4034 902.343 56.1826C902.076 55.9561 901.706 55.8429 901.233 55.8429H898.666C898.606 55.8429 898.548 55.8372 898.493 55.8259C898.445 55.8146 898.399 55.8004 898.357 55.7834C898.314 55.7665 898.278 55.7495 898.248 55.7325C898.217 55.7155 898.187 55.7013 898.157 55.69C898.132 55.673 898.114 55.6645 898.102 55.6645C898.187 55.874 898.233 56.0212 898.239 56.1062V63.8938C898.233 63.9731 898.187 64.1062 898.102 64.293Z" fill="#141416"/>
<rect x="0.5" y="0.5" width="959" height="119" stroke="#E6E8EC"/>
</svg>
