<svg width="808" height="128" viewBox="0 0 808 128" fill="none" xmlns="http://www.w3.org/2000/svg">
<path fill-rule="evenodd" clip-rule="evenodd" d="M12 21.75C6.61522 21.75 2.25 17.3848 2.25 12C2.25 6.61522 6.61522 2.25 12 2.25C17.3848 2.25 21.75 6.61522 21.75 12C21.75 17.3848 17.3848 21.75 12 21.75ZM3.75 12C3.75 16.5563 7.44365 20.25 12 20.25C16.5563 20.25 20.25 16.5563 20.25 12C20.25 7.44365 16.5563 3.75 12 3.75C7.44365 3.75 3.75 7.44365 3.75 12Z" fill="#141416"/>
<path fill-rule="evenodd" clip-rule="evenodd" d="M15.75 12C15.75 12.4142 15.4142 12.75 15 12.75L9 12.75C8.58579 12.75 8.25 12.4142 8.25 12C8.25 11.5858 8.58579 11.25 9 11.25L15 11.25C15.4142 11.25 15.75 11.5858 15.75 12Z" fill="#141416"/>
<path fill-rule="evenodd" clip-rule="evenodd" d="M68 21.75C62.6152 21.75 58.25 17.3848 58.25 12C58.25 6.61522 62.6152 2.25 68 2.25C73.3848 2.25 77.75 6.61522 77.75 12C77.75 17.3848 73.3848 21.75 68 21.75ZM59.75 12C59.75 16.5563 63.4437 20.25 68 20.25C72.5563 20.25 76.25 16.5563 76.25 12C76.25 7.44365 72.5563 3.75 68 3.75C63.4437 3.75 59.75 7.44365 59.75 12Z" fill="#141416"/>
<path fill-rule="evenodd" clip-rule="evenodd" d="M70.6517 9.34832C70.9446 9.64122 70.9446 10.1161 70.6517 10.409L66.409 14.6516C66.1161 14.9445 65.6413 14.9445 65.3484 14.6516C65.0555 14.3587 65.0555 13.8839 65.3484 13.591L69.591 9.34832C69.8839 9.05543 70.3588 9.05543 70.6517 9.34832Z" fill="#141416"/>
<path fill-rule="evenodd" clip-rule="evenodd" d="M70.6516 14.6517C70.3587 14.9446 69.8838 14.9446 69.5909 14.6517L65.3483 10.409C65.0554 10.1161 65.0554 9.64126 65.3483 9.34837C65.6411 9.05547 66.116 9.05547 66.4089 9.34837L70.6516 13.591C70.9444 13.8839 70.9444 14.3588 70.6516 14.6517Z" fill="#141416"/>
<path fill-rule="evenodd" clip-rule="evenodd" d="M124 6.25C124.414 6.25 124.75 6.58579 124.75 7V17C124.75 17.4142 124.414 17.75 124 17.75C123.586 17.75 123.25 17.4142 123.25 17V7C123.25 6.58579 123.586 6.25 124 6.25Z" fill="#141416"/>
<path fill-rule="evenodd" clip-rule="evenodd" d="M129.75 12C129.75 12.4142 129.414 12.75 129 12.75L119 12.75C118.586 12.75 118.25 12.4142 118.25 12C118.25 11.5858 118.586 11.25 119 11.25L129 11.25C129.414 11.25 129.75 11.5858 129.75 12Z" fill="#141416"/>
<path fill-rule="evenodd" clip-rule="evenodd" d="M185.75 12C185.75 12.4142 185.414 12.75 185 12.75L175 12.75C174.586 12.75 174.25 12.4142 174.25 12C174.25 11.5858 174.586 11.25 175 11.25L185 11.25C185.414 11.25 185.75 11.5858 185.75 12Z" fill="#141416"/>
<path fill-rule="evenodd" clip-rule="evenodd" d="M240.066 7.93414C240.359 8.22703 240.359 8.70191 240.066 8.9948L232.995 16.0659C232.702 16.3588 232.227 16.3588 231.934 16.0659C231.641 15.773 231.641 15.2981 231.934 15.0052L239.005 7.93414C239.298 7.64125 239.773 7.64125 240.066 7.93414Z" fill="#141416"/>
<path fill-rule="evenodd" clip-rule="evenodd" d="M240.066 16.0659C239.773 16.3587 239.298 16.3587 239.005 16.0659L231.934 8.99478C231.641 8.70189 231.641 8.22702 231.934 7.93412C232.227 7.64123 232.702 7.64123 232.995 7.93412L240.066 15.0052C240.359 15.2981 240.359 15.773 240.066 16.0659Z" fill="#141416"/>
<path fill-rule="evenodd" clip-rule="evenodd" d="M291.75 3C286.918 3 283 6.91751 283 11.75C283 16.5825 286.918 20.5 291.75 20.5C293.896 20.5 295.862 19.7273 297.384 18.4448L300.22 21.2803C300.513 21.5732 300.988 21.5732 301.28 21.2803C301.573 20.9874 301.573 20.5126 301.28 20.2197L298.445 17.3842C299.727 15.8619 300.5 13.8962 300.5 11.75C300.5 6.91751 296.582 3 291.75 3ZM284.5 11.75C284.5 7.74594 287.746 4.5 291.75 4.5C295.754 4.5 299 7.74594 299 11.75C299 15.7541 295.754 19 291.75 19C287.746 19 284.5 15.7541 284.5 11.75Z" fill="#141416"/>
<path fill-rule="evenodd" clip-rule="evenodd" d="M343 4.75C341.757 4.75 340.75 5.75736 340.75 7V9C340.75 9.41421 340.414 9.75 340 9.75C339.586 9.75 339.25 9.41421 339.25 9V7C339.25 4.92893 340.929 3.25 343 3.25H345C345.414 3.25 345.75 3.58579 345.75 4C345.75 4.41421 345.414 4.75 345 4.75H343Z" fill="#141416"/>
<path fill-rule="evenodd" clip-rule="evenodd" d="M355.25 7C355.25 5.75736 354.243 4.75 353 4.75L351 4.75C350.586 4.75 350.25 4.41421 350.25 4C350.25 3.58579 350.586 3.25 351 3.25L353 3.25C355.071 3.25 356.75 4.92893 356.75 7L356.75 9C356.75 9.41421 356.414 9.75 356 9.75C355.586 9.75 355.25 9.41421 355.25 9L355.25 7Z" fill="#141416"/>
<path fill-rule="evenodd" clip-rule="evenodd" d="M353 19.25C354.243 19.25 355.25 18.2426 355.25 17L355.25 15C355.25 14.5858 355.586 14.25 356 14.25C356.414 14.25 356.75 14.5858 356.75 15L356.75 17C356.75 19.0711 355.071 20.75 353 20.75L351 20.75C350.586 20.75 350.25 20.4142 350.25 20C350.25 19.5858 350.586 19.25 351 19.25L353 19.25Z" fill="#141416"/>
<path fill-rule="evenodd" clip-rule="evenodd" d="M340.75 17C340.75 18.2426 341.757 19.25 343 19.25L345 19.25C345.414 19.25 345.75 19.5858 345.75 20C345.75 20.4142 345.414 20.75 345 20.75L343 20.75C340.929 20.75 339.25 19.0711 339.25 17L339.25 15C339.25 14.5858 339.586 14.25 340 14.25C340.414 14.25 340.75 14.5858 340.75 15L340.75 17Z" fill="#141416"/>
<path fill-rule="evenodd" clip-rule="evenodd" d="M410 15.75C408.757 15.75 407.75 16.7574 407.75 18V20C407.75 20.4142 407.414 20.75 407 20.75C406.586 20.75 406.25 20.4142 406.25 20V18C406.25 15.9289 407.929 14.25 410 14.25H412C412.414 14.25 412.75 14.5858 412.75 15C412.75 15.4142 412.414 15.75 412 15.75H410Z" fill="#141416"/>
<path fill-rule="evenodd" clip-rule="evenodd" d="M400.25 18C400.25 16.7574 399.243 15.75 398 15.75L396 15.75C395.586 15.75 395.25 15.4142 395.25 15C395.25 14.5858 395.586 14.25 396 14.25L398 14.25C400.071 14.25 401.75 15.9289 401.75 18L401.75 20C401.75 20.4142 401.414 20.75 401 20.75C400.586 20.75 400.25 20.4142 400.25 20L400.25 18Z" fill="#141416"/>
<path fill-rule="evenodd" clip-rule="evenodd" d="M398 8.25C399.243 8.25 400.25 7.24264 400.25 6L400.25 4C400.25 3.58579 400.586 3.25 401 3.25C401.414 3.25 401.75 3.58579 401.75 4L401.75 6C401.75 8.07107 400.071 9.75 398 9.75L396 9.75C395.586 9.75 395.25 9.41421 395.25 9C395.25 8.58579 395.586 8.25 396 8.25L398 8.25Z" fill="#141416"/>
<path fill-rule="evenodd" clip-rule="evenodd" d="M407.75 6C407.75 7.24264 408.757 8.25 410 8.25L412 8.25C412.414 8.25 412.75 8.58579 412.75 9C412.75 9.41421 412.414 9.75 412 9.75L410 9.75C407.929 9.75 406.25 8.07107 406.25 6L406.25 4C406.25 3.58579 406.586 3.25 407 3.25C407.414 3.25 407.75 3.58579 407.75 4L407.75 6Z" fill="#141416"/>
<path fill-rule="evenodd" clip-rule="evenodd" d="M460 21.75C454.615 21.75 450.25 17.3848 450.25 12C450.25 6.61522 454.615 2.25 460 2.25C465.385 2.25 469.75 6.61522 469.75 12C469.75 17.3848 465.385 21.75 460 21.75ZM451.75 12C451.75 16.5563 455.444 20.25 460 20.25C464.556 20.25 468.25 16.5563 468.25 12C468.25 7.44365 464.556 3.75 460 3.75C455.444 3.75 451.75 7.44365 451.75 12Z" fill="#141416"/>
<path fill-rule="evenodd" clip-rule="evenodd" d="M460 10.25C460.414 10.25 460.75 10.5858 460.75 11V16C460.75 16.4142 460.414 16.75 460 16.75C459.586 16.75 459.25 16.4142 459.25 16V11C459.25 10.5858 459.586 10.25 460 10.25Z" fill="#141416"/>
<path d="M460.75 7.75C460.75 8.16421 460.414 8.5 460 8.5C459.586 8.5 459.25 8.16421 459.25 7.75C459.25 7.33579 459.586 7 460 7C460.414 7 460.75 7.33579 460.75 7.75Z" fill="#141416"/>
<path fill-rule="evenodd" clip-rule="evenodd" d="M516 2.25C521.385 2.25 525.75 6.61522 525.75 12C525.75 17.3848 521.385 21.75 516 21.75C510.615 21.75 506.25 17.3848 506.25 12C506.25 6.61522 510.615 2.25 516 2.25ZM524.25 12C524.25 7.44365 520.556 3.75 516 3.75C511.444 3.75 507.75 7.44365 507.75 12C507.75 16.5563 511.444 20.25 516 20.25C520.556 20.25 524.25 16.5563 524.25 12Z" fill="#141416"/>
<path fill-rule="evenodd" clip-rule="evenodd" d="M516 13.75C515.586 13.75 515.25 13.4142 515.25 13L515.25 8C515.25 7.58579 515.586 7.25 516 7.25C516.414 7.25 516.75 7.58579 516.75 8L516.75 13C516.75 13.4142 516.414 13.75 516 13.75Z" fill="#141416"/>
<path d="M515.25 16.25C515.25 15.8358 515.586 15.5 516 15.5C516.414 15.5 516.75 15.8358 516.75 16.25C516.75 16.6642 516.414 17 516 17C515.586 17 515.25 16.6642 515.25 16.25Z" fill="#141416"/>
<path d="M571.25 15.25C571.25 14.8358 571.586 14.5 572 14.5C572.414 14.5 572.75 14.8358 572.75 15.25C572.75 15.6642 572.414 16 572 16C571.586 16 571.25 15.6642 571.25 15.25Z" fill="#141416"/>
<path fill-rule="evenodd" clip-rule="evenodd" d="M569.581 3.89826C570.62 1.97516 573.38 1.97515 574.419 3.89826L581.065 16.1923C582.055 18.0246 580.728 20.25 578.646 20.25H565.355C563.272 20.25 561.945 18.0246 562.935 16.1923L569.581 3.89826ZM573.1 4.61153C572.627 3.7374 571.373 3.7374 570.9 4.61154L564.255 16.9056C563.805 17.7384 564.408 18.75 565.355 18.75H578.646C579.592 18.75 580.195 17.7384 579.745 16.9056L573.1 4.61153Z" fill="#141416"/>
<path fill-rule="evenodd" clip-rule="evenodd" d="M572 8.25C572.414 8.25 572.75 8.58579 572.75 9V12.5C572.75 12.9142 572.414 13.25 572 13.25C571.586 13.25 571.25 12.9142 571.25 12.5V9C571.25 8.58579 571.586 8.25 572 8.25Z" fill="#141416"/>
<path d="M623 7.5C623 8.32843 622.328 9 621.5 9C620.672 9 620 8.32843 620 7.5C620 6.67157 620.672 6 621.5 6C622.328 6 623 6.67157 623 7.5Z" fill="#141416"/>
<path fill-rule="evenodd" clip-rule="evenodd" d="M626.75 7.5C626.75 7.08579 627.086 6.75 627.5 6.75H636.5C636.914 6.75 637.25 7.08579 637.25 7.5C637.25 7.91421 636.914 8.25 636.5 8.25H627.5C627.086 8.25 626.75 7.91421 626.75 7.5Z" fill="#141416"/>
<path d="M623 16.5C623 17.3284 622.328 18 621.5 18C620.672 18 620 17.3284 620 16.5C620 15.6716 620.672 15 621.5 15C622.328 15 623 15.6716 623 16.5Z" fill="#141416"/>
<path fill-rule="evenodd" clip-rule="evenodd" d="M626.75 16.5C626.75 16.0858 627.086 15.75 627.5 15.75H636.5C636.914 15.75 637.25 16.0858 637.25 16.5C637.25 16.9142 636.914 17.25 636.5 17.25H627.5C627.086 17.25 626.75 16.9142 626.75 16.5Z" fill="#141416"/>
<path fill-rule="evenodd" clip-rule="evenodd" d="M684.945 4.48055C684.867 4.47071 684.788 4.46208 684.71 4.45468C684.672 4.45113 684.635 4.44497 684.599 4.4364C684.26 4.35633 684 4.06525 684 3.71071C684 3.31821 684.319 2.99711 684.71 3.02807C684.754 3.03157 684.799 3.03541 684.843 3.03956C684.951 3.04976 685.059 3.06192 685.167 3.07602C686.729 3.28035 688.218 3.8924 689.479 4.85985C691.051 6.06593 692.181 7.75696 692.693 9.67066C693.206 11.5844 693.073 13.6138 692.315 15.4442C691.557 17.2746 690.216 18.8037 688.5 19.7943C686.784 20.7849 684.79 21.1816 682.825 20.923C680.861 20.6644 679.037 19.7649 677.636 18.364C676.235 16.9631 675.336 15.139 675.077 13.1748C674.87 11.5991 675.084 10.0039 675.688 8.54883C675.73 8.44842 675.773 8.34867 675.819 8.24965C675.837 8.20928 675.856 8.16903 675.875 8.1289C676.044 7.77457 676.481 7.65912 676.821 7.85537C677.128 8.03264 677.25 8.40353 677.15 8.73657C677.14 8.77223 677.127 8.80745 677.111 8.84195C677.078 8.91381 677.046 8.98611 677.015 9.05884C676.495 10.2936 676.31 11.6498 676.486 12.9892C676.704 14.6433 677.461 16.1793 678.641 17.3589C679.821 18.5386 681.357 19.2961 683.011 19.5138C684.665 19.7316 686.345 19.3975 687.789 18.5633C689.234 17.7292 690.363 16.4416 691.002 14.9002C691.64 13.3589 691.752 11.65 691.32 10.0385C690.889 8.42706 689.937 7.0031 688.614 5.98749C687.542 5.16506 686.274 4.64763 684.945 4.48055Z" fill="#141416"/>
<path fill-rule="evenodd" clip-rule="evenodd" d="M684 9.5C683.672 9.5 683.347 9.56466 683.043 9.6903C682.74 9.81594 682.464 10.0001 682.232 10.2322C682 10.4644 681.816 10.74 681.69 11.0433C681.565 11.3466 681.5 11.6717 681.5 12C681.5 12.3283 681.565 12.6534 681.69 12.9567C681.816 13.26 682 13.5356 682.232 13.7678C682.464 13.9999 682.74 14.1841 683.043 14.3097C683.347 14.4353 683.672 14.5 684 14.5C684.328 14.5 684.653 14.4353 684.957 14.3097C685.26 14.1841 685.536 13.9999 685.768 13.7678C686 13.5356 686.184 13.26 686.31 12.9567C686.435 12.6534 686.5 12.3283 686.5 12C686.5 11.6717 686.435 11.3466 686.31 11.0433C686.184 10.74 686 10.4644 685.768 10.2322C685.536 10.0001 685.26 9.81594 684.957 9.6903C684.653 9.56466 684.328 9.5 684 9.5ZM682.469 8.30448C682.955 8.10346 683.475 8 684 8C684.525 8 685.045 8.10346 685.531 8.30448C686.016 8.5055 686.457 8.80014 686.828 9.17157C687.2 9.54301 687.494 9.98396 687.696 10.4693C687.897 10.9546 688 11.4747 688 12C688 12.5253 687.897 13.0454 687.696 13.5307C687.494 14.016 687.2 14.457 686.828 14.8284C686.457 15.1999 686.016 15.4945 685.531 15.6955C685.045 15.8965 684.525 16 684 16C683.475 16 682.955 15.8965 682.469 15.6955C681.984 15.4945 681.543 15.1999 681.172 14.8284C680.8 14.457 680.505 14.016 680.304 13.5307C680.103 13.0454 680 12.5253 680 12C680 11.4747 680.103 10.9546 680.304 10.4693C680.506 9.98396 680.8 9.54301 681.172 9.17157C681.543 8.80014 681.984 8.5055 682.469 8.30448Z" fill="#141416"/>
<circle cx="740" cy="12" r="4" fill="#141416"/>
<path fill-rule="evenodd" clip-rule="evenodd" d="M740.945 4.48055C740.867 4.47071 740.788 4.46208 740.71 4.45468C740.672 4.45113 740.635 4.44497 740.599 4.4364C740.26 4.35633 740 4.06525 740 3.71071C740 3.31821 740.319 2.99711 740.71 3.02807C740.754 3.03157 740.799 3.03541 740.843 3.03956C740.951 3.04976 741.059 3.06192 741.167 3.07602C742.729 3.28035 744.218 3.8924 745.479 4.85985C747.051 6.06593 748.181 7.75696 748.693 9.67066C749.206 11.5844 749.073 13.6138 748.315 15.4442C747.557 17.2746 746.216 18.8037 744.5 19.7943C742.784 20.7849 740.79 21.1816 738.825 20.923C736.861 20.6644 735.037 19.7649 733.636 18.364C732.235 16.9631 731.336 15.139 731.077 13.1748C730.87 11.5991 731.084 10.0039 731.688 8.54883C731.73 8.44842 731.773 8.34867 731.819 8.24965C731.837 8.20928 731.856 8.16903 731.875 8.1289C732.044 7.77457 732.481 7.65912 732.821 7.85537C733.128 8.03264 733.25 8.40353 733.15 8.73657C733.14 8.77223 733.127 8.80745 733.111 8.84195C733.078 8.91381 733.046 8.98611 733.015 9.05884C732.495 10.2936 732.31 11.6498 732.486 12.9892C732.704 14.6433 733.461 16.1793 734.641 17.3589C735.821 18.5386 737.357 19.2961 739.011 19.5138C740.665 19.7316 742.345 19.3975 743.789 18.5633C745.234 17.7292 746.363 16.4416 747.002 14.9002C747.64 13.3589 747.752 11.65 747.32 10.0385C746.889 8.42706 745.937 7.0031 744.614 5.98749C743.542 5.16506 742.274 4.64763 740.945 4.48055Z" fill="#141416"/>
<path fill-rule="evenodd" clip-rule="evenodd" d="M740 9.5C739.672 9.5 739.347 9.56466 739.043 9.6903C738.74 9.81594 738.464 10.0001 738.232 10.2322C738 10.4644 737.816 10.74 737.69 11.0433C737.565 11.3466 737.5 11.6717 737.5 12C737.5 12.3283 737.565 12.6534 737.69 12.9567C737.816 13.26 738 13.5356 738.232 13.7678C738.464 13.9999 738.74 14.1841 739.043 14.3097C739.347 14.4353 739.672 14.5 740 14.5C740.328 14.5 740.653 14.4353 740.957 14.3097C741.26 14.1841 741.536 13.9999 741.768 13.7678C742 13.5356 742.184 13.26 742.31 12.9567C742.435 12.6534 742.5 12.3283 742.5 12C742.5 11.6717 742.435 11.3466 742.31 11.0433C742.184 10.74 742 10.4644 741.768 10.2322C741.536 10.0001 741.26 9.81594 740.957 9.6903C740.653 9.56466 740.328 9.5 740 9.5ZM738.469 8.30448C738.955 8.10346 739.475 8 740 8C740.525 8 741.045 8.10346 741.531 8.30448C742.016 8.5055 742.457 8.80014 742.828 9.17157C743.2 9.54301 743.494 9.98396 743.696 10.4693C743.897 10.9546 744 11.4747 744 12C744 12.5253 743.897 13.0454 743.696 13.5307C743.494 14.016 743.2 14.457 742.828 14.8284C742.457 15.1999 742.016 15.4945 741.531 15.6955C741.045 15.8965 740.525 16 740 16C739.475 16 738.955 15.8965 738.469 15.6955C737.984 15.4945 737.543 15.1999 737.172 14.8284C736.8 14.457 736.505 14.016 736.304 13.5307C736.103 13.0454 736 12.5253 736 12C736 11.4747 736.103 10.9546 736.304 10.4693C736.506 9.98396 736.8 9.54301 737.172 9.17157C737.543 8.80014 737.984 8.5055 738.469 8.30448Z" fill="#141416"/>
<path fill-rule="evenodd" clip-rule="evenodd" d="M787.25 6C787.25 5.58579 787.586 5.25 788 5.25H804C804.414 5.25 804.75 5.58579 804.75 6C804.75 6.41421 804.414 6.75 804 6.75H788C787.586 6.75 787.25 6.41421 787.25 6Z" fill="#141416"/>
<path fill-rule="evenodd" clip-rule="evenodd" d="M790.25 12C790.25 11.5858 790.586 11.25 791 11.25L801 11.25C801.414 11.25 801.75 11.5858 801.75 12C801.75 12.4142 801.414 12.75 801 12.75L791 12.75C790.586 12.75 790.25 12.4142 790.25 12Z" fill="#141416"/>
<path fill-rule="evenodd" clip-rule="evenodd" d="M792.25 18C792.25 17.5858 792.586 17.25 793 17.25H799C799.414 17.25 799.75 17.5858 799.75 18C799.75 18.4142 799.414 18.75 799 18.75H793C792.586 18.75 792.25 18.4142 792.25 18Z" fill="#141416"/>
<g clip-path="url(#clip0_1300_21944)">
<path d="M39.698 90.7559C40.0885 91.1464 40.0885 91.7796 39.698 92.1701C39.3075 92.5606 38.6743 92.5606 38.2838 92.1701C37.8932 91.7796 37.8932 91.1464 38.2838 90.7559C38.6743 90.3654 39.3075 90.3654 39.698 90.7559Z" fill="#141416"/>
<path d="M42.0076 88.4459C42.294 88.1595 42.2967 87.69 41.9715 87.4485C41.6426 87.2043 41.2842 87.0009 40.9041 86.8434C40.2975 86.5922 39.6473 86.4628 38.9907 86.4628C38.3341 86.4628 37.6839 86.5922 37.0773 86.8434C36.6971 87.0009 36.3387 87.2043 36.0099 87.4485C35.6847 87.69 35.6873 88.1595 35.9737 88.4459C36.2602 88.7323 36.7216 88.7245 37.0609 88.5033C37.2432 88.3844 37.4365 88.2823 37.6386 88.1986C38.0673 88.0211 38.5267 87.9297 38.9907 87.9297C39.4547 87.9297 39.9141 88.0211 40.3428 88.1986C40.5448 88.2823 40.7382 88.3844 40.9205 88.5033C41.2598 88.7245 41.7212 88.7323 42.0076 88.4459Z" fill="#141416"/>
<path d="M44.8395 85.614C45.124 85.3295 45.1258 84.8657 44.8192 84.6051C44.1063 83.9992 43.302 83.5071 42.4348 83.1479C41.3429 82.6956 40.1726 82.4629 38.9907 82.4629C37.8088 82.4629 36.6385 82.6956 35.5465 83.1479C34.6794 83.5071 33.8751 83.9992 33.1622 84.6051C32.8556 84.8657 32.8574 85.3295 33.1419 85.614C33.4264 85.8986 33.8856 85.8954 34.1962 85.6397C34.771 85.1664 35.4138 84.78 36.1041 84.4941C37.0193 84.115 38.0001 83.9199 38.9907 83.9199C39.9812 83.9199 40.9621 84.115 41.8772 84.4941C42.5676 84.78 43.2103 85.1664 43.7851 85.6397C44.0958 85.8954 44.555 85.8986 44.8395 85.614Z" fill="#141416"/>
<path d="M47.6791 82.7747C47.9575 82.4963 47.9588 82.0433 47.6655 81.7806C46.5738 80.8024 45.3231 80.0148 43.9657 79.4526C42.3885 78.7992 40.698 78.463 38.9908 78.463C37.2836 78.463 35.5932 78.7992 34.0159 79.4526C32.6585 80.0148 31.4079 80.8024 30.3161 81.7806C30.0229 82.0433 30.0241 82.4963 30.3025 82.7747C30.5809 83.0531 31.0309 83.0513 31.3259 82.7905C32.2841 81.9437 33.3772 81.2604 34.5616 80.7698C35.9658 80.1882 37.4709 79.8888 38.9908 79.8888C40.5108 79.8888 42.0158 80.1882 43.4201 80.7698C44.6045 81.2604 45.6976 81.9437 46.6557 82.7905C46.9507 83.0513 47.4007 83.0531 47.6791 82.7747Z" fill="#141416"/>
<path fill-rule="evenodd" clip-rule="evenodd" d="M21.25 99C21.25 97.4812 22.4812 96.25 24 96.25H48C49.5188 96.25 50.75 97.4812 50.75 99V104C50.75 105.519 49.5188 106.75 48 106.75H24C22.4812 106.75 21.25 105.519 21.25 104V99ZM24 97.75C23.3096 97.75 22.75 98.3096 22.75 99V104C22.75 104.69 23.3096 105.25 24 105.25H48C48.6904 105.25 49.25 104.69 49.25 104V99C49.25 98.3096 48.6904 97.75 48 97.75H24Z" fill="#141416"/>
<path fill-rule="evenodd" clip-rule="evenodd" d="M27 86.25C27.4142 86.25 27.75 86.5858 27.75 87L27.75 97C27.75 97.4142 27.4142 97.75 27 97.75C26.5858 97.75 26.25 97.4142 26.25 97L26.25 87C26.25 86.5858 26.5858 86.25 27 86.25Z" fill="#141416"/>
<path d="M29 101.5C29 102.328 28.3284 103 27.5 103C26.6716 103 26 102.328 26 101.5C26 100.672 26.6716 100 27.5 100C28.3284 100 29 100.672 29 101.5Z" fill="#141416"/>
</g>
<path fill-rule="evenodd" clip-rule="evenodd" d="M96 94.5H91C90.1716 94.5 89.5 95.1716 89.5 96V101C89.5 101.828 90.1716 102.5 91 102.5H96C96.8284 102.5 97.5 101.828 97.5 101V96C97.5 95.1716 96.8284 94.5 96 94.5ZM91 93C89.3431 93 88 94.3431 88 96V101C88 102.657 89.3431 104 91 104H96C97.6569 104 99 102.657 99 101V96C99 94.3431 97.6569 93 96 93H91Z" fill="#141416"/>
<path fill-rule="evenodd" clip-rule="evenodd" d="M96 81.5H91C90.1716 81.5 89.5 82.1716 89.5 83V88C89.5 88.8284 90.1716 89.5 91 89.5H96C96.8284 89.5 97.5 88.8284 97.5 88V83C97.5 82.1716 96.8284 81.5 96 81.5ZM91 80C89.3431 80 88 81.3431 88 83V88C88 89.6569 89.3431 91 91 91H96C97.6569 91 99 89.6569 99 88V83C99 81.3431 97.6569 80 96 80H91Z" fill="#141416"/>
<path fill-rule="evenodd" clip-rule="evenodd" d="M109 94.5H104C103.172 94.5 102.5 95.1716 102.5 96V101C102.5 101.828 103.172 102.5 104 102.5H109C109.828 102.5 110.5 101.828 110.5 101V96C110.5 95.1716 109.828 94.5 109 94.5ZM104 93C102.343 93 101 94.3431 101 96V101C101 102.657 102.343 104 104 104H109C110.657 104 112 102.657 112 101V96C112 94.3431 110.657 93 109 93H104Z" fill="#141416"/>
<path fill-rule="evenodd" clip-rule="evenodd" d="M108 79.25C108.414 79.25 108.75 79.5858 108.75 80L108.75 88C108.75 88.4142 108.414 88.75 108 88.75C107.586 88.75 107.25 88.4142 107.25 88L107.25 80C107.25 79.5858 107.586 79.25 108 79.25Z" fill="#141416"/>
<path fill-rule="evenodd" clip-rule="evenodd" d="M112.75 84C112.75 84.4142 112.414 84.75 112 84.75H104C103.586 84.75 103.25 84.4142 103.25 84C103.25 83.5858 103.586 83.25 104 83.25H112C112.414 83.25 112.75 83.5858 112.75 84Z" fill="#141416"/>
<path fill-rule="evenodd" clip-rule="evenodd" d="M167.25 79C167.25 78.5858 167.586 78.25 168 78.25L178 78.25C178.414 78.25 178.75 78.5858 178.75 79C178.75 79.4142 178.414 79.75 178 79.75L168 79.75C167.586 79.75 167.25 79.4142 167.25 79Z" fill="#141416"/>
<path fill-rule="evenodd" clip-rule="evenodd" d="M173 78.25C173.414 78.25 173.75 78.5858 173.75 79L173.75 83C173.75 83.4142 173.414 83.75 173 83.75C172.586 83.75 172.25 83.4142 172.25 83L172.25 79C172.25 78.5858 172.586 78.25 173 78.25Z" fill="#141416"/>
<path fill-rule="evenodd" clip-rule="evenodd" d="M173 95.5C176.038 95.5 178.5 93.0376 178.5 90C178.5 86.9624 176.038 84.5 173 84.5C169.962 84.5 167.5 86.9624 167.5 90C167.5 93.0376 169.962 95.5 173 95.5ZM173 97C176.866 97 180 93.866 180 90C180 86.134 176.866 83 173 83C169.134 83 166 86.134 166 90C166 93.866 169.134 97 173 97Z" fill="#141416"/>
<path d="M173 91C172.448 91 172 90.5523 172 90C172 89.4477 172.448 89 173 89C173.552 89 174 89.4477 174 90C174 90.5523 173.552 91 173 91Z" fill="#141416"/>
<path d="M157.5 98C156.948 98 156.5 97.5523 156.5 97C156.5 96.4477 156.948 96 157.5 96C158.052 96 158.5 96.4477 158.5 97C158.5 97.5523 158.052 98 157.5 98Z" fill="#141416"/>
<path fill-rule="evenodd" clip-rule="evenodd" d="M164 101.5H151C150.172 101.5 149.5 102.172 149.5 103V104.5H165.5V103C165.5 102.172 164.828 101.5 164 101.5ZM151 100C149.343 100 148 101.343 148 103V105C148 105.552 148.448 106 149 106H166C166.552 106 167 105.552 167 105V103C167 101.343 165.657 100 164 100H151Z" fill="#141416"/>
<path fill-rule="evenodd" clip-rule="evenodd" d="M163.311 101C163.434 100.521 163.5 100.018 163.5 99.5C163.5 96.1863 160.814 93.5 157.5 93.5C154.186 93.5 151.5 96.1863 151.5 99.5C151.5 100.018 151.566 100.521 151.689 101H150.15C150.052 100.515 150 100.014 150 99.5C150 95.3579 153.358 92 157.5 92C161.642 92 165 95.3579 165 99.5C165 100.014 164.948 100.515 164.85 101H163.311Z" fill="#141416"/>
<path fill-rule="evenodd" clip-rule="evenodd" d="M234.5 88.5V99.5H242.5V88.5H234.5ZM234 87C233.448 87 233 87.4477 233 88V100C233 100.552 233.448 101 234 101H243C243.552 101 244 100.552 244 100V88C244 87.4477 243.552 87 243 87H234Z" fill="#141416"/>
<path fill-rule="evenodd" clip-rule="evenodd" d="M223.25 100C223.25 99.5858 223.586 99.25 224 99.25H231C231.414 99.25 231.75 99.5858 231.75 100C231.75 100.414 231.414 100.75 231 100.75H224C223.586 100.75 223.25 100.414 223.25 100Z" fill="#141416"/>
<path fill-rule="evenodd" clip-rule="evenodd" d="M220.25 97C220.25 96.5858 220.586 96.25 221 96.25L231 96.25C231.414 96.25 231.75 96.5858 231.75 97C231.75 97.4142 231.414 97.75 231 97.75L221 97.75C220.586 97.75 220.25 97.4142 220.25 97Z" fill="#141416"/>
<path d="M229.044 89.7396L226.449 88.2565C226.249 88.1422 226 88.2866 226 88.517V91.4831C226 91.7134 226.249 91.8578 226.449 91.7436L229.044 90.2605C229.246 90.1453 229.246 89.8547 229.044 89.7396Z" fill="#141416"/>
<path fill-rule="evenodd" clip-rule="evenodd" d="M217.75 82.75V90.5C217.75 90.9142 217.414 91.25 217 91.25C216.586 91.25 216.25 90.9142 216.25 90.5V82.3C216.25 81.7201 216.72 81.25 217.3 81.25H237.7C238.28 81.25 238.75 81.7201 238.75 82.3V85.5C238.75 85.9142 238.414 86.25 238 86.25C237.586 86.25 237.25 85.9142 237.25 85.5V82.75H217.75Z" fill="#141416"/>
<path fill-rule="evenodd" clip-rule="evenodd" d="M213.5 93.5V102.5H217.5V93.5H213.5ZM213 92C212.448 92 212 92.4477 212 93V103C212 103.552 212.448 104 213 104H218C218.552 104 219 103.552 219 103V93C219 92.4477 218.552 92 218 92H213Z" fill="#141416"/>
<path fill-rule="evenodd" clip-rule="evenodd" d="M301 94.5H294C291.515 94.5 289.5 96.5147 289.5 99V100C289.5 102.485 291.515 104.5 294 104.5H301C303.485 104.5 305.5 102.485 305.5 100V99C305.5 96.5147 303.485 94.5 301 94.5ZM294 93C290.686 93 288 95.6863 288 99V100C288 103.314 290.686 106 294 106H301C304.314 106 307 103.314 307 100V99C307 95.6863 304.314 93 301 93H294Z" fill="#141416"/>
<path d="M287 89.4394V86.5605C287 86.3209 287.267 86.178 287.466 86.3109L289.626 87.7503C289.804 87.8691 289.804 88.1308 289.626 88.2496L287.466 89.689C287.267 89.8219 287 89.679 287 89.4394Z" fill="#141416"/>
<path fill-rule="evenodd" clip-rule="evenodd" d="M278.25 81C278.25 79.4812 279.481 78.25 281 78.25H295C296.519 78.25 297.75 79.4812 297.75 81V91C297.75 91.4142 297.414 91.75 297 91.75C296.586 91.75 296.25 91.4142 296.25 91V81C296.25 80.3096 295.69 79.75 295 79.75H281C280.31 79.75 279.75 80.3096 279.75 81V95C279.75 95.6904 280.31 96.25 281 96.25H286C286.414 96.25 286.75 96.5858 286.75 97C286.75 97.4142 286.414 97.75 286 97.75H281C279.481 97.75 278.25 96.5188 278.25 95V81Z" fill="#141416"/>
<path d="M302 99.5C302 100.328 301.328 101 300.5 101C299.672 101 299 100.328 299 99.5C299 98.6716 299.672 98 300.5 98C301.328 98 302 98.6716 302 99.5Z" fill="#141416"/>
<path fill-rule="evenodd" clip-rule="evenodd" d="M351.25 100C351.25 99.5858 351.586 99.25 352 99.25H359C359.414 99.25 359.75 99.5858 359.75 100C359.75 100.414 359.414 100.75 359 100.75H352C351.586 100.75 351.25 100.414 351.25 100Z" fill="#141416"/>
<path fill-rule="evenodd" clip-rule="evenodd" d="M348.25 97C348.25 96.5858 348.586 96.25 349 96.25L359 96.25C359.414 96.25 359.75 96.5858 359.75 97C359.75 97.4142 359.414 97.75 359 97.75L349 97.75C348.586 97.75 348.25 97.4142 348.25 97Z" fill="#141416"/>
<path d="M357.044 89.7396L354.449 88.2565C354.249 88.1422 354 88.2866 354 88.517V91.4831C354 91.7134 354.249 91.8578 354.449 91.7436L357.044 90.2605C357.246 90.1453 357.246 89.8547 357.044 89.7396Z" fill="#141416"/>
<path fill-rule="evenodd" clip-rule="evenodd" d="M345.75 82.75V90.5C345.75 90.9142 345.414 91.25 345 91.25C344.586 91.25 344.25 90.9142 344.25 90.5V82.3C344.25 81.7201 344.72 81.25 345.3 81.25H365.7C366.28 81.25 366.75 81.7201 366.75 82.3V85.5C366.75 85.9142 366.414 86.25 366 86.25C365.586 86.25 365.25 85.9142 365.25 85.5V82.75H345.75Z" fill="#141416"/>
<rect x="362" y="91" width="10" height="10" fill="#D9D9D9"/>
<g clip-path="url(#clip1_1300_21944)">
<path d="M423.698 90.7559C424.089 91.1464 424.089 91.7796 423.698 92.1701C423.307 92.5606 422.674 92.5606 422.284 92.1701C421.893 91.7796 421.893 91.1464 422.284 90.7559C422.674 90.3654 423.307 90.3654 423.698 90.7559Z" fill="#141416"/>
<path d="M426.008 88.4459C426.294 88.1595 426.297 87.69 425.971 87.4485C425.643 87.2043 425.284 87.0009 424.904 86.8434C424.297 86.5922 423.647 86.4628 422.991 86.4628C422.334 86.4628 421.684 86.5922 421.077 86.8434C420.697 87.0009 420.339 87.2043 420.01 87.4485C419.685 87.69 419.687 88.1595 419.974 88.4459C420.26 88.7323 420.722 88.7245 421.061 88.5033C421.243 88.3844 421.437 88.2823 421.639 88.1986C422.067 88.0211 422.527 87.9297 422.991 87.9297C423.455 87.9297 423.914 88.0211 424.343 88.1986C424.545 88.2823 424.738 88.3844 424.92 88.5033C425.26 88.7245 425.721 88.7323 426.008 88.4459Z" fill="#141416"/>
<path d="M428.84 85.614C429.124 85.3295 429.126 84.8657 428.819 84.6051C428.106 83.9992 427.302 83.5071 426.435 83.1479C425.343 82.6956 424.173 82.4629 422.991 82.4629C421.809 82.4629 420.638 82.6956 419.547 83.1479C418.679 83.5071 417.875 83.9992 417.162 84.6051C416.856 84.8657 416.857 85.3295 417.142 85.614C417.426 85.8986 417.886 85.8954 418.196 85.6397C418.771 85.1664 419.414 84.78 420.104 84.4941C421.019 84.115 422 83.9199 422.991 83.9199C423.981 83.9199 424.962 84.115 425.877 84.4941C426.568 84.78 427.21 85.1664 427.785 85.6397C428.096 85.8954 428.555 85.8986 428.84 85.614Z" fill="#141416"/>
<path d="M431.679 82.7747C431.958 82.4963 431.959 82.0433 431.666 81.7806C430.574 80.8024 429.323 80.0148 427.966 79.4526C426.388 78.7992 424.698 78.463 422.991 78.463C421.284 78.463 419.593 78.7992 418.016 79.4526C416.659 80.0148 415.408 80.8024 414.316 81.7806C414.023 82.0433 414.024 82.4963 414.303 82.7747C414.581 83.0531 415.031 83.0513 415.326 82.7905C416.284 81.9437 417.377 81.2604 418.562 80.7698C419.966 80.1882 421.471 79.8888 422.991 79.8888C424.511 79.8888 426.016 80.1882 427.42 80.7698C428.604 81.2604 429.698 81.9437 430.656 82.7905C430.951 83.0513 431.401 83.0531 431.679 82.7747Z" fill="#141416"/>
<path fill-rule="evenodd" clip-rule="evenodd" d="M417.824 92.8096C417.882 92.4554 418.216 92.2153 418.57 92.2734C419.903 92.4921 420.92 93.6471 420.92 95.0419L420.92 95.0432C420.917 96.4582 419.868 97.6249 418.506 97.8163C418.151 97.8662 417.822 97.6186 417.772 97.2631C417.722 96.9076 417.97 96.5789 418.325 96.5289C419.056 96.4263 419.618 95.7994 419.62 95.0412C419.619 94.2942 419.075 93.6736 418.36 93.5563C418.006 93.4982 417.766 93.1639 417.824 92.8096Z" fill="#141416"/>
<path fill-rule="evenodd" clip-rule="evenodd" d="M419.153 99.5917C419.207 99.2367 419.537 98.9919 419.892 99.045C420.434 99.1259 420.973 99.2705 421.393 99.5456C421.845 99.8422 422.167 100.302 422.167 100.925C422.167 101.336 422.026 101.696 421.77 101.985C421.527 102.261 421.205 102.443 420.877 102.568C420.542 102.696 420.166 102.528 420.038 102.193C419.91 101.857 420.078 101.482 420.414 101.354C420.624 101.273 420.738 101.19 420.796 101.124C420.842 101.073 420.867 101.018 420.867 100.925C420.867 100.817 420.835 100.734 420.68 100.633C420.493 100.51 420.172 100.401 419.7 100.331C419.345 100.278 419.1 99.9467 419.153 99.5917Z" fill="#141416"/>
<path fill-rule="evenodd" clip-rule="evenodd" d="M410.57 99.7466C411.49 99.4378 412.696 99.3479 413.915 99.3479C415.141 99.3479 416.347 99.4409 417.267 99.7535C417.73 99.911 418.168 100.14 418.496 100.483C418.839 100.842 419.033 101.3 419.033 101.835C419.033 102.371 418.837 102.828 418.492 103.186C418.162 103.528 417.723 103.754 417.259 103.909C416.339 104.217 415.134 104.306 413.915 104.306C412.689 104.306 411.483 104.213 410.563 103.901C410.1 103.744 409.661 103.516 409.333 103.173C408.99 102.814 408.796 102.357 408.796 101.822C408.796 101.285 408.992 100.828 409.337 100.47C409.666 100.128 410.106 99.9021 410.57 99.7466ZM410.273 101.373C410.157 101.493 410.096 101.629 410.096 101.822C410.096 102.016 410.157 102.153 410.273 102.274C410.404 102.412 410.629 102.551 410.98 102.67C411.689 102.91 412.718 103.006 413.915 103.006C415.107 103.006 416.136 102.914 416.847 102.676C417.199 102.558 417.425 102.42 417.556 102.284C417.672 102.163 417.733 102.028 417.733 101.835C417.733 101.64 417.672 101.503 417.556 101.381C417.424 101.243 417.2 101.104 416.849 100.984C416.14 100.743 415.112 100.648 413.915 100.648C412.724 100.648 411.694 100.741 410.983 100.979C410.631 101.097 410.405 101.236 410.273 101.373Z" fill="#141416"/>
<path fill-rule="evenodd" clip-rule="evenodd" d="M410.401 95.0505C410.401 93.1103 411.975 91.5375 413.915 91.5375C415.856 91.5375 417.429 93.111 417.429 95.0517C417.429 96.9933 415.856 98.566 413.915 98.566H413.892C411.956 98.5595 410.394 96.9853 410.401 95.0505ZM410.401 95.0505C410.401 95.0501 410.401 95.0497 410.401 95.0493L411.051 95.0517H410.401C410.401 95.0513 410.401 95.0509 410.401 95.0505ZM413.915 92.8375C412.692 92.8375 411.701 93.829 411.701 95.0517V95.0542C411.696 96.2714 412.678 97.2613 413.895 97.266H413.915C415.138 97.266 416.129 96.2751 416.129 95.0517C416.129 93.829 415.138 92.8375 413.915 92.8375Z" fill="#141416"/>
<path fill-rule="evenodd" clip-rule="evenodd" d="M410.005 92.8096C410.063 93.1639 409.823 93.4982 409.469 93.5563C408.754 93.6736 408.21 94.2942 408.209 95.0412C408.211 95.7996 408.773 96.4263 409.504 96.5289C409.859 96.5788 410.107 96.9075 410.057 97.263C410.007 97.6185 409.679 97.8662 409.323 97.8163C407.96 97.6249 406.912 96.458 406.909 95.0432L406.909 95.0419C406.909 93.6471 407.926 92.4921 409.259 92.2734C409.613 92.2153 409.947 92.4554 410.005 92.8096Z" fill="#141416"/>
<path fill-rule="evenodd" clip-rule="evenodd" d="M408.676 99.5917C408.729 99.9467 408.484 100.278 408.129 100.331C407.657 100.401 407.336 100.51 407.149 100.633C406.994 100.734 406.962 100.817 406.962 100.925C406.962 101.018 406.988 101.073 407.033 101.124C407.091 101.19 407.205 101.273 407.416 101.354C407.751 101.482 407.919 101.857 407.791 102.193C407.663 102.528 407.287 102.696 406.952 102.568C406.624 102.443 406.303 102.261 406.059 101.985C405.804 101.696 405.662 101.336 405.662 100.925C405.662 100.302 405.984 99.8422 406.436 99.5456C406.856 99.2705 407.395 99.1259 407.937 99.045C408.292 98.9919 408.623 99.2367 408.676 99.5917Z" fill="#141416"/>
</g>
<g clip-path="url(#clip2_1300_21944)">
<path d="M487.698 90.7559C488.089 91.1464 488.089 91.7796 487.698 92.1701C487.307 92.5606 486.674 92.5606 486.284 92.1701C485.893 91.7796 485.893 91.1464 486.284 90.7559C486.674 90.3654 487.307 90.3654 487.698 90.7559Z" fill="#141416"/>
<path d="M490.008 88.4459C490.294 88.1595 490.297 87.69 489.971 87.4485C489.643 87.2043 489.284 87.0009 488.904 86.8434C488.297 86.5922 487.647 86.4628 486.991 86.4628C486.334 86.4628 485.684 86.5922 485.077 86.8434C484.697 87.0009 484.339 87.2043 484.01 87.4485C483.685 87.69 483.687 88.1595 483.974 88.4459C484.26 88.7323 484.722 88.7245 485.061 88.5033C485.243 88.3844 485.437 88.2823 485.639 88.1986C486.067 88.0211 486.527 87.9297 486.991 87.9297C487.455 87.9297 487.914 88.0211 488.343 88.1986C488.545 88.2823 488.738 88.3844 488.92 88.5033C489.26 88.7245 489.721 88.7323 490.008 88.4459Z" fill="#141416"/>
<path d="M492.84 85.614C493.124 85.3295 493.126 84.8657 492.819 84.6051C492.106 83.9992 491.302 83.5071 490.435 83.1479C489.343 82.6956 488.173 82.4629 486.991 82.4629C485.809 82.4629 484.638 82.6956 483.547 83.1479C482.679 83.5071 481.875 83.9992 481.162 84.6051C480.856 84.8657 480.857 85.3295 481.142 85.614C481.426 85.8986 481.886 85.8954 482.196 85.6397C482.771 85.1664 483.414 84.78 484.104 84.4941C485.019 84.115 486 83.9199 486.991 83.9199C487.981 83.9199 488.962 84.115 489.877 84.4941C490.568 84.78 491.21 85.1664 491.785 85.6397C492.096 85.8954 492.555 85.8986 492.84 85.614Z" fill="#141416"/>
<path d="M495.679 82.7747C495.958 82.4963 495.959 82.0433 495.666 81.7806C494.574 80.8024 493.323 80.0148 491.966 79.4526C490.388 78.7992 488.698 78.463 486.991 78.463C485.284 78.463 483.593 78.7992 482.016 79.4526C480.659 80.0148 479.408 80.8024 478.316 81.7806C478.023 82.0433 478.024 82.4963 478.303 82.7747C478.581 83.0531 479.031 83.0513 479.326 82.7905C480.284 81.9437 481.377 81.2604 482.562 80.7698C483.966 80.1882 485.471 79.8888 486.991 79.8888C488.511 79.8888 490.016 80.1882 491.42 80.7698C492.604 81.2604 493.698 81.9437 494.656 82.7905C494.951 83.0513 495.401 83.0531 495.679 82.7747Z" fill="#141416"/>
<path fill-rule="evenodd" clip-rule="evenodd" d="M474.005 100.332C475.092 99.9679 476.524 99.8596 477.989 99.8596C479.462 99.8596 480.895 99.9721 481.98 100.341C482.526 100.527 483.031 100.793 483.406 101.186C483.795 101.594 484.016 102.111 484.016 102.72C484.016 103.331 483.793 103.848 483.402 104.255C483.025 104.646 482.518 104.909 481.972 105.092C480.885 105.457 479.453 105.565 477.989 105.565C476.516 105.565 475.082 105.453 473.997 105.084C473.451 104.898 472.945 104.632 472.571 104.24C472.181 103.832 471.961 103.314 471.961 102.705C471.961 102.094 472.183 101.576 472.575 101.17C472.951 100.779 473.459 100.515 474.005 100.332ZM473.511 102.072C473.348 102.241 473.261 102.437 473.261 102.705C473.261 102.974 473.348 103.171 473.511 103.342C473.689 103.529 473.981 103.706 474.415 103.853C475.29 104.15 476.545 104.265 477.989 104.265C479.425 104.265 480.681 104.154 481.558 103.86C481.993 103.714 482.287 103.539 482.465 103.353C482.629 103.184 482.716 102.988 482.716 102.72C482.716 102.452 482.628 102.254 482.465 102.083C482.287 101.896 481.995 101.719 481.561 101.572C480.687 101.275 479.432 101.16 477.989 101.16C476.552 101.16 475.296 101.271 474.418 101.565C473.983 101.711 473.69 101.886 473.511 102.072Z" fill="#141416"/>
<path fill-rule="evenodd" clip-rule="evenodd" d="M473.891 94.5561C473.892 92.2939 475.727 90.4608 477.989 90.4608C480.251 90.4608 482.085 92.2947 482.085 94.5572C482.085 96.8196 480.251 98.6544 477.989 98.6544H477.962C475.707 98.6467 473.884 96.8116 473.891 94.5561ZM473.891 94.5561C473.891 94.5558 473.891 94.5554 473.891 94.555L474.541 94.5572H473.891C473.891 94.5569 473.891 94.5565 473.891 94.5561ZM477.989 91.7608C476.444 91.7608 475.191 93.0128 475.191 94.5572V94.5594C475.186 96.0974 476.429 97.3486 477.965 97.3544H477.989C479.533 97.3544 480.785 96.102 480.785 94.5572C480.785 93.0127 479.533 91.7608 477.989 91.7608Z" fill="#141416"/>
</g>
<g clip-path="url(#clip3_1300_21944)">
<path d="M533 95.033V86.566C533 86.3438 533.044 86.1941 533.134 86.1169C533.224 86.0398 533.395 86 533.649 86H533.84C534.093 86 534.268 86.0398 534.355 86.1169C534.445 86.1941 534.489 86.3438 534.489 86.566V94.8318C534.489 95.1101 534.56 95.309 534.699 95.4329C534.838 95.5545 535.069 95.6154 535.386 95.6154H539.707C539.95 95.6154 540.108 95.6481 540.184 95.7159C540.261 95.7814 540.299 95.9218 540.299 96.1323V96.3147C540.299 96.5252 540.261 96.6655 540.184 96.731C540.108 96.7965 539.947 96.8316 539.707 96.8316H535.064C534.336 96.8316 533.813 96.6866 533.485 96.3989C533.164 96.1112 533 95.6551 533 95.033Z" fill="#141416"/>
<path d="M541.548 93.3817V86.566C541.548 86.3438 541.591 86.1941 541.681 86.1169C541.771 86.0398 541.943 86 542.199 86H542.39C542.646 86 542.818 86.0398 542.905 86.1169C542.995 86.1941 543.039 86.3438 543.039 86.566V93.3817C543.039 94.2377 543.293 94.8505 543.805 95.2224C544.315 95.5943 545.125 95.7814 546.235 95.7814C547.344 95.7814 548.154 95.5966 548.664 95.2224C549.174 94.8505 549.43 94.2354 549.43 93.3817V86.566C549.43 86.3438 549.474 86.1941 549.564 86.1169C549.648 86.0398 549.823 86 550.076 86H550.267C550.521 86 550.695 86.0398 550.782 86.1169C550.872 86.1941 550.916 86.3438 550.916 86.566V93.3817C550.916 95.7931 549.354 96.9977 546.232 96.9977C543.11 97 541.548 95.7931 541.548 93.3817Z" fill="#141416"/>
<path d="M562.482 86.5989C562.61 86.3767 562.648 86.227 562.596 86.1498C562.545 86.0726 562.373 86.0328 562.081 86.0328H561.89C561.596 86.0328 561.38 86.0726 561.241 86.1498C561.1 86.227 560.966 86.3767 560.841 86.5989L560.628 86.9848C561.089 87.1345 561.525 87.3239 561.937 87.5485L562.482 86.5989Z" fill="#141416"/>
<path d="M555.235 86.5989C555.107 86.3767 554.973 86.227 554.834 86.1498C554.692 86.0726 554.477 86.0328 554.185 86.0328H553.994C553.7 86.0328 553.528 86.0726 553.479 86.1498C553.427 86.227 553.466 86.3767 553.594 86.5989L554.136 87.5391C554.548 87.3169 554.987 87.1275 555.448 86.9778L555.235 86.5989Z" fill="#141416"/>
<path d="M562.864 96.2983L560.663 92.5326C560.598 92.411 560.532 92.2987 560.464 92.1935C560.312 91.8754 560.08 91.5924 559.788 91.3655C559.717 91.307 559.649 91.2579 559.578 91.2182C559.537 91.1924 559.496 91.1667 559.453 91.1433C559.041 90.9118 558.553 90.7784 558.027 90.7784C557.503 90.7784 557.015 90.9118 556.606 91.141C556.535 91.1807 556.467 91.2228 556.402 91.2673C556.334 91.3117 556.268 91.3608 556.203 91.417C555.936 91.6415 555.72 91.9128 555.578 92.2192C555.516 92.3151 555.453 92.4204 555.385 92.5326L553.204 96.2983C553.075 96.5205 553.037 96.6702 553.089 96.7474C553.141 96.8246 553.313 96.8643 553.604 96.8643H553.814C554.106 96.8643 554.324 96.8246 554.463 96.7474C554.602 96.6702 554.736 96.5205 554.864 96.2983L555.897 94.4435L556.833 92.7665C556.849 92.7385 556.865 92.7127 556.882 92.6847C556.92 92.6215 556.955 92.5607 556.988 92.5022C556.988 92.5022 556.988 92.4999 556.991 92.4999C557.212 92.2029 557.593 92.0064 558.029 92.0064C558.496 92.0064 558.902 92.2309 559.112 92.5654C559.147 92.6285 559.186 92.6964 559.224 92.7665L560.153 94.4365L561.192 96.3007C561.32 96.5229 561.454 96.6726 561.593 96.7497C561.732 96.8269 561.95 96.8667 562.242 96.8667H562.452C562.746 96.8667 562.918 96.8269 562.967 96.7497C563.03 96.6702 562.992 96.5205 562.864 96.2983Z" fill="#141416"/>
<path d="M561.389 88.4933L561.484 88.3296C561.555 88.2056 561.503 88.0559 561.367 87.9881C561.031 87.8197 560.677 87.6747 560.309 87.5577C559.595 87.3309 558.826 87.2069 558.021 87.2069C557.225 87.2069 556.462 87.3285 555.756 87.5507C555.388 87.6677 555.033 87.8104 554.698 87.9788C554.561 88.0466 554.51 88.1986 554.581 88.3202L554.673 88.4816C554.864 88.8114 555.325 88.9401 555.707 88.7787C556.405 88.4816 557.19 88.3156 558.016 88.3156C558.853 88.3156 559.646 88.4863 560.35 88.788C560.734 88.9518 561.198 88.8255 561.389 88.4933Z" fill="black" fill-opacity="0.5"/>
<path d="M560.129 90.0323L560.211 89.8966C560.293 89.761 560.23 89.5949 560.072 89.5247C559.845 89.4241 559.608 89.3399 559.363 89.2745L559.366 89.2721C558.943 89.1575 558.493 89.0944 558.024 89.0944C557.563 89.0944 557.122 89.1552 556.704 89.2651C556.456 89.3306 556.219 89.4148 555.993 89.5154C555.835 89.5855 555.772 89.7516 555.854 89.8873L555.936 90.0206C556.086 90.2708 556.432 90.3808 556.732 90.2708C557.127 90.1235 557.563 90.0416 558.021 90.0416C558.482 90.0416 558.921 90.1235 559.322 90.2732C559.622 90.3878 559.974 90.2872 560.129 90.0323Z" fill="black" fill-opacity="0.5"/>
</g>
<rect x="0.5" y="56.5" width="583" height="71" rx="4.5" stroke="#9747FF" stroke-dasharray="10 5"/>
<defs>
<clipPath id="clip0_1300_21944">
<rect width="32" height="32" fill="white" transform="translate(20 76)"/>
</clipPath>
<clipPath id="clip1_1300_21944">
<rect width="32" height="32" fill="white" transform="translate(404 76)"/>
</clipPath>
<clipPath id="clip2_1300_21944">
<rect width="32" height="32" fill="white" transform="translate(468 76)"/>
</clipPath>
<clipPath id="clip3_1300_21944">
<rect width="30" height="11" fill="white" transform="translate(533 86)"/>
</clipPath>
</defs>
</svg>
